{
.appVersion = "1141";
DisplayStrings = (
"/tretroflexhook"
);
copyright = "Digitized data copyright (C) 2010-2011, Google Corporation.";
customParameters = (
{
name = license;
value = "Licensed under the Apache License, Version 2.0";
},
{
name = licenseURL;
value = "http://www.apache.org/licenses/LICENSE-2.0";
},
{
name = vendorID;
value = "1ASC";
},
{
name = panose;
value = (
2,
11,
3,
6,
3,
5,
4,
2,
2,
4
);
},
{
name = unicodeRanges;
value = (
0,
1,
2,
3,
5,
6,
7,
9,
29,
30,
31,
32,
33,
35,
36,
38,
45,
62,
67,
69
);
},
{
name = codePageRanges;
value = (
1252,
1250,
1251,
1253,
1254,
1257,
1258
);
},
{
name = glyphOrder;
value = (
.notdef,
null,
nonmarkingreturn,
space,
exclam,
quotedbl,
numbersign,
dollar,
percent,
ampersand,
quotesingle,
parenleft,
parenright,
asterisk,
plus,
comma,
hyphen,
period,
slash,
zero,
one,
two,
three,
four,
five,
six,
seven,
eight,
nine,
colon,
semicolon,
less,
equal,
greater,
question,
at,
A,
B,
C,
D,
E,
F,
G,
H,
I.alt,
J,
K,
L,
M,
N,
O,
P,
Q,
R,
S,
T,
U,
V,
W,
X,
Y,
Z,
bracketleft,
backslash,
bracketright,
asciicircum,
underscore,
grave,
a,
b,
c,
d,
e,
f,
g,
h,
i,
j,
k,
l,
m,
n,
o,
p,
q,
r,
s,
t,
u,
v,
w,
x,
y,
z,
braceleft,
bar,
braceright,
asciitilde,
nonbreakingspace,
exclamdown,
cent,
sterling,
currency,
yen,
brokenbar,
section,
dieresis,
copyright,
ordfeminine,
guillemotleft,
logicalnot,
uni00AD,
registered,
overscore,
degree,
plusminus,
twosuperior,
threesuperior,
acute,
mu,
paragraph,
periodcentered,
cedilla,
onesuperior,
ordmasculine,
guillemotright,
onequarter,
onehalf,
threequarters,
questiondown,
Agrave,
Aacute,
Acircumflex,
Atilde,
Adieresis,
Aring,
AE,
Ccedilla,
Egrave,
Eacute,
Ecircumflex,
Edieresis,
Igrave.alt,
Iacute.alt,
Icircumflex.alt,
Idieresis.alt,
Eth,
Ntilde,
Ograve,
Oacute,
Ocircumflex,
Otilde,
Odieresis,
multiply,
Oslash,
Ugrave,
Uacute,
Ucircumflex,
Udieresis,
Yacute,
Thorn,
germandbls,
agrave,
aacute,
acircumflex,
atilde,
adieresis,
aring,
ae,
ccedilla,
egrave,
eacute,
ecircumflex,
edieresis,
igrave,

glyphs = (
{
glyphname = .notdef;
lastChange = "2018-06-23 23:45:44 +0000";
layers = (
{
layerId = "4082F5B4-16CD-4EE9-8420-2E9C5A704856";
paths = (
{
closed = 1;
nodes = (
"505 0 LINE",
"505 714 LINE",
"94 714 LINE",
"94 0 LINE"
);
},
{
closed = 1;
nodes = (
"454 663 LINE",
"454 51 LINE",
"145 51 LINE",
"145 663 LINE"
);
}
);
width = 600;
}
);
note = .notdef;
},
{
glyphname = exclam;
lastChange = "2018-06-23 23:45:44 +0000";
layers = (
{
layerId = "4082F5B4-16CD-4EE9-8420-2E9C5A704856";
paths = (
{
closed = 1;
nodes = (
"190 714 LINE",
"91 184 LINE",
"121 184 LINE",
"248 714 LINE"
);
},
{
closed = 1;
nodes = (
"39 4 OFFCURVE",
"50 -8 OFFCURVE",
"72 -8 CURVE SMOOTH",
"100 -8 OFFCURVE",
"117 17 OFFCURVE",
"117 52 CURVE SMOOTH",
"117 75 OFFCURVE",
"106 87 OFFCURVE",
"85 87 CURVE SMOOTH",
"56 87 OFFCURVE",
"39 64 OFFCURVE",
"39 28 CURVE SMOOTH"
);
}
);
width = 245;
}
);
note = exclam;
unicode = 0021;
},
{
glyphname = quotedbl;
lastChange = "2018-06-23 23:45:44 +0000";
layers = (
{
layerId = "4082F5B4-16CD-4EE9-8420-2E9C5A704856";
paths = (
{
closed = 1;
nodes = (
"121 456 LINE",
"151 456 LINE",
"222 714 LINE",
"160 714 LINE"
);
},
{
closed = 1;
nodes = (
"282 456 LINE",
"312 456 LINE",
"383 714 LINE",
"321 714 LINE"
);
}
);
width = 352;
}
);
note = quotedbl;
unicode = 0022;
},
{
glyphname = numbersign;
lastChange = "2018-06-23 23:45:44 +0000";
layers = (
{
layerId = "4082F5B4-16CD-4EE9-8420-2E9C5A704856";
paths = (
{
closed = 1;
nodes = (
"40 220 LINE",
"178 220 LINE",
"113 0 LINE",
"156 0 LINE",
"221 220 LINE",
"397 220 LINE",
"331 0 LINE",
"375 0 LINE",
"440 220 LINE",
"596 220 LINE",
"600 259 LINE",
"452 259 LINE",
"510 453 LINE",
"657 453 LINE",
"661 492 LINE",
"522 492 LINE",
"588 714 LINE",
"546 714 LINE",
"480 492 LINE",
"302 492 LINE",
"368 714 LINE",
"324 714 LINE",
"259 492 LINE",
"107 492 LINE",
"103 453 LINE",
"248 453 LINE",
"190 259 LINE",
"44 259 LINE"
);
},
{
closed = 1;
nodes = (
"468 453 LINE",
"409 259 LINE",
"232 259 LINE",
"291 453 LINE"
);
}
);
width = 646;
}
);
note = numbersign;
unicode = 0023;
},
{
glyphname = dollar;
lastChange = "2018-06-23 23:45:44 +0000";
layers = (
{
layerId = "4082F5B4-16CD-4EE9-8420-2E9C5A704856";
paths = (
{
closed = 1;
nodes = (
"453 250 OFFCURVE",
"449 268 OFFCURVE",
"441 284 CURVE SMOOTH",
"425 316 OFFCURVE",
"401 337 OFFCURVE",
"321 376 CURVE",
"374 627 LINE",
"421 624 OFFCURVE",
"463 613 OFFCURVE",
"499 593 CURVE",
"516 631 LINE",
"475 651 OFFCURVE",
"429 663 OFFCURVE",
"381 664 CURVE",
"401 758 LINE",
"362 758 LINE",
"342 664 LINE",
"233 662 OFFCURVE",
"157 594 OFFCURVE",
"157 493 CURVE SMOOTH",
"157 471 OFFCURVE",
"161 453 OFFCURVE",
"169 437 CURVE SMOOTH",
"184 404 OFFCURVE",
"204 384 OFFCURVE",
"276 349 CURVE",
"222 99 LINE",
"175 99 OFFCURVE",
"111 113 OFFCURVE",
"69 135 CURVE",
"69 89 LINE",
"106 71 OFFCURVE",
"162 61 OFFCURVE",
"213 59 CURVE",
"188 -58 LINE",
"228 -58 LINE",
"254 59 LINE",
"375 66 OFFCURVE",
"453 130 OFFCURVE",
"453 228 CURVE SMOOTH"
);
},
{
closed = 1;
nodes = (
"382 307 OFFCURVE",
"411 274 OFFCURVE",
"411 225 CURVE SMOOTH",
"411 149 OFFCURVE",
"354 104 OFFCURVE",
"262 99 CURVE",
"311 336 LINE"
);
},
{
closed = 1;
nodes = (
"220 417 OFFCURVE",
"200 446 OFFCURVE",
"200 497 CURVE SMOOTH",
"200 572 OFFCURVE",
"248 621 OFFCURVE",
"335 627 CURVE",
"285 387 LINE"
);
}
);
width = 551;
}
);
note = dollar;
unicode = 0024;
},
{
glyphname = percent;
lastChange = "2018-06-23 23:45:44 +0000";
layers = (
{
layerId = "4082F5B4-16CD-4EE9-8420-2E9C5A704856";
paths = (
{
closed = 1;
nodes = (
"104 0 LINE",
"156 0 LINE",
"712 714 LINE",
"658 714 LINE"
);
},
{
closed = 1;
nodes = (
"742 390 OFFCURVE",
"708 437 OFFCURVE",
"629 437 CURVE SMOOTH",
"594 437 OFFCURVE",
"563 424 OFFCURVE",
"535 399 CURVE SMOOTH",
"479 349 OFFCURVE",
"442 239 OFFCURVE",
"442 135 CURVE SMOOTH",
"442 39 OFFCURVE",
"482 -11 OFFCURVE",
"555 -11 CURVE SMOOTH",
"591 -11 OFFCURVE",
"624 1 OFFCURVE",
"651 27 CURVE SMOOTH",
"708 78 OFFCURVE",
"742 185 OFFCURVE",
"742 299 CURVE SMOOTH"
);
},
{
closed = 1;
nodes = (
"678 401 OFFCURVE",
"700 366 OFFCURVE",
"700 295 CURVE SMOOTH",
"700 152 OFFCURVE",
"644 25 OFFCURVE",
"559 25 CURVE SMOOTH",
"512 25 OFFCURVE",
"484 63 OFFCURVE",
"484 138 CURVE SMOOTH",
"484 182 OFFCURVE",
"490 224 OFFCURVE",
"503 267 CURVE SMOOTH",
"529 351 OFFCURVE",
"575 401 OFFCURVE",
"627 401 CURVE SMOOTH"
);
},
{
closed = 1;
nodes = (
"371 677 OFFCURVE",
"333 723 OFFCURVE",
"258 723 CURVE SMOOTH",
"223 723 OFFCURVE",
"191 710 OFFCURVE",
"164 686 CURVE SMOOTH",
"107 635 OFFCURVE",
"71 525 OFFCURVE",
"71 421 CURVE SMOOTH",
"71 325 OFFCURVE",
"111 275 OFFCURVE",
"184 275 CURVE SMOOTH",
"220 275 OFFCURVE",
"252 288 OFFCURVE",
"280 313 CURVE SMOOTH",
"336 364 OFFCURVE",
"371 471 OFFCURVE",
"371 585 CURVE SMOOTH"
);
},
{
closed = 1;
nodes = (
"307 687 OFFCURVE",
"329 652 OFFCURVE",
"329 581 CURVE SMOOTH",
"329 534 OFFCURVE",
"323 489 OFFCURVE",
"311 446 CURVE SMOOTH",
"286 360 OFFCURVE",
"243 311 OFFCURVE",
"188 311 CURVE SMOOTH",
"141 311 OFFCURVE",
"113 349 OFFCURVE",
"113 424 CURVE SMOOTH",
"113 467 OFFCURVE",
"120 510 OFFCURVE",
"133 553 CURVE SMOOTH",
"160 639 OFFCURVE",
"205 687 OFFCURVE",
"256 687 CURVE SMOOTH"
);
}
);
width = 760;
}
);
note = percent;
unicode = 0025;
},
{
glyphname = ampersand;
lastChange = "2018-06-23 23:45:44 +0000";
layers = (
{
layerId = "4082F5B4-16CD-4EE9-8420-2E9C5A704856";
paths = (
{
closed = 1;
nodes = (
"423 681 OFFCURVE",
"464 645 OFFCURVE",
"464 586 CURVE SMOOTH",
"464 516 OFFCURVE",
"422 475 OFFCURVE",
"290 417 CURVE",
"254 465 OFFCURVE",
"237 511 OFFCURVE",
"237 554 CURVE SMOOTH",
"237 635 OFFCURVE",
"284 681 OFFCURVE",
"365 681 CURVE SMOOTH"
);
},
{
closed = 1;
nodes = (
"141 31 OFFCURVE",
"86 83 OFFCURVE",
"86 160 CURVE SMOOTH",
"86 189 OFFCURVE",
"92 215 OFFCURVE",
"104 238 CURVE SMOOTH",
"126 282 OFFCURVE",
"160 313 OFFCURVE",
"267 364 CURVE",
"439 123 LINE",
"361 55 OFFCURVE",
"297 31 OFFCURVE",
"227 31 CURVE SMOOTH"
);
},
{
closed = 1;
nodes = (
"38 57 OFFCURVE",
"108 -10 OFFCURVE",
"217 -10 CURVE SMOOTH",
"311 -10 OFFCURVE",
"386 20 OFFCURVE",
"465 90 CURVE",
"529 0 LINE",
"589 0 LINE",
"499 120 LINE",
"559 182 OFFCURVE",
"605 252 OFFCURVE",
"638 333 CURVE",
"584 333 LINE",
"565 278 OFFCURVE",
"521 205 OFFCURVE",
"473 156 CURVE",
"312 382 LINE",
"369 408 OFFCURVE",
"411 430 OFFCURVE",
"437 449 CURVE SMOOTH",
"489 488 OFFCURVE",
"516 532 OFFCURVE",
"516 587 CURVE SMOOTH",
"516 671 OFFCURVE",
"459 725 OFFCURVE",
"365 725 CURVE SMOOTH",
"259 725 OFFCURVE",
"187 656 OFFCURVE",
"187 554 CURVE SMOOTH",
"187 514 OFFCURVE",
"200 473 OFFCURVE",
"225 432 CURVE SMOOTH",
"245 399 LINE",
"98 334 OFFCURVE",
"38 264 OFFCURVE",
"38 158 CURVE SMOOTH"
);
}
);
width = 650;
}
);
note = ampersand;
unicode = 0026;
},
{
glyphname = quotesingle;
lastChange = "2018-06-23 23:45:44 +0000";
layers = (
{
layerId = "4082F5B4-16CD-4EE9-8420-2E9C5A704856";
paths = (
{
closed = 1;
nodes = (
"124 456 LINE",
"154 456 LINE",
"225 714 LINE",
"163 714 LINE"
);
}
);
width = 197;
}
);
note = quotesingle;
unicode = 0027;
},
{
glyphname = parenleft;
lastChange = "2018-06-23 23:45:44 +0000";
layers = (
{
layerId = "4082F5B4-16CD-4EE9-8420-2E9C5A704856";
paths = (
{
closed = 1;
nodes = (
"51 24 OFFCURVE",
"75 -73 OFFCURVE",
"122 -158 CURVE",
"161 -158 LINE",
"120 -66 OFFCURVE",
"99 32 OFFCURVE",
"99 135 CURVE SMOOTH",
"99 347 OFFCURVE",
"180 534 OFFCURVE",
"348 714 CURVE",
"297 714 LINE",
"127 539 OFFCURVE",
"51 355 OFFCURVE",
"51 132 CURVE SMOOTH"
);
}
);
width = 257;
}
);
note = parenleft;
unicode = 0028;
},
{
glyphname = parenright;
lastChange = "2018-06-23 23:45:44 +0000";
layers = (
{
layerId = "4082F5B4-16CD-4EE9-8420-2E9C5A704856";
paths = (
{
closed = 1;
nodes = (
"221 532 OFFCURVE",
"197 628 OFFCURVE",
"150 714 CURVE",
"111 714 LINE",
"156 610 OFFCURVE",
"173 517 OFFCURVE",
"173 421 CURVE SMOOTH",
"173 208 OFFCURVE",
"91 20 OFFCURVE",
"-76 -158 CURVE",
"-25 -158 LINE",
"143 14 OFFCURVE",
"221 199 OFFCURVE",
"221 424 CURVE SMOOTH"
);
}
);
width = 257;
}
);
note = parenright;
unicode = 0029;
},
{
glyphname = asterisk;
lastChange = "2018-06-23 23:45:44 +0000";
layers = (
{
layerId = "4082F5B4-16CD-4EE9-8420-2E9C5A704856";
paths = (
{
closed = 1;
nodes = (
"325 562 LINE",
"133 644 LINE",
"114 594 LINE",
"305 533 LINE",
"150 378 LINE",
"188 340 LINE",
"327 510 LINE",
"393 306 LINE",
"449 324 LINE",
"361 520 LINE",
"564 506 LINE",
"568 558 LINE",
"354 554 LINE",
"407 752 LINE",
"348 761 LINE"
);
}
);
width = 555;
}
);
note = asterisk;
unicode = 002A;
},
{
glyphname = plus;
lastChange = "2018-06-23 23:45:44 +0000";
layers = (
{
layerId = "4082F5B4-16CD-4EE9-8420-2E9C5A704856";
paths = (
{
closed = 1;
nodes = (
"324 133 LINE",
"324 328 LINE",
"520 328 LINE",
"520 377 LINE",
"324 377 LINE",
"324 574 LINE",
"275 574 LINE",
"275 377 LINE",
"79 377 LINE",
"79 328 LINE",
"275 328 LINE",
"275 133 LINE"
);
}
);
width = 551;
}
);
note = plus;
unicode = 002B;
},
{
glyphname = comma;
lastChange = "2018-06-23 23:45:44 +0000";
layers = (
{
layerId = "4082F5B4-16CD-4EE9-8420-2E9C5A704856";
paths = (
{
closed = 1;
nodes = (
"51 56 OFFCURVE",
"7 -43 OFFCURVE",
"-44 -129 CURVE",
"-8 -129 LINE",
"44 -61 OFFCURVE",
"104 45 OFFCURVE",
"126 105 CURVE",
"122 116 LINE",
"68 116 LINE"
);
}
);
width = 220;
}
);
note = comma;
unicode = 002C;
},
{
glyphname = hyphen;
lastChange = "2018-06-23 23:45:44 +0000";
layers = (
{
layerId = "4082F5B4-16CD-4EE9-8420-2E9C5A704856";
paths = (
{
closed = 1;
nodes = (
"272 289 LINE",
"49 289 LINE",
"40 245 LINE",
"264 245 LINE"
);
}
);
width = 307;
}
);
note = hyphen;
unicode = 002D;
},
{
glyphname = period;
lastChange = "2018-06-23 23:45:44 +0000";
layers = (
{
layerId = "4082F5B4-16CD-4EE9-8420-2E9C5A704856";
paths = (
{
closed = 1;
nodes = (
"40 3 OFFCURVE",
"51 -9 OFFCURVE",
"73 -9 CURVE SMOOTH",
"101 -9 OFFCURVE",
"118 16 OFFCURVE",
"118 51 CURVE SMOOTH",
"118 74 OFFCURVE",
"107 86 OFFCURVE",
"86 86 CURVE SMOOTH",
"57 86 OFFCURVE",
"40 63 OFFCURVE",
"40 27 CURVE SMOOTH"
);
}
);
width = 237;
}
);
note = period;
unicode = 002E;
},
{
glyphname = slash;
lastChange = "2018-06-23 23:45:44 +0000";
layers = (
{
layerId = "4082F5B4-16CD-4EE9-8420-2E9C5A704856";
paths = (
{
closed = 1;
nodes = (
"-49 0 LINE",
"5 0 LINE",
"404 714 LINE",
"349 714 LINE"
);
}
);
width = 313;
}
);
note = slash;
unicode = 002F;
},
{
glyphname = zero;
lastChange = "2018-06-23 23:45:44 +0000";
layers = (
{
layerId = "4082F5B4-16CD-4EE9-8420-2E9C5A704856";
paths = (
{
closed = 1;
nodes = (
"525 649 OFFCURVE",
"470 725 OFFCURVE",
"359 725 CURVE SMOOTH",
"272 725 OFFCURVE",
"202 681 OFFCURVE",
"150 591 CURVE SMOOTH",
"99 500 OFFCURVE",
"68 362 OFFCURVE",
"68 241 CURVE SMOOTH",
"68 71 OFFCURVE",
"125 -10 OFFCURVE",
"240 -10 CURVE SMOOTH",
"328 -10 OFFCURVE",
"399 37 OFFCURVE",
"448 129 CURVE SMOOTH",
"497 222 OFFCURVE",
"525 365 OFFCURVE",
"525 496 CURVE SMOOTH"
);
},
{
closed = 1;
nodes = (
"438 682 OFFCURVE",
"475 621 OFFCURVE",
"475 491 CURVE SMOOTH",
"475 405 OFFCURVE",
"465 326 OFFCURVE",
"445 252 CURVE SMOOTH",
"406 106 OFFCURVE",
"335 33 OFFCURVE",
"245 33 CURVE SMOOTH",
"157 33 OFFCURVE",
"118 102 OFFCURVE",
"118 246 CURVE SMOOTH",
"118 323 OFFCURVE",
"129 396 OFFCURVE",
"150 466 CURVE SMOOTH",
"193 607 OFFCURVE",
"266 682 OFFCURVE",
"353 682 CURVE SMOOTH"
);
}
);
width = 551;
}
);
note = zero;
unicode = 0030;
},
{
glyphname = one;
lastChange = "2018-06-23 23:45:44 +0000";
layers = (
{
layerId = "4082F5B4-16CD-4EE9-8420-2E9C5A704856";
paths = (
{
closed = 1;
nodes = (
"371 714 LINE",
"173 588 LINE",
"198 550 LINE",
"269 594 OFFCURVE",
"309 620 OFFCURVE",
"320 628 CURVE SMOOTH",
"331 637 OFFCURVE",
"343 646 OFFCURVE",
"357 658 CURVE",
"339 593 OFFCURVE",
"327 545 OFFCURVE",
"321 515 CURVE SMOOTH",
"211 0 LINE",
"262 0 LINE",
"415 714 LINE"
);
}
);
width = 551;
}
);
note = one;
unicode = 0031;
},
{
glyphname = two;
lastChange = "2018-06-23 23:45:44 +0000";
layers = (
{
layerId = "4082F5B4-16CD-4EE9-8420-2E9C5A704856";
paths = (
{
closed = 1;
nodes = (
"93 47 LINE",
"93 49 LINE",
"280 214 LINE SMOOTH",
"349 276 OFFCURVE",
"400 325 OFFCURVE",
"432 362 CURVE SMOOTH",
"496 436 OFFCURVE",
"522 495 OFFCURVE",
"522 567 CURVE SMOOTH",
"522 666 OFFCURVE",
"457 724 OFFCURVE",
"344 724 CURVE SMOOTH",
"274 724 OFFCURVE",
"210 700 OFFCURVE",
"152 653 CURVE",
"178 617 LINE",
"229 659 OFFCURVE",
"284 680 OFFCURVE",
"341 680 CURVE SMOOTH",
"426 680 OFFCURVE",
"469 634 OFFCURVE",
"469 561 CURVE SMOOTH",
"469 500 OFFCURVE",
"444 447 OFFCURVE",
"388 382 CURVE SMOOTH",
"360 350 OFFCURVE",
"313 305 OFFCURVE",
"249 247 CURVE SMOOTH",
"30 51 LINE",
"19 0 LINE",
"444 0 LINE",
"452 47 LINE"
);
}
);
width = 551;
}
);
note = two;
unicode = 0032;
},
{
glyphname = three;
lastChange = "2018-06-23 23:45:44 +0000";
layers = (
{
layerId = "4082F5B4-16CD-4EE9-8420-2E9C5A704856";
paths = (
{
closed = 1;
nodes = (
"512 667 OFFCURVE",
"449 724 OFFCURVE",
"344 724 CURVE SMOOTH",
"270 724 OFFCURVE",
"201 698 OFFCURVE",
"146 655 CURVE",
"170 618 LINE",
"228 661 OFFCURVE",
"284 682 OFFCURVE",
"338 682 CURVE SMOOTH",
"419 682 OFFCURVE",
"461 641 OFFCURVE",
"461 567 CURVE SMOOTH",
"461 461 OFFCURVE",
"374 394 OFFCURVE",
"238 394 CURVE SMOOTH",
"184 394 LINE",
"174 347 LINE",
"231 347 LINE SMOOTH",
"334 347 OFFCURVE",
"395 294 OFFCURVE",
"395 200 CURVE SMOOTH",
"395 94 OFFCURVE",
"323 33 OFFCURVE",
"195 33 CURVE SMOOTH",
"139 33 OFFCURVE",
"83 47 OFFCURVE",
"27 75 CURVE",
"27 26 LINE",
"69 5 OFFCURVE",
"129 -10 OFFCURVE",
"192 -10 CURVE SMOOTH",
"244 -10 OFFCURVE",
"289 -2 OFFCURVE",
"326 14 CURVE SMOOTH",
"401 46 OFFCURVE",
"445 113 OFFCURVE",
"445 200 CURVE SMOOTH",
"445 288 OFFCURVE",
"397 352 OFFCURVE",
"321 367 CURVE",
"321 369 LINE",
"438 389 OFFCURVE",
"512 468 OFFCURVE",
"512 573 CURVE SMOOTH"
);
}
);
width = 551;
}
);
note = three;
unicode = 0033;
},
{
glyphname = four;
lastChange = "2018-06-23 23:45:44 +0000";
layers = (
{
layerId = "4082F5B4-16CD-4EE9-8420-2E9C5A704856";
paths = (
{
closed = 1;
nodes = (
"404 224 LINE",
"509 721 LINE",
"451 721 LINE",
"21 228 LINE",
"11 181 LINE",
"347 181 LINE",
"308 0 LINE",
"355 0 LINE",
"394 181 LINE",
"523 181 LINE",
"533 224 LINE"
);
},
{
closed = 1;
nodes = (
"391 589 LINE SMOOTH",
"412 613 OFFCURVE",
"433 640 OFFCURVE",
"454 670 CURVE",
"456 670 LINE",
"441 616 OFFCURVE",
"427 559 OFFCURVE",
"414 497 CURVE SMOOTH",
"401 435 OFFCURVE",
"382 344 OFFCURVE",
"356 224 CURVE",
"73 224 LINE"
);
}
);
width = 551;
}
);
note = four;
unicode = 0034;
},
{
glyphname = five;
lastChange = "2018-06-23 23:45:44 +0000";
layers = (
{
layerId = "4082F5B4-16CD-4EE9-8420-2E9C5A704856";
paths = (
{
closed = 1;
nodes = (
"246 429 OFFCURVE",
"211 424 OFFCURVE",
"179 415 CURVE",
"252 667 LINE",
"516 667 LINE",
"525 714 LINE",
"220 714 LINE",
"126 392 LINE",
"158 368 LINE",
"194 381 OFFCURVE",
"233 388 OFFCURVE",
"277 388 CURVE SMOOTH",
"368 388 OFFCURVE",
"428 333 OFFCURVE",
"428 242 CURVE SMOOTH",
"428 113 OFFCURVE",
"344 33 OFFCURVE",
"209 33 CURVE SMOOTH",
"154 33 OFFCURVE",
"98 48 OFFCURVE",
"43 77 CURVE",
"43 25 LINE",
"85 5 OFFCURVE",
"152 -10 OFFCURVE",
"207 -10 CURVE SMOOTH",
"375 -10 OFFCURVE",
"478 89 OFFCURVE",
"478 243 CURVE SMOOTH",
"478 358 OFFCURVE",
"407 429 OFFCURVE",
"284 429 CURVE SMOOTH"
);
}
);
width = 551;
}
);
note = five;
unicode = 0035;
},
{
glyphname = six;
lastChange = "2018-06-23 23:45:44 +0000";
layers = (
{
layerId = "4082F5B4-16CD-4EE9-8420-2E9C5A704856";
paths = (
{
closed = 1;
nodes = (
"83 72 OFFCURVE",
"147 -10 OFFCURVE",
"259 -10 CURVE SMOOTH",
"306 -10 OFFCURVE",
"348 1 OFFCURVE",
"384 24 CURVE SMOOTH",
"457 70 OFFCURVE",
"497 155 OFFCURVE",
"497 257 CURVE SMOOTH",
"497 375 OFFCURVE",
"436 444 OFFCURVE",
"331 444 CURVE SMOOTH",
"256 444 OFFCURVE",
"192 411 OFFCURVE",
"148 350 CURVE",
"144 350 LINE",
"191 563 OFFCURVE",
"298 680 OFFCURVE",
"450 680 CURVE SMOOTH",
"478 680 OFFCURVE",
"505 676 OFFCURVE",
"533 669 CURVE",
"542 713 LINE",
"523 720 OFFCURVE",
"493 723 OFFCURVE",
"453 723 CURVE SMOOTH",
"382 723 OFFCURVE",
"319 703 OFFCURVE",
"266 663 CURVE SMOOTH",
"159 583 OFFCURVE",
"83 393 OFFCURVE",
"83 209 CURVE SMOOTH"
);
},
{
closed = 1;
nodes = (
"182 33 OFFCURVE",
"132 95 OFFCURVE",
"132 202 CURVE SMOOTH",
"132 276 OFFCURVE",
"144 307 OFFCURVE",
"181 343 CURVE SMOOTH",
"217 379 OFFCURVE",
"266 401 OFFCURVE",
"319 401 CURVE SMOOTH",
"402 401 OFFCURVE",
"447 348 OFFCURVE",
"447 253 CURVE SMOOTH",
"447 212 OFFCURVE",
"439 175 OFFCURVE",
"425 141 CURVE SMOOTH",
"395 74 OFFCURVE",
"338 33 OFFCURVE",
"265 33 CURVE SMOOTH"
);
}
);
width = 551;
}
);
note = six;
unicode = 0036;
},
{
glyphname = seven;
lastChange = "2018-06-23 23:45:44 +0000";
layers = (
{
layerId = "4082F5B4-16CD-4EE9-8420-2E9C5A704856";
paths = (
{
closed = 1;
nodes = (
"554 660 LINE",
"564 714 LINE",
"145 714 LINE",
"134 667 LINE",
"508 667 LINE",
"119 0 LINE",
"174 0 LINE"
);
}
);
width = 551;
}
);
note = seven;
unicode = 0037;
},
{
glyphname = eight;
lastChange = "2018-06-23 23:45:44 +0000";
layers = (
{
layerId = "4082F5B4-16CD-4EE9-8420-2E9C5A704856";
paths = (
{
closed = 1;
nodes = (
"245 725 OFFCURVE",
"162 647 OFFCURVE",
"162 544 CURVE SMOOTH",
"162 479 OFFCURVE",
"189 429 OFFCURVE",
"254 382 CURVE",
"110 331 OFFCURVE",
"48 263 OFFCURVE",
"48 159 CURVE SMOOTH",
"48 54 OFFCURVE",
"122 -10 OFFCURVE",
"238 -10 CURVE SMOOTH",
"288 -10 OFFCURVE",
"330 -1 OFFCURVE",
"365 16 CURVE SMOOTH",
"435 50 OFFCURVE",
"474 112 OFFCURVE",
"474 188 CURVE SMOOTH",
"474 264 OFFCURVE",
"437 322 OFFCURVE",
"352 373 CURVE",
"483 422 OFFCURVE",
"532 482 OFFCURVE",
"532 572 CURVE SMOOTH",
"532 666 OFFCURVE",
"466 725 OFFCURVE",
"360 725 CURVE SMOOTH"
);
},
{
closed = 1;
nodes = (
"386 311 OFFCURVE",
"425 257 OFFCURVE",
"425 189 CURVE SMOOTH",
"425 97 OFFCURVE",
"353 31 OFFCURVE",
"243 31 CURVE SMOOTH",
"151 31 OFFCURVE",
"98 78 OFFCURVE",
"98 166 CURVE SMOOTH",
"98 251 OFFCURVE",
"156 311 OFFCURVE",
"298 358 CURVE"
);
},
{
closed = 1;
nodes = (
"437 683 OFFCURVE",
"485 639 OFFCURVE",
"485 568 CURVE SMOOTH",
"485 487 OFFCURVE",
"431 438 OFFCURVE",
"306 397 CURVE",
"230 445 OFFCURVE",
"209 485 OFFCURVE",
"209 544 CURVE SMOOTH",
"209 623 OFFCURVE",
"271 683 OFFCURVE",
"355 683 CURVE SMOOTH"
);
}
);
width = 551;
}
);
note = eight;
unicode = 0038;
},
{
glyphname = nine;
lastChange = "2018-06-23 23:45:44 +0000";
layers = (
{
layerId = "4082F5B4-16CD-4EE9-8420-2E9C5A704856";
paths = (
{
closed = 1;
nodes = (
"517 646 OFFCURVE",
"454 723 OFFCURVE",
"341 723 CURVE SMOOTH",
"293 723 OFFCURVE",
"251 712 OFFCURVE",
"215 689 CURVE SMOOTH",
"143 644 OFFCURVE",
"103 557 OFFCURVE",
"103 456 CURVE SMOOTH",
"103 339 OFFCURVE",
"167 266 OFFCURVE",
"273 266 CURVE SMOOTH",
"347 266 OFFCURVE",
"407 297 OFFCURVE",
"452 360 CURVE",
"456 360 LINE",
"406 141 OFFCURVE",
"304 31 OFFCURVE",
"150 31 CURVE SMOOTH",
"116 31 OFFCURVE",
"84 36 OFFCURVE",
"56 45 CURVE",
"56 1 LINE",
"80 -6 OFFCURVE",
"110 -10 OFFCURVE",
"147 -10 CURVE SMOOTH",
"222 -10 OFFCURVE",
"286 10 OFFCURVE",
"339 50 CURVE SMOOTH",
"444 129 OFFCURVE",
"517 316 OFFCURVE",
"517 504 CURVE SMOOTH"
);
},
{
closed = 1;
nodes = (
"419 680 OFFCURVE",
"468 619 OFFCURVE",
"468 511 CURVE SMOOTH",
"468 435 OFFCURVE",
"455 405 OFFCURVE",
"420 370 CURVE SMOOTH",
"384 334 OFFCURVE",
"334 311 OFFCURVE",
"280 311 CURVE SMOOTH",
"198 311 OFFCURVE",
"153 366 OFFCURVE",
"153 460 CURVE SMOOTH",
"153 501 OFFCURVE",
"160 539 OFFCURVE",
"175 572 CURVE SMOOTH",
"204 640 OFFCURVE",
"262 680 OFFCURVE",
"335 680 CURVE SMOOTH"
);
}
);
width = 551;
}
);
note = nine;
unicode = 0039;
},
{
glyphname = colon;
lastChange = "2018-06-23 23:45:44 +0000";
layers = (
{
layerId = "4082F5B4-16CD-4EE9-8420-2E9C5A704856";
paths = (
{
closed = 1;
nodes = (
"127 459 OFFCURVE",
"138 447 OFFCURVE",
"160 447 CURVE SMOOTH",
"188 447 OFFCURVE",
"205 471 OFFCURVE",
"205 507 CURVE SMOOTH",
"205 530 OFFCURVE",
"194 542 OFFCURVE",
"173 542 CURVE SMOOTH",
"145 542 OFFCURVE",
"127 520 OFFCURVE",
"127 483 CURVE SMOOTH"
);
},
{
closed = 1;
nodes = (
"50 3 OFFCURVE",
"61 -9 OFFCURVE",
"83 -9 CURVE SMOOTH",
"110 -9 OFFCURVE",
"128 15 OFFCURVE",
"128 51 CURVE SMOOTH",
"128 74 OFFCURVE",
"117 86 OFFCURVE",
"96 86 CURVE SMOOTH",
"67 86 OFFCURVE",
"50 63 OFFCURVE",
"50 27 CURVE SMOOTH"
);
}
);
width = 237;
}
);
note = colon;
unicode = 003A;
},
{
glyphname = semicolon;
lastChange = "2018-06-23 23:45:44 +0000";
layers = (
{
layerId = "4082F5B4-16CD-4EE9-8420-2E9C5A704856";
paths = (
{
closed = 1;
nodes = (
"69 56 OFFCURVE",
"25 -43 OFFCURVE",
"-26 -129 CURVE",
"10 -129 LINE",
"57 -70 OFFCURVE",
"121 42 OFFCURVE",
"144 105 CURVE",
"140 116 LINE",
"86 116 LINE"
);
},
{
closed = 1;
nodes = (
"130 459 OFFCURVE",
"141 447 OFFCURVE",
"163 447 CURVE SMOOTH",
"190 447 OFFCURVE",
"208 471 OFFCURVE",
"208 507 CURVE SMOOTH",
"208 530 OFFCURVE",
"197 542 OFFCURVE",
"176 542 CURVE SMOOTH",
"148 542 OFFCURVE",
"130 520 OFFCURVE",
"130 483 CURVE SMOOTH"
);
}
);
width = 237;
}
);
note = semicolon;
unicode = 003B;
},
{
glyphname = less;
lastChange = "2018-06-23 23:45:44 +0000";
layers = (
{
layerId = "4082F5B4-16CD-4EE9-8420-2E9C5A704856";
paths = (
{
closed = 1;
nodes = (
"122 351 LINE",
"513 546 LINE",
"513 596 LINE",
"67 366 LINE",
"67 330 LINE",
"513 128 LINE",
"513 180 LINE"
);
}
);
width = 551;
}
);
note = less;
unicode = 003C;
},
{
glyphname = equal;
lastChange = "2018-06-23 23:45:44 +0000";
layers = (
{
layerId = "4082F5B4-16CD-4EE9-8420-2E9C5A704856";
paths = (
{
closed = 1;
nodes = (
"523 481 LINE",
"82 481 LINE",
"82 432 LINE",
"523 432 LINE"
);
},
{
closed = 1;
nodes = (
"523 273 LINE",
"82 273 LINE",
"82 225 LINE",
"523 225 LINE"
);
}
);
width = 551;
}
);
note = equal;
unicode = 003D;
},
{
glyphname = greater;
lastChange = "2018-06-23 23:45:44 +0000";
layers = (
{
layerId = "4082F5B4-16CD-4EE9-8420-2E9C5A704856";
paths = (
{
closed = 1;
nodes = (
"530 330 LINE",
"530 366 LINE",
"83 596 LINE",
"83 546 LINE",
"474 351 LINE",
"83 180 LINE",
"83 128 LINE"
);
}
);
width = 551;
}
);
note = greater;
unicode = 003E;
},
{
glyphname = question;
lastChange = "2018-06-23 23:45:44 +0000";
layers = (
{
layerId = "4082F5B4-16CD-4EE9-8420-2E9C5A704856";
paths = (
{
closed = 1;
nodes = (
"170 208 OFFCURVE",
"178 231 OFFCURVE",
"186 247 CURVE SMOOTH",
"203 278 OFFCURVE",
"231 307 OFFCURVE",
"286 346 CURVE SMOOTH",
"394 424 OFFCURVE",
"431 488 OFFCURVE",
"431 571 CURVE SMOOTH",
"431 665 OFFCURVE",
"368 724 OFFCURVE",
"264 724 CURVE SMOOTH",
"198 724 OFFCURVE",
"144 704 OFFCURVE",
"89 672 CURVE",
"108 630 LINE",
"163 663 OFFCURVE",
"212 679 OFFCURVE",
"258 679 CURVE SMOOTH",
"333 679 OFFCURVE",
"380 636 OFFCURVE",
"380 566 CURVE SMOOTH",
"380 542 OFFCURVE",
"375 519 OFFCURVE",
"366 497 CURVE SMOOTH",
"346 454 OFFCURVE",
"314 418 OFFCURVE",
"238 364 CURVE SMOOTH",
"170 316 OFFCURVE",
"140 277 OFFCURVE",
"121 191 CURVE SMOOTH",
"118 177 LINE",
"163 177 LINE"
);
},
{
closed = 1;
nodes = (
"83 5 OFFCURVE",
"94 -7 OFFCURVE",
"116 -7 CURVE SMOOTH",
"144 -7 OFFCURVE",
"161 18 OFFCURVE",
"161 53 CURVE SMOOTH",
"161 76 OFFCURVE",
"150 88 OFFCURVE",
"129 88 CURVE SMOOTH",
"100 88 OFFCURVE",
"83 65 OFFCURVE",
"83 29 CURVE SMOOTH"
);
}
);
width = 390;
}
);
note = question;
unicode = 003F;
},
{
glyphname = at;
lastChange = "2018-06-23 23:45:44 +0000";
layers = (
{
layerId = "4082F5B4-16CD-4EE9-8420-2E9C5A704856";
paths = (
{
closed = 1;
nodes = (
"824 476 OFFCURVE",
"812 527 OFFCURVE",
"786 573 CURVE SMOOTH",
"734 664 OFFCURVE",
"639 712 OFFCURVE",
"516 712 CURVE SMOOTH",
"432 712 OFFCURVE",
"355 692 OFFCURVE",
"285 654 CURVE SMOOTH",
"145 576 OFFCURVE",
"61 428 OFFCURVE",
"61 248 CURVE SMOOTH",
"61 178 OFFCURVE",
"75 118 OFFCURVE",
"102 67 CURVE SMOOTH",
"157 -35 OFFCURVE",
"261 -90 OFFCURVE",
"393 -90 CURVE SMOOTH",
"464 -90 OFFCURVE",
"534 -77 OFFCURVE",
"602 -50 CURVE",
"602 -6 LINE",
"533 -33 OFFCURVE",
"464 -46 OFFCURVE",
"397 -46 CURVE SMOOTH",
"215 -46 OFFCURVE",
"109 64 OFFCURVE",
"109 252 CURVE SMOOTH",
"109 332 OFFCURVE",
"126 403 OFFCURVE",
"161 467 CURVE SMOOTH",
"229 594 OFFCURVE",
"359 668 OFFCURVE",
"512 668 CURVE SMOOTH",
"567 668 OFFCURVE",
"615 657 OFFCURVE",
"655 635 CURVE SMOOTH",
"734 592 OFFCURVE",
"778 510 OFFCURVE",
"778 408 CURVE SMOOTH",
"778 367 OFFCURVE",
"771 326 OFFCURVE",
"757 286 CURVE SMOOTH",
"729 205 OFFCURVE",
"677 153 OFFCURVE",
"621 153 CURVE SMOOTH",
"578 153 OFFCURVE",
"555 181 OFFCURVE",
"555 227 CURVE SMOOTH",
"555 253 OFFCURVE",
"562 290 OFFCURVE",
"574 335 CURVE SMOOTH",
"615 489 LINE",
"573 506 OFFCURVE",
"532 514 OFFCURVE",
"492 514 CURVE SMOOTH",
"445 514 OFFCURVE",
"402 502 OFFCURVE",
"365 479 CURVE SMOOTH",
"290 433 OFFCURVE",
"247 346 OFFCURVE",
"247 244 CURVE SMOOTH",
"247 160 OFFCURVE",
"293 110 OFFCURVE",
"366 110 CURVE SMOOTH",
"425 110 OFFCURVE",
"478 144 OFFCURVE",
"513 207 CURVE",
"515 207 LINE",
"515 149 OFFCURVE",
"554 110 OFFCURVE",
"618 110 CURVE SMOOTH",
"655 110 OFFCURVE",
"689 124 OFFCURVE",
"722 150 CURVE SMOOTH",
"786 204 OFFCURVE",
"824 302 OFFCURVE",
"824 419 CURVE SMOOTH"
);
},
{
closed = 1;
nodes = (
"516 473 OFFCURVE",
"539 469 OFFCURVE",
"560 462 CURVE",
"522 321 LINE SMOOTH",
"493 213 OFFCURVE",
"439 153 OFFCURVE",
"373 153 CURVE SMOOTH",
"326 153 OFFCURVE",
"298 187 OFFCURVE",
"298 247 CURVE SMOOTH",
"298 290 OFFCURVE",
"306 329 OFFCURVE",
"323 364 CURVE SMOOTH",
"356 433 OFFCURVE",
"418 473 OFFCURVE",
"492 473 CURVE SMOOTH"
);
}
);
width = 842;
}
);
note = at;
unicode = 0040;
},
{
glyphname = A;
lastChange = "2018-06-23 23:45:44 +0000";
layers = (
{
anchors = (
{
name = bottom;
position = "{202, 0}";
},
{
name = ogonek;
position = "{409, 5}";
},
{
name = top;
position = "{354, 714}";
}
);
guideLines = (
{
angle = 78;
position = "{700, 1346}";
}
);
layerId = "4082F5B4-16CD-4EE9-8420-2E9C5A704856";
paths = (
{
closed = 1;
nodes = (
"478 0 LINE",
"380 717 LINE",
"347 717 LINE",
"-54 0 LINE",
"3 0 LINE",
"143 254 LINE",
"393 254 LINE",
"427 0 LINE"
);
},
{
closed = 1;
nodes = (
"256 460 OFFCURVE",
"307 552 OFFCURVE",
"318 574 CURVE SMOOTH",
"329 596 OFFCURVE",
"339 617 OFFCURVE",
"349 637 CURVE",
"352 585 OFFCURVE",
"358 520 OFFCURVE",
"368 441 CURVE SMOOTH",
"387 299 LINE",
"168 299 LINE"
);
}
);
width = 517;
}
);
note = A;
unicode = 0041;
},
{
glyphname = B;
lastChange = "2018-06-23 23:45:44 +0000";
layers = (
{
anchors = (
{
name = bottom;
position = "{237, 0}";
},
{
name = top;
position = "{389, 714}";
}
);
guideLines = (
{
angle = 78;
position = "{770, 1346}";
}
);
layerId = "4082F5B4-16CD-4EE9-8420-2E9C5A704856";
paths = (
{
closed = 1;
nodes = (
"273 0 LINE SMOOTH",
"436 0 OFFCURVE",
"532 83 OFFCURVE",
"532 216 CURVE SMOOTH",
"532 295 OFFCURVE",
"491 351 OFFCURVE",
"409 371 CURVE",
"409 373 LINE",
"516 391 OFFCURVE",
"577 456 OFFCURVE",
"577 555 CURVE SMOOTH",
"577 657 OFFCURVE",
"510 714 OFFCURVE",
"386 714 CURVE SMOOTH",
"201 714 LINE",
"50 0 LINE"
);
},
{
closed = 1;
nodes = (
"375 670 LINE SMOOTH",
"473 670 OFFCURVE",
"525 629 OFFCURVE",
"525 552 CURVE SMOOTH",
"525 450 OFFCURVE",
"454 396 OFFCURVE",
"320 396 CURVE SMOOTH",
"184 396 LINE",
"242 670 LINE"
);
},
{
closed = 1;
nodes = (
"422 352 OFFCURVE",
"480 306 OFFCURVE",
"480 212 CURVE SMOOTH",
"480 102 OFFCURVE",
"407 44 OFFCURVE",
"276 44 CURVE SMOOTH",
"109 44 LINE",
"175 352 LINE",
"302 352 LINE SMOOTH"
);
}
);
width = 587;
}
);
note = B;
unicode = 0042;
},
{
glyphname = C;
lastChange = "2018-06-23 23:45:44 +0000";
layers = (
{
anchors = (
{
name = bottom;
position = "{229, 0}";
},
{
name = top;
position = "{381, 714}";
}
);
guideLines = (
{
angle = 78;
position = "{929, 1343}";
}
);
layerId = "4082F5B4-16CD-4EE9-8420-2E9C5A704856";
paths = (
{
closed = 1;
nodes = (
"514 678 OFFCURVE",
"562 667 OFFCURVE",
"597 647 CURVE",
"619 691 LINE",
"577 713 OFFCURVE",
"527 724 OFFCURVE",
"469 724 CURVE SMOOTH",
"397 724 OFFCURVE",
"332 705 OFFCURVE",
"273 666 CURVE SMOOTH",
"156 588 OFFCURVE",
"83 435 OFFCURVE",
"83 261 CURVE SMOOTH",
"83 89 OFFCURVE",
"173 -10 OFFCURVE",
"337 -10 CURVE SMOOTH",
"389 -10 OFFCURVE",
"440 -2 OFFCURVE",
"491 14 CURVE",
"491 60 LINE",
"438 43 OFFCURVE",
"388 35 OFFCURVE",
"343 35 CURVE SMOOTH",
"208 35 OFFCURVE",
"134 117 OFFCURVE",
"134 263 CURVE SMOOTH",
"134 342 OFFCURVE",
"148 414 OFFCURVE",
"178 479 CURVE SMOOTH",
"237 609 OFFCURVE",
"341 678 OFFCURVE",
"469 678 CURVE SMOOTH"
);
}
);
width = 571;
}
);
note = C;
unicode = 0043;
},
{
glyphname = D;
lastChange = "2018-06-23 23:45:44 +0000";
layers = (
{
anchors = (
{
name = bottom;
position = "{273, 0}";
},
{
name = center;
position = "{349, 357}";
},
{
name = top;
position = "{425, 714}";
}
);
guideLines = (
{
angle = 78;
position = "{845, 1346}";
}
);
layerId = "4082F5B4-16CD-4EE9-8420-2E9C5A704856";
paths = (
{
closed = 1;
nodes = (
"629 617 OFFCURVE",
"534 714 OFFCURVE",
"350 714 CURVE SMOOTH",
"201 714 LINE",
"50 0 LINE",
"211 0 LINE SMOOTH",
"294 0 OFFCURVE",
"367 17 OFFCURVE",
"429 51 CURVE SMOOTH",
"553 119 OFFCURVE",
"629 265 OFFCURVE",
"629 429 CURVE SMOOTH"
);
},
{
closed = 1;
nodes = (
"242 669 LINE",
"343 669 LINE SMOOTH",
"498 669 OFFCURVE",
"575 588 OFFCURVE",
"575 426 CURVE SMOOTH",
"575 351 OFFCURVE",
"560 284 OFFCURVE",
"530 225 CURVE SMOOTH",
"470 107 OFFCURVE",
"357 44 OFFCURVE",
"210 44 CURVE SMOOTH",
"108 44 LINE"
);
}
);
width = 659;
}
);
note = D;
unicode = 0044;
},
{
glyphname = E;
lastChange = "2018-06-23 23:45:44 +0000";
layers = (
{
anchors = (
{
name = bottom;
position = "{204, 0}";
},
{
name = ogonek;
position = "{412, 5}";
},
{
name = top;
position = "{356, 714}";
},
{
name = topleft;
position = "{105, 714}";
}
);
guideLines = (
{
angle = 78;
position = "{705, 1346}";
}
);
layerId = "4082F5B4-16CD-4EE9-8420-2E9C5A704856";
paths = (
{
closed = 1;
nodes = (
"109 46 LINE",
"175 352 LINE",
"462 352 LINE",
"472 398 LINE",
"184 398 LINE",
"241 668 LINE",
"546 668 LINE",
"556 714 LINE",
"201 714 LINE",
"50 0 LINE",
"405 0 LINE",
"415 46 LINE"
);
}
);
width = 521;
}
);
note = E;
unicode = 0045;
},
{
glyphname = F;
lastChange = "2018-06-23 23:45:44 +0000";
layers = (
{
anchors = (
{
name = bottom;
position = "{183, 0}";
},
{
name = top;
position = "{335, 714}";
}
);
guideLines = (
{
angle = 78;
position = "{661, 1346}";
}
);
layerId = "4082F5B4-16CD-4EE9-8420-2E9C5A704856";
paths = (
{
closed = 1;
nodes = (
"445 319 LINE",
"455 365 LINE",
"177 365 LINE",
"242 668 LINE",
"537 668 LINE",
"547 714 LINE",
"201 714 LINE",
"50 0 LINE",
"100 0 LINE",
"167 319 LINE"
);
}
);
width = 479;
}
);
note = F;
unicode = 0046;
},
{
glyphname = G;
lastChange = "2018-06-23 23:45:44 +0000";
layers = (
{
anchors = (
{
name = bottom;
position = "{279, 0}";
},
{
name = top;
position = "{431, 714}";
}
);
guideLines = (
{
angle = 78;
position = "{931, 1346}";
}
);
layerId = "4082F5B4-16CD-4EE9-8420-2E9C5A704856";
paths = (
{
closed = 1;
nodes = (
"557 315 LINE",
"500 58 LINE",
"450 43 OFFCURVE",
"399 35 OFFCURVE",
"349 35 CURVE SMOOTH",
"211 35 OFFCURVE",
"134 118 OFFCURVE",
"134 267 CURVE SMOOTH",
"134 345 OFFCURVE",
"148 416 OFFCURVE",
"177 479 CURVE SMOOTH",
"235 605 OFFCURVE",
"342 678 OFFCURVE",
"462 678 CURVE SMOOTH",
"519 678 OFFCURVE",
"564 670 OFFCURVE",
"636 640 CURVE",
"655 686 LINE",
"594 712 OFFCURVE",
"540 724 OFFCURVE",
"466 724 CURVE SMOOTH",
"395 724 OFFCURVE",
"331 705 OFFCURVE",
"273 667 CURVE SMOOTH",
"157 591 OFFCURVE",
"83 439 OFFCURVE",
"83 267 CURVE SMOOTH",
"83 88 OFFCURVE",
"178 -10 OFFCURVE",
"345 -10 CURVE SMOOTH",
"408 -10 OFFCURVE",
"474 2 OFFCURVE",
"543 26 CURVE",
"616 359 LINE",
"418 359 LINE",
"409 315 LINE"
);
}
);
width = 671;
}
);
note = G;
unicode = 0047;
},
{
glyphname = H;
lastChange = "2018-06-23 23:45:44 +0000";
layers = (
{
anchors = (
{
name = bottom;
position = "{277, 0}";
},
{
name = center;
position = "{353, 357}";
},
{
name = top;
position = "{429, 714}";
},
{
name = topleft;
position = "{105, 714}";
}
);
guideLines = (
{
angle = 78;
position = "{855, 1346}";
}
);
layerId = "4082F5B4-16CD-4EE9-8420-2E9C5A704856";
paths = (
{
closed = 1;
nodes = (
"621 714 LINE",
"554 397 LINE",
"183 397 LINE",
"251 714 LINE",
"201 714 LINE",
"50 0 LINE",
"100 0 LINE",
"173 351 LINE",
"544 351 LINE",
"470 0 LINE",
"519 0 LINE",
"670 714 LINE"
);
}
);
width = 667;
}
);
note = H;
unicode = 0048;
},
{
glyphname = I.alt;
lastChange = "2018-06-23 23:45:44 +0000";
layers = (
{
anchors = (
{
name = bottom;
position = "{85, 0}";
},
{
name = ogonek;
position = "{199, 5}";
},
{
name = top;
position = "{237, 714}";
},
{
name = topleft;
position = "{105, 714}";
}
);
guideLines = (
{
angle = 78;
position = "{462, 1346}";
}
);
layerId = "4082F5B4-16CD-4EE9-8420-2E9C5A704856";
paths = (
{
closed = 1;
nodes = (
"118 36 LINE",
"254 677 LINE",
"332 682 LINE",
"337 714 LINE",
"132 714 LINE",
"127 682 LINE",
"204 677 LINE",
"69 36 LINE",
"-11 31 LINE",
"-18 0 LINE",
"187 0 LINE",
"193 31 LINE"
);
}
);
width = 284;
}
);
note = I.alt;
},
{
glyphname = J;
lastChange = "2018-06-23 23:45:44 +0000";
layers = (
{
anchors = (
{
name = bottom;
position = "{60, 0}";
},
{
name = top;
position = "{212, 714}";
}
);
guideLines = (
{
angle = 78;
position = "{408, 1346}";
}
);
layerId = "4082F5B4-16CD-4EE9-8420-2E9C5A704856";
paths = (
{
closed = 1;
nodes = (
"10 -176 OFFCURVE",
"68 -125 OFFCURVE",
"91 -14 CURVE SMOOTH",
"244 714 LINE",
"193 714 LINE",
"42 -11 LINE SMOOTH",
"26 -90 OFFCURVE",
"-17 -129 OFFCURVE",
"-86 -129 CURVE SMOOTH",
"-112 -129 OFFCURVE",
"-134 -125 OFFCURVE",
"-153 -119 CURVE",
"-158 -164 LINE",
"-148 -169 OFFCURVE",
"-119 -176 OFFCURVE",
"-88 -176 CURVE SMOOTH"
);
}
);
width = 233;
}
);
note = J;
unicode = 004A;
},
{
glyphname = K;
lastChange = "2018-06-23 23:45:44 +0000";
layers = (
{
anchors = (
{
name = bottom;
position = "{217, 0}";
},
{
name = top;
position = "{369, 714}";
}
);
guideLines = (
{
angle = 78;
position = "{731, 1346}";
}
);
layerId = "4082F5B4-16CD-4EE9-8420-2E9C5A704856";
paths = (
{
closed = 1;
nodes = (
"638 714 LINE",
"571 714 LINE",
"239 420 LINE",
"174 361 LINE",
"251 714 LINE",
"201 714 LINE",
"50 0 LINE",
"100 0 LINE",
"164 310 LINE",
"257 385 LINE",
"424 0 LINE",
"478 0 LINE",
"297 416 LINE"
);
}
);
width = 548;
}
);
note = K;
unicode = 004B;
},
{
glyphname = L;
lastChange = "2018-06-23 23:45:44 +0000";
layers = (
{
anchors = (
{
name = bottom;
position = "{172, 0}";
},
{
name = center;
position = "{249, 357}";
},
{
name = top;
position = "{324, 714}";
},
{
name = topright;
position = "{543, 714}";
}
);
guideLines = (
{
angle = 78;
position = "{700, 1346}";
}
);
layerId = "4082F5B4-16CD-4EE9-8420-2E9C5A704856";
paths = (
{
closed = 1;
nodes = (
"413 47 LINE",
"110 47 LINE",
"251 714 LINE",
"201 714 LINE",
"50 0 LINE",
"402 0 LINE"
);
}
);
width = 458;
}
);
note = L;
unicode = 004C;
},
{
glyphname = M;
lastChange = "2018-06-23 23:45:44 +0000";
layers = (
{
anchors = (
{
name = bottom;
position = "{351, 0}";
},
{
name = top;
position = "{503, 714}";
}
);
guideLines = (
{
angle = 78;
position = "{1006, 1346}";
}
);
layerId = "4082F5B4-16CD-4EE9-8420-2E9C5A704856";
paths = (
{
closed = 1;
nodes = (
"274 714 LINE",
"204 714 LINE",
"53 0 LINE",
"100 0 LINE",
"196 450 LINE SMOOTH",
"215 539 OFFCURVE",
"228 608 OFFCURVE",
"234 658 CURVE",
"237 658 LINE",
"345 0 LINE",
"370 0 LINE",
"751 658 LINE",
"754 658 LINE",
"747 633 OFFCURVE",
"731 560 OFFCURVE",
"705 440 CURVE SMOOTH",
"612 0 LINE",
"661 0 LINE",
"808 714 LINE",
"735 714 LINE",
"377 100 LINE",
"374 100 LINE"
);
}
);
width = 815;
}
);
note = M;
unicode = 004D;
},
{
glyphname = N;
lastChange = "2018-06-23 23:45:44 +0000";
layers = (
{
anchors = (
{
name = bottom;
position = "{278, 0}";
},
{
name = top;
position = "{430, 714}";
}
);
guideLines = (
{
angle = 78;
position = "{857, 1346}";
}
);
layerId = "4082F5B4-16CD-4EE9-8420-2E9C5A704856";
paths = (
{
closed = 1;
nodes = (
"627 714 LINE",
"535 285 LINE SMOOTH",
"519 207 OFFCURVE",
"506 139 OFFCURVE",
"499 82 CURVE",
"495 82 LINE",
"240 714 LINE",
"201 714 LINE",
"50 0 LINE",
"96 0 LINE",
"158 289 OFFCURVE",
"192 453 OFFCURVE",
"201 494 CURVE SMOOTH",
"209 534 OFFCURVE",
"217 579 OFFCURVE",
"224 627 CURVE",
"228 627 LINE",
"480 0 LINE",
"522 0 LINE",
"673 714 LINE"
);
}
);
width = 670;
}
);
note = N;
unicode = 004E;
},
{
glyphname = O;
lastChange = "2018-06-23 23:45:44 +0000";
layers = (
{
anchors = (
{
name = bottom;
position = "{301, 0}";
},
{
name = center;
position = "{377, 357}";
},
{
name = ogonek;
position = "{587, 5}";
},
{
name = top;
position = "{453, 714}";
},
{
name = topleft;
position = "{105, 714}";
},
{
name = topright;
position = "{800, 714}";
}
);
guideLines = (
{
angle = 78;
position = "{902, 1346}";
}
);
layerId = "4082F5B4-16CD-4EE9-8420-2E9C5A704856";
paths = (
{
closed = 1;
nodes = (
"685 624 OFFCURVE",
"597 724 OFFCURVE",
"436 724 CURVE SMOOTH",
"367 724 OFFCURVE",
"307 706 OFFCURVE",
"254 668 CURVE SMOOTH",
"148 593 OFFCURVE",
"84 443 OFFCURVE",
"84 273 CURVE SMOOTH",
"84 90 OFFCURVE",
"175 -10 OFFCURVE",
"338 -10 CURVE SMOOTH",
"405 -10 OFFCURVE",
"465 8 OFFCURVE",
"516 45 CURVE SMOOTH",
"619 117 OFFCURVE",
"685 279 OFFCURVE",
"685 445 CURVE SMOOTH"
);
},
{
closed = 1;
nodes = (
"563 678 OFFCURVE",
"632 596 OFFCURVE",
"632 440 CURVE SMOOTH",
"632 365 OFFCURVE",
"619 295 OFFCURVE",
"593 230 CURVE SMOOTH",
"542 99 OFFCURVE",
"454 35 OFFCURVE",
"344 35 CURVE SMOOTH",
"208 35 OFFCURVE",
"135 120 OFFCURVE",
"135 280 CURVE SMOOTH",
"135 352 OFFCURVE",
"148 419 OFFCURVE",
"174 483 CURVE SMOOTH",
"226 612 OFFCURVE",
"316 678 OFFCURVE",
"429 678 CURVE SMOOTH"
);
}
);
width = 715;
}
);
note = O;
unicode = 004F;
},
{
glyphname = P;
lastChange = "2018-06-23 23:45:44 +0000";
layers = (
{
anchors = (
{
name = bottom;
position = "{223, 0}";
},
{
name = top;
position = "{375, 714}";
}
);
guideLines = (
{
angle = 78;
position = "{743, 1346}";
}
);
layerId = "4082F5B4-16CD-4EE9-8420-2E9C5A704856";
paths = (
{
closed = 1;
nodes = (
"559 652 OFFCURVE",
"486 714 OFFCURVE",
"355 714 CURVE SMOOTH",
"201 714 LINE",
"50 0 LINE",
"100 0 LINE",
"163 294 LINE",
"261 294 LINE SMOOTH",
"460 294 OFFCURVE",
"559 375 OFFCURVE",
"559 538 CURVE SMOOTH"
);
},
{
closed = 1;
nodes = (
"345 669 LINE SMOOTH",
"452 669 OFFCURVE",
"506 625 OFFCURVE",
"506 535 CURVE SMOOTH",
"506 399 OFFCURVE",
"428 339 OFFCURVE",
"264 339 CURVE SMOOTH",
"171 339 LINE",
"242 669 LINE"
);
}
);
width = 559;
}
);
note = P;
unicode = 0050;
},
{
glyphname = Q;
lastChange = "2018-06-23 23:45:44 +0000";
layers = (
{
anchors = (
{
name = bottom;
position = "{301, 0}";
},
{
name = top;
position = "{453, 714}";
}
);
guideLines = (
{
angle = 78;
position = "{902, 1346}";
}
);
layerId = "4082F5B4-16CD-4EE9-8420-2E9C5A704856";
paths = (
{
closed = 1;
nodes = (
"685 624 OFFCURVE",
"597 724 OFFCURVE",
"436 724 CURVE SMOOTH",
"367 724 OFFCURVE",
"307 706 OFFCURVE",
"254 668 CURVE SMOOTH",
"148 593 OFFCURVE",
"84 443 OFFCURVE",
"84 273 CURVE SMOOTH",
"84 90 OFFCURVE",
"175 -10 OFFCURVE",
"338 -10 CURVE",
"374 -8 LINE",
"487 -170 LINE",
"556 -170 LINE",
"426 1 LINE",
"477 16 OFFCURVE",
"522 43 OFFCURVE",
"560 83 CURVE SMOOTH",
"636 162 OFFCURVE",
"685 304 OFFCURVE",
"685 445 CURVE SMOOTH"
);
},
{
closed = 1;
nodes = (
"563 678 OFFCURVE",
"632 596 OFFCURVE",
"632 440 CURVE SMOOTH",
"632 365 OFFCURVE",
"619 295 OFFCURVE",
"593 230 CURVE SMOOTH",
"542 99 OFFCURVE",
"454 35 OFFCURVE",
"344 35 CURVE SMOOTH",
"208 35 OFFCURVE",
"135 120 OFFCURVE",
"135 280 CURVE SMOOTH",
"135 352 OFFCURVE",
"148 419 OFFCURVE",
"174 483 CURVE SMOOTH",
"226 612 OFFCURVE",
"316 678 OFFCURVE",
"429 678 CURVE SMOOTH"
);
}
);
width = 715;
}
);
note = Q;
unicode = 0051;
},
{
glyphname = R;
lastChange = "2018-06-23 23:45:44 +0000";
layers = (
{
anchors = (
{
name = bottom;
position = "{223, 0}";
},
{
name = top;
position = "{375, 714}";
}
);
guideLines = (
{
angle = 78;
position = "{745, 1347}";
}
);
layerId = "4082F5B4-16CD-4EE9-8420-2E9C5A704856";
paths = (
{
closed = 1;
nodes = (
"425 0 LINE",
"479 0 LINE",
"473 18 OFFCURVE",
"437 124 OFFCURVE",
"371 316 CURVE",
"487 336 OFFCURVE",
"559 419 OFFCURVE",
"559 538 CURVE SMOOTH",
"559 655 OFFCURVE",
"489 714 OFFCURVE",
"349 714 CURVE SMOOTH",
"201 714 LINE",
"50 0 LINE",
"100 0 LINE",
"164 309 LINE",
"322 309 LINE"
);
},
{
closed = 1;
nodes = (
"345 669 LINE SMOOTH",
"452 669 OFFCURVE",
"506 625 OFFCURVE",
"506 538 CURVE SMOOTH",
"506 417 OFFCURVE",
"433 354 OFFCURVE",
"298 354 CURVE SMOOTH",
"175 354 LINE",
"242 669 LINE"
);
}
);
width = 559;
}
);
note = R;
unicode = 0052;
},
{
glyphname = S;
lastChange = "2018-06-23 23:45:44 +0000";
layers = (
{
anchors = (
{
name = bottom;
position = "{192, 0}";
},
{
name = top;
position = "{344, 714}";
}
);
guideLines = (
{
angle = 78;
position = "{681, 1346}";
}
);
layerId = "4082F5B4-16CD-4EE9-8420-2E9C5A704856";
paths = (
{
closed = 1;
nodes = (
"437 252 OFFCURVE",
"418 291 OFFCURVE",
"379 324 CURVE SMOOTH",
"360 340 OFFCURVE",
"325 361 OFFCURVE",
"275 387 CURVE SMOOTH",
"188 430 OFFCURVE",
"162 468 OFFCURVE",
"162 535 CURVE SMOOTH",
"162 624 OFFCURVE",
"230 682 OFFCURVE",
"336 682 CURVE SMOOTH",
"387 682 OFFCURVE",
"447 666 OFFCURVE",
"490 640 CURVE",
"506 686 LINE",
"449 714 OFFCURVE",
"400 724 OFFCURVE",
"336 724 CURVE SMOOTH",
"293 724 OFFCURVE",
"255 716 OFFCURVE",
"220 700 CURVE SMOOTH",
"151 668 OFFCURVE",
"111 607 OFFCURVE",
"111 531 CURVE SMOOTH",
"111 454 OFFCURVE",
"145 399 OFFCURVE",
"242 350 CURVE",
"292 323 OFFCURVE",
"328 303 OFFCURVE",
"351 280 CURVE SMOOTH",
"374 257 OFFCURVE",
"385 230 OFFCURVE",
"385 191 CURVE SMOOTH",
"385 96 OFFCURVE",
"311 35 OFFCURVE",
"188 35 CURVE SMOOTH",
"128 35 OFFCURVE",
"71 50 OFFCURVE",
"18 80 CURVE",
"18 27 LINE",
"75 0 OFFCURVE",
"129 -10 OFFCURVE",
"186 -10 CURVE SMOOTH",
"236 -10 OFFCURVE",
"280 -1 OFFCURVE",
"317 15 CURVE SMOOTH",
"392 47 OFFCURVE",
"437 115 OFFCURVE",
"437 197 CURVE SMOOTH"
);
}
);
width = 498;
}
);
note = S;
unicode = 0053;
},
{
glyphname = T;
lastChange = "2018-06-23 23:45:44 +0000";
layers = (
{
anchors = (
{
name = bottom;
position = "{184, 0}";
},
{
name = center;
position = "{260, 357}";
},
{
name = top;
position = "{336, 714}";
}
);
guideLines = (
{
angle = 78;
position = "{665, 1346}";
}
);
layerId = "4082F5B4-16CD-4EE9-8420-2E9C5A704856";
paths = (
{
closed = 1;
nodes = (
"570 668 LINE",
"579 714 LINE",
"104 714 LINE",
"94 668 LINE",
"305 668 LINE",
"164 0 LINE",
"214 0 LINE",
"355 668 LINE"
);
}
);
width = 481;
}
);
note = T;
unicode = 0054;
},
{
glyphname = U;
lastChange = "2018-06-23 23:45:44 +0000";
layers = (
{
anchors = (
{
name = bottom;
position = "{278, 0}";
},
{
name = ogonek;
position = "{545, 5}";
},
{
name = top;
position = "{430, 714}";
},
{
name = topright;
position = "{754, 714}";
}
);
guideLines = (
{
angle = 78;
position = "{856, 1346}";
}
);
layerId = "4082F5B4-16CD-4EE9-8420-2E9C5A704856";
paths = (
{
closed = 1;
nodes = (
"531 237 LINE SMOOTH",
"501 92 OFFCURVE",
"430 34 OFFCURVE",
"303 34 CURVE SMOOTH",
"192 34 OFFCURVE",
"136 84 OFFCURVE",
"136 185 CURVE SMOOTH",
"136 216 OFFCURVE",
"140 246 OFFCURVE",
"146 275 CURVE SMOOTH",
"240 714 LINE",
"190 714 LINE",
"99 284 LINE SMOOTH",
"90 246 OFFCURVE",
"86 213 OFFCURVE",
"86 186 CURVE SMOOTH",
"86 56 OFFCURVE",
"158 -10 OFFCURVE",
"301 -10 CURVE SMOOTH",
"455 -10 OFFCURVE",
"542 61 OFFCURVE",
"580 237 CURVE SMOOTH",
"681 714 LINE",
"632 714 LINE"
);
}
);
width = 669;
}
);
note = U;
unicode = 0055;
},
{
glyphname = V;
lastChange = "2018-06-23 23:45:44 +0000";
layers = (
{
anchors = (
{
name = bottom;
position = "{207, 0}";
},
{
name = top;
position = "{359, 714}";
}
);
guideLines = (
{
angle = 78;
position = "{711, 1346}";
}
);
layerId = "4082F5B4-16CD-4EE9-8420-2E9C5A704856";
paths = (
{
closed = 1;
nodes = (
"218 120 OFFCURVE",
"212 179 OFFCURVE",
"204 250 CURVE SMOOTH",
"147 714 LINE",
"98 714 LINE",
"187 0 LINE",
"230 0 LINE",
"620 714 LINE",
"563 714 LINE",
"284 192 LINE SMOOTH",
"260 148 OFFCURVE",
"240 108 OFFCURVE",
"223 72 CURVE",
"221 72 LINE"
);
}
);
width = 527;
}
);
note = V;
unicode = 0056;
},
{
glyphname = W;
lastChange = "2018-06-23 23:45:44 +0000";
layers = (
{
anchors = (
{
name = bottom;
position = "{359, 0}";
},
{
name = top;
position = "{511, 714}";
}
);
guideLines = (
{
angle = 78;
position = "{993, 1211}";
}
);
layerId = "4082F5B4-16CD-4EE9-8420-2E9C5A704856";
paths = (
{
closed = 1;
nodes = (
"500 632 LINE SMOOTH",
"500 607 OFFCURVE",
"502 571 OFFCURVE",
"506 525 CURVE SMOOTH",
"544 0 LINE",
"582 0 LINE",
"636 119 OFFCURVE",
"690 238 OFFCURVE",
"743 357 CURVE SMOOTH",
"795 476 OFFCURVE",
"849 595 OFFCURVE",
"904 714 CURVE",
"851 714 LINE",
"701 373 OFFCURVE",
"621 189 OFFCURVE",
"610 165 CURVE SMOOTH",
"600 140 OFFCURVE",
"590 113 OFFCURVE",
"580 85 CURVE",
"577 85 LINE",
"577 132 OFFCURVE",
"574 199 OFFCURVE",
"568 285 CURVE SMOOTH",
"538 714 LINE",
"487 714 LINE",
"275 282 LINE SMOOTH",
"247 226 OFFCURVE",
"220 162 OFFCURVE",
"192 88 CURVE",
"189 88 LINE",
"190 130 LINE",
"188 210 LINE",
"165 714 LINE",
"116 714 LINE",
"152 0 LINE",
"192 0 LINE",
"364 361 OFFCURVE",
"456 555 OFFCURVE",
"467 580 CURVE SMOOTH",
"478 605 OFFCURVE",
"488 630 OFFCURVE",
"497 655 CURVE",
"501 655 LINE"
);
}
);
width = 831;
}
);
note = W;
unicode = 0057;
},
{
glyphname = X;
lastChange = "2018-06-23 23:45:44 +0000";
layers = (
{
anchors = (
{
name = bottom;
position = "{181, 0}";
},
{
name = top;
position = "{333, 714}";
}
);
guideLines = (
{
angle = 78;
position = "{657, 1346}";
}
);
layerId = "4082F5B4-16CD-4EE9-8420-2E9C5A704856";
paths = (
{
closed = 1;
nodes = (
"561 714 LINE",
"503 714 LINE",
"267 408 LINE",
"150 714 LINE",
"98 714 LINE",
"231 374 LINE",
"-66 0 LINE",
"-4 0 LINE",
"253 331 LINE",
"377 0 LINE",
"429 0 LINE",
"290 363 LINE"
);
}
);
width = 474;
}
);
note = X;
unicode = 0058;
},
{
glyphname = Y;
lastChange = "2018-06-23 23:45:44 +0000";
layers = (
{
anchors = (
{
name = bottom;
position = "{179, 0}";
},
{
name = top;
position = "{331, 714}";
},
{
name = topleft;
position = "{105, 714}";
}
);
guideLines = (
{
angle = 78;
position = "{653, 1346}";
}
);
layerId = "4082F5B4-16CD-4EE9-8420-2E9C5A704856";
paths = (
{
closed = 1;
nodes = (
"94 714 LINE",
"210 266 LINE",
"152 0 LINE",
"203 0 LINE",
"256 259 LINE",
"564 714 LINE",
"507 714 LINE",
"241 315 LINE",
"143 714 LINE"
);
}
);
width = 471;
}
);
note = Y;
unicode = 0059;
},
{
glyphname = Z;
lastChange = "2018-06-23 23:45:44 +0000";
layers = (
{
anchors = (
{
name = bottom;
position = "{219, 0}";
},
{
name = top;
position = "{371, 714}";
}
);
guideLines = (
{
angle = 78;
position = "{735, 1346}";
}
);
layerId = "4082F5B4-16CD-4EE9-8420-2E9C5A704856";
paths = (
{
closed = 1;
nodes = (
"67 46 LINE",
"589 671 LINE",
"598 714 LINE",
"165 714 LINE",
"154 668 LINE",
"527 668 LINE",
"5 45 LINE",
"-6 0 LINE",
"446 0 LINE",
"457 46 LINE"
);
}
);
width = 551;
}
);
note = Z;
unicode = 005A;
},
{
glyphname = bracketleft;
lastChange = "2018-06-23 23:45:44 +0000";
layers = (
{
layerId = "4082F5B4-16CD-4EE9-8420-2E9C5A704856";
paths = (
{
closed = 1;
nodes = (
"29 -114 LINE",
"195 670 LINE",
"356 670 LINE",
"365 714 LINE",
"156 714 LINE",
"-28 -158 LINE",
"180 -158 LINE",
"190 -114 LINE"
);
}
);
width = 262;
}
);
note = bracketleft;
unicode = 005B;
},
{
glyphname = backslash;
lastChange = "2018-06-23 23:45:44 +0000";
layers = (
{
layerId = "4082F5B4-16CD-4EE9-8420-2E9C5A704856";
paths = (
{
closed = 1;
nodes = (
"222 0 LINE",
"262 0 LINE",
"144 714 LINE",
"102 714 LINE"
);
}
);
width = 313;
}
);
note = backslash;
unicode = 005C;
},
{
glyphname = bracketright;
lastChange = "2018-06-23 23:45:44 +0000";
layers = (
{
layerId = "4082F5B4-16CD-4EE9-8420-2E9C5A704856";
paths = (
{
closed = 1;
nodes = (
"250 670 LINE",
"84 -114 LINE",
"-77 -114 LINE",
"-86 -158 LINE",
"123 -158 LINE",
"307 714 LINE",
"99 714 LINE",
"89 670 LINE"
);
}
);
width = 262;
}
);
note = bracketright;
unicode = 005D;
},
{
glyphname = asciicircum;
lastChange = "2018-06-23 23:45:44 +0000";
layers = (
{
layerId = "4082F5B4-16CD-4EE9-8420-2E9C5A704856";
paths = (
{
closed = 1;
nodes = (
"335 673 LINE",
"441 278 LINE",
"492 278 LINE",
"365 720 LINE",
"321 720 LINE",
"34 278 LINE",
"91 278 LINE"
);
}
);
width = 511;
}
);
note = asciicircum;
unicode = 005E;
},
{
glyphname = underscore;
lastChange = "2018-06-23 23:45:44 +0000";
layers = (
{
layerId = "4082F5B4-16CD-4EE9-8420-2E9C5A704856";
paths = (
{
closed = 1;
nodes = (
"-80 -100 LINE",
"-89 -142 LINE",
"305 -142 LINE",
"314 -100 LINE"
);
}
);
width = 391;
}
);
note = underscore;
unicode = 005F;
},
{
glyphname = grave;
lastChange = "2018-06-23 23:45:44 +0000";
layers = (
{
layerId = "4082F5B4-16CD-4EE9-8420-2E9C5A704856";
paths = (
{
closed = 1;
nodes = (
"335 675 OFFCURVE",
"309 724 OFFCURVE",
"294 766 CURVE",
"238 766 LINE",
"238 756 LINE",
"261 710 OFFCURVE",
"309 640 OFFCURVE",
"342 606 CURVE",
"374 606 LINE",
"374 618 LINE"
);
}
);
width = 554;
}
);
note = grave;
unicode = 0060;
},
{
glyphname = a;
lastChange = "2018-06-23 23:45:44 +0000";
layers = (
{
anchors = (
{
name = bottom;
position = "{220, 0}";
},
{
name = ogonek;
position = "{441, 5}";
},
{
name = top;
position = "{333, 531}";
}
);
guideLines = (
{
angle = 78;
position = "{652, 936}";
}
);
layerId = "4082F5B4-16CD-4EE9-8420-2E9C5A704856";
paths = (
{
closed = 1;
nodes = (
"271 539 OFFCURVE",
"225 523 OFFCURVE",
"185 492 CURVE SMOOTH",
"103 428 OFFCURVE",
"50 301 OFFCURVE",
"50 173 CURVE SMOOTH",
"50 51 OFFCURVE",
"96 -10 OFFCURVE",
"187 -10 CURVE SMOOTH",
"274 -10 OFFCURVE",
"339 42 OFFCURVE",
"394 134 CURVE",
"397 134 LINE",
"375 0 LINE",
"415 0 LINE",
"527 531 LINE",
"488 531 LINE",
"459 432 LINE",
"456 432 LINE",
"441 503 OFFCURVE",
"396 539 OFFCURVE",
"320 539 CURVE SMOOTH"
);
},
{
closed = 1;
nodes = (
"132 34 OFFCURVE",
"100 79 OFFCURVE",
"100 178 CURVE SMOOTH",
"100 231 OFFCURVE",
"110 284 OFFCURVE",
"131 337 CURVE SMOOTH",
"173 444 OFFCURVE",
"240 497 OFFCURVE",
"321 497 CURVE SMOOTH",
"346 497 OFFCURVE",
"366 491 OFFCURVE",
"383 479 CURVE SMOOTH",
"416 456 OFFCURVE",
"433 413 OFFCURVE",
"433 362 CURVE SMOOTH",
"433 305 OFFCURVE",
"409 213 OFFCURVE",
"363 146 CURVE SMOOTH",
"317 78 OFFCURVE",
"256 34 OFFCURVE",
"198 34 CURVE SMOOTH"
);
}
);
width = 553;
}
);
note = a;
unicode = 0061;
},
{
glyphname = b;
lastChange = "2018-06-23 23:45:44 +0000";
layers = (
{
anchors = (
{
name = bottom;
position = "{225, 0}";
},
{
name = top;
position = "{338, 531}";
}
);
guideLines = (
{
angle = 78;
position = "{805, 936}";
}
);
layerId = "4082F5B4-16CD-4EE9-8420-2E9C5A704856";
paths = (
{
closed = 1;
nodes = (
"293 -8 OFFCURVE",
"338 8 OFFCURVE",
"379 39 CURVE SMOOTH",
"460 102 OFFCURVE",
"514 226 OFFCURVE",
"514 358 CURVE SMOOTH",
"514 480 OFFCURVE",
"468 541 OFFCURVE",
"377 541 CURVE SMOOTH",
"295 541 OFFCURVE",
"228 495 OFFCURVE",
"167 393 CURVE",
"164 393 LINE",
"174 433 OFFCURVE",
"201 555 OFFCURVE",
"243 760 CURVE",
"197 760 LINE",
"37 0 LINE",
"76 0 LINE",
"103 102 LINE",
"106 102 LINE",
"122 32 OFFCURVE",
"170 -8 OFFCURVE",
"244 -8 CURVE SMOOTH"
);
},
{
closed = 1;
nodes = (
"433 497 OFFCURVE",
"464 452 OFFCURVE",
"464 353 CURVE SMOOTH",
"464 300 OFFCURVE",
"454 247 OFFCURVE",
"433 194 CURVE SMOOTH",
"391 89 OFFCURVE",
"324 34 OFFCURVE",
"243 34 CURVE SMOOTH",
"177 34 OFFCURVE",
"131 85 OFFCURVE",
"131 169 CURVE SMOOTH",
"131 220 OFFCURVE",
"153 314 OFFCURVE",
"200 384 CURVE SMOOTH",
"247 455 OFFCURVE",
"307 497 OFFCURVE",
"366 497 CURVE SMOOTH"
);
}
);
width = 562;
}
);
note = b;
unicode = 0062;
},
{
glyphname = c;
lastChange = "2018-06-23 23:45:44 +0000";
layers = (
{
anchors = (
{
name = bottom;
position = "{192, 0}";
},
{
name = top;
position = "{305, 531}";
}
);
guideLines = (
{
angle = 78;
position = "{591, 930}";
}
);
layerId = "4082F5B4-16CD-4EE9-8420-2E9C5A704856";
paths = (
{
closed = 1;
nodes = (
"284 -10 OFFCURVE",
"329 0 OFFCURVE",
"366 18 CURVE",
"366 63 LINE",
"320 42 OFFCURVE",
"284 34 OFFCURVE",
"238 34 CURVE SMOOTH",
"150 34 OFFCURVE",
"100 92 OFFCURVE",
"100 195 CURVE SMOOTH",
"100 252 OFFCURVE",
"110 304 OFFCURVE",
"129 351 CURVE SMOOTH",
"167 445 OFFCURVE",
"238 497 OFFCURVE",
"322 497 CURVE SMOOTH",
"358 497 OFFCURVE",
"394 489 OFFCURVE",
"428 474 CURVE",
"442 518 LINE",
"407 532 OFFCURVE",
"368 539 OFFCURVE",
"324 539 CURVE SMOOTH",
"271 539 OFFCURVE",
"223 525 OFFCURVE",
"183 496 CURVE SMOOTH",
"101 438 OFFCURVE",
"50 319 OFFCURVE",
"50 194 CURVE SMOOTH",
"50 66 OFFCURVE",
"120 -10 OFFCURVE",
"233 -10 CURVE SMOOTH"
);
}
);
width = 433;
}
);
note = c;
unicode = 0063;
},
{
glyphname = d;
lastChange = "2018-06-23 23:45:44 +0000";
layers = (
{
anchors = (
{
name = bottom;
position = "{220, 0}";
},
{
name = center;
position = "{277, 266}";
},
{
name = top;
position = "{333, 531}";
},
{
name = topright;
position = "{600, 531}";
}
);
guideLines = (
{
angle = 78;
position = "{604, 864}";
}
);
layerId = "4082F5B4-16CD-4EE9-8420-2E9C5A704856";
paths = (
{
closed = 1;
nodes = (
"269 539 OFFCURVE",
"222 522 OFFCURVE",
"181 490 CURVE SMOOTH",
"99 423 OFFCURVE",
"50 298 OFFCURVE",
"50 173 CURVE SMOOTH",
"50 51 OFFCURVE",
"96 -10 OFFCURVE",
"187 -10 CURVE SMOOTH",
"269 -10 OFFCURVE",
"338 38 OFFCURVE",
"394 134 CURVE",
"397 134 LINE",
"375 0 LINE",
"415 0 LINE",
"576 760 LINE",
"528 760 LINE",
"485 563 OFFCURVE",
"462 454 OFFCURVE",
"458 432 CURVE",
"456 432 LINE",
"440 503 OFFCURVE",
"395 539 OFFCURVE",
"320 539 CURVE SMOOTH"
);
},
{
closed = 1;
nodes = (
"133 34 OFFCURVE",
"100 82 OFFCURVE",
"100 178 CURVE SMOOTH",
"100 233 OFFCURVE",
"110 286 OFFCURVE",
"131 338 CURVE SMOOTH",
"173 442 OFFCURVE",
"240 497 OFFCURVE",
"321 497 CURVE SMOOTH",
"391 497 OFFCURVE",
"433 444 OFFCURVE",
"433 362 CURVE SMOOTH",
"433 307 OFFCURVE",
"410 215 OFFCURVE",
"364 147 CURVE SMOOTH",
"318 78 OFFCURVE",
"256 34 OFFCURVE",
"198 34 CURVE SMOOTH"
);
}
);
width = 553;
}
);
note = d;
unicode = 0064;
},
{
glyphname = e;
lastChange = "2018-06-23 23:45:44 +0000";
layers = (
{
anchors = (
{
name = bottom;
position = "{170, 0}";
},
{
name = ogonek;
position = "{351, 5}";
},
{
name = top;
position = "{283, 531}";
}
);
guideLines = (
{
angle = 78;
position = "{592, 862}";
}
);
layerId = "4082F5B4-16CD-4EE9-8420-2E9C5A704856";
paths = (
{
closed = 1;
nodes = (
"281 -10 OFFCURVE",
"330 1 OFFCURVE",
"375 24 CURVE",
"375 70 LINE",
"328 46 OFFCURVE",
"283 34 OFFCURVE",
"240 34 CURVE SMOOTH",
"150 34 OFFCURVE",
"100 92 OFFCURVE",
"100 199 CURVE SMOOTH",
"100 217 OFFCURVE",
"101 233 OFFCURVE",
"103 247 CURVE",
"119 247 LINE SMOOTH",
"329 247 OFFCURVE",
"436 311 OFFCURVE",
"436 428 CURVE SMOOTH",
"436 497 OFFCURVE",
"388 539 OFFCURVE",
"314 539 CURVE SMOOTH",
"265 539 OFFCURVE",
"221 523 OFFCURVE",
"180 491 CURVE SMOOTH",
"99 427 OFFCURVE",
"50 311 OFFCURVE",
"50 193 CURVE SMOOTH",
"50 65 OFFCURVE",
"116 -10 OFFCURVE",
"229 -10 CURVE SMOOTH"
);
},
{
closed = 1;
nodes = (
"355 497 OFFCURVE",
"386 465 OFFCURVE",
"386 422 CURVE SMOOTH",
"386 334 OFFCURVE",
"302 290 OFFCURVE",
"134 290 CURVE SMOOTH",
"110 290 LINE",
"143 416 OFFCURVE",
"223 497 OFFCURVE",
"308 497 CURVE SMOOTH"
);
}
);
width = 453;
}
);
note = e;
unicode = 0065;
},
{
glyphname = f;
lastChange = "2018-06-23 23:45:44 +0000";
layers = (
{
anchors = (
{
name = bottom;
position = "{84, 0}";
},
{
name = top;
position = "{198, 531}";
}
);
guideLines = (
{
angle = 258.0434;
position = "{261, 416}";
},
{
angle = 78;
position = "{683, 1416}";
}
);
layerId = "4082F5B4-16CD-4EE9-8420-2E9C5A704856";
paths = (
{
closed = 1;
nodes = (
"17 -240 OFFCURVE",
"61 -195 OFFCURVE",
"82 -90 CURVE SMOOTH",
"205 491 LINE",
"326 491 LINE",
"334 531 LINE",
"213 531 LINE",
"230 611 LINE SMOOTH",
"248 692 OFFCURVE",
"284 724 OFFCURVE",
"346 724 CURVE SMOOTH",
"366 724 OFFCURVE",
"390 720 OFFCURVE",
"418 711 CURVE",
"430 750 LINE",
"400 760 OFFCURVE",
"373 765 OFFCURVE",
"349 765 CURVE SMOOTH",
"254 765 OFFCURVE",
"204 718 OFFCURVE",
"181 609 CURVE SMOOTH",
"164 531 LINE",
"64 524 LINE",
"57 491 LINE",
"157 491 LINE",
"37 -78 LINE SMOOTH",
"18 -165 OFFCURVE",
"-8 -195 OFFCURVE",
"-65 -195 CURVE SMOOTH",
"-80 -195 OFFCURVE",
"-97 -192 OFFCURVE",
"-114 -187 CURVE",
"-114 -231 LINE",
"-96 -237 OFFCURVE",
"-80 -240 OFFCURVE",
"-64 -240 CURVE SMOOTH"
);
}
);
width = 282;
}
);
note = f;
unicode = 0066;
},
{
glyphname = g;
lastChange = "2018-06-23 23:45:44 +0000";
layers = (
{
anchors = (
{
name = bottom;
position = "{197, 0}";
},
{
name = top;
position = "{311, 531}";
}
);
guideLines = (
{
angle = 78;
position = "{691, 1346}";
}
);
layerId = "4082F5B4-16CD-4EE9-8420-2E9C5A704856";
paths = (
{
closed = 1;
nodes = (
"335 538 OFFCURVE",
"312 541 OFFCURVE",
"289 541 CURVE SMOOTH",
"252 541 OFFCURVE",
"219 532 OFFCURVE",
"188 515 CURVE SMOOTH",
"127 480 OFFCURVE",
"90 417 OFFCURVE",
"90 344 CURVE SMOOTH",
"90 287 OFFCURVE",
"117 239 OFFCURVE",
"163 216 CURVE",
"101 190 OFFCURVE",
"70 157 OFFCURVE",
"70 117 CURVE SMOOTH",
"70 91 OFFCURVE",
"83 71 OFFCURVE",
"108 57 CURVE",
"7 25 OFFCURVE",
"-43 -29 OFFCURVE",
"-43 -106 CURVE SMOOTH",
"-43 -191 OFFCURVE",
"30 -240 OFFCURVE",
"151 -240 CURVE SMOOTH",
"206 -240 OFFCURVE",
"253 -233 OFFCURVE",
"293 -218 CURVE SMOOTH",
"373 -188 OFFCURVE",
"416 -130 OFFCURVE",
"416 -57 CURVE SMOOTH",
"416 19 OFFCURVE",
"360 62 OFFCURVE",
"247 72 CURVE SMOOTH",
"188 77 LINE SMOOTH",
"135 83 OFFCURVE",
"117 97 OFFCURVE",
"117 124 CURVE SMOOTH",
"117 151 OFFCURVE",
"147 178 OFFCURVE",
"199 199 CURVE",
"204 196 OFFCURVE",
"216 195 OFFCURVE",
"237 195 CURVE SMOOTH",
"276 195 OFFCURVE",
"311 203 OFFCURVE",
"341 218 CURVE SMOOTH",
"402 250 OFFCURVE",
"440 319 OFFCURVE",
"440 390 CURVE SMOOTH",
"440 428 OFFCURVE",
"427 469 OFFCURVE",
"410 487 CURVE",
"529 492 LINE",
"537 531 LINE",
"361 531 LINE"
);
},
{
closed = 1;
nodes = (
"7 -37 OFFCURVE",
"49 8 OFFCURVE",
"151 37 CURVE",
"229 30 LINE SMOOTH",
"331 22 OFFCURVE",
"366 -7 OFFCURVE",
"366 -62 CURVE SMOOTH",
"366 -146 OFFCURVE",
"288 -198 OFFCURVE",
"156 -198 CURVE SMOOTH",
"63 -198 OFFCURVE",
"7 -167 OFFCURVE",
"7 -101 CURVE SMOOTH"
);
},
{
closed = 1;
nodes = (
"139 373 OFFCURVE",
"145 397 OFFCURVE",
"157 421 CURVE SMOOTH",
"181 469 OFFCURVE",
"227 499 OFFCURVE",
"287 499 CURVE SMOOTH",
"353 499 OFFCURVE",
"391 460 OFFCURVE",
"391 392 CURVE SMOOTH",
"391 362 OFFCURVE",
"385 334 OFFCURVE",
"374 310 CURVE SMOOTH",
"350 259 OFFCURVE",
"305 236 OFFCURVE",
"248 236 CURVE SMOOTH",
"179 236 OFFCURVE",
"139 274 OFFCURVE",
"139 347 CURVE SMOOTH"
);
}
);
width = 508;
}
);
note = g;
unicode = 0067;
},
{
glyphname = h;
lastChange = "2018-06-23 23:45:44 +0000";
layers = (
{
anchors = (
{
name = bottom;
position = "{223, 0}";
},
{
name = center;
position = "{279, 266}";
},
{
name = top;
position = "{336, 531}";
}
);
guideLines = (
{
angle = 78;
position = "{808, 948}";
}
);
layerId = "4082F5B4-16CD-4EE9-8420-2E9C5A704856";
paths = (
{
closed = 1;
nodes = (
"493 329 LINE SMOOTH",
"501 366 OFFCURVE",
"505 395 OFFCURVE",
"505 418 CURVE SMOOTH",
"505 495 OFFCURVE",
"458 539 OFFCURVE",
"378 539 CURVE SMOOTH",
"299 539 OFFCURVE",
"226 497 OFFCURVE",
"175 423 CURVE",
"172 423 LINE",
"179 449 OFFCURVE",
"190 494 OFFCURVE",
"204 559 CURVE SMOOTH",
"246 760 LINE",
"199 760 LINE",
"37 0 LINE",
"85 0 LINE",
"135 233 LINE SMOOTH",
"146 287 OFFCURVE",
"164 333 OFFCURVE",
"186 373 CURVE SMOOTH",
"229 451 OFFCURVE",
"296 497 OFFCURVE",
"369 497 CURVE SMOOTH",
"428 497 OFFCURVE",
"456 466 OFFCURVE",
"456 414 CURVE SMOOTH",
"456 393 OFFCURVE",
"453 368 OFFCURVE",
"446 338 CURVE SMOOTH",
"373 0 LINE",
"421 0 LINE"
);
}
);
width = 558;
}
);
note = h;
unicode = 0068;
},
{
glyphname = i;
lastChange = "2018-06-23 23:45:44 +0000";
layers = (
{
anchors = (
{
name = bottom;
position = "{60, 0}";
}
);
guideLines = (
{
angle = 78;
position = "{409, 1346}";
}
);
layerId = "4082F5B4-16CD-4EE9-8420-2E9C5A704856";
paths = (
{
closed = 1;
nodes = (
"150 531 LINE",
"37 0 LINE",
"85 0 LINE",
"197 531 LINE"
);
},
{
closed = 1;
nodes = (
"171 644 OFFCURVE",
"181 631 OFFCURVE",
"200 631 CURVE SMOOTH",
"223 631 OFFCURVE",
"239 654 OFFCURVE",
"239 691 CURVE SMOOTH",
"239 714 OFFCURVE",
"229 726 OFFCURVE",
"211 726 CURVE SMOOTH",
"186 726 OFFCURVE",
"171 703 OFFCURVE",
"171 667 CURVE SMOOTH"
);
}
);
width = 232;
}
);
note = i;
unicode = 0069;
},
{
glyphname = j;
lastChange = "2018-06-23 23:45:44 +0000";
layers = (
{
guideLines = (
{
angle = 258.0932;
position = "{263, 452}";
},
{
angle = 78;
position = "{402, 1346}";
}
);
layerId = "4082F5B4-16CD-4EE9-8420-2E9C5A704856";
paths = (
{
closed = 1;
nodes = (
"-5 -240 OFFCURVE",
"40 -197 OFFCURVE",
"63 -90 CURVE SMOOTH",
"194 531 LINE",
"147 531 LINE",
"17 -85 LINE SMOOTH",
"0 -167 OFFCURVE",
"-28 -197 OFFCURVE",
"-81 -197 CURVE SMOOTH",
"-103 -197 OFFCURVE",
"-121 -193 OFFCURVE",
"-136 -186 CURVE",
"-136 -231 LINE",
"-120 -237 OFFCURVE",
"-101 -240 OFFCURVE",
"-81 -240 CURVE SMOOTH"
);
},
{
closed = 1;
nodes = (
"171 644 OFFCURVE",
"181 631 OFFCURVE",
"200 631 CURVE SMOOTH",
"223 631 OFFCURVE",
"239 654 OFFCURVE",
"239 691 CURVE SMOOTH",
"239 714 OFFCURVE",
"229 726 OFFCURVE",
"211 726 CURVE SMOOTH",
"186 726 OFFCURVE",
"171 703 OFFCURVE",
"171 667 CURVE SMOOTH"
);
}
);
width = 232;
}
);
note = j;
unicode = 006A;
},
{
glyphname = k;
lastChange = "2018-06-23 23:45:44 +0000";
layers = (
{
anchors = (
{
name = bottom;
position = "{174, 0}";
},
{
name = top;
position = "{334, 531}";
}
);
guideLines = (
{
angle = 78;
position = "{607, 978}";
},
{
angle = 78;
position = "{661, 978}";
}
);
layerId = "4082F5B4-16CD-4EE9-8420-2E9C5A704856";
paths = (
{
closed = 1;
nodes = (
"164 379 LINE",
"245 760 LINE",
"198 760 LINE",
"37 0 LINE",
"84 0 LINE",
"123 181 LINE",
"223 273 LINE",
"352 0 LINE",
"404 0 LINE",
"259 302 LINE",
"490 531 LINE",
"429 531 LINE",
"132 233 LINE",
"130 233 LINE"
);
}
);
width = 461;
}
);
note = k;
unicode = 006B;
},
{
glyphname = l;
lastChange = "2018-06-23 23:45:44 +0000";
layers = (
{
anchors = (
{
name = bottom;
position = "{60, 0}";
},
{
name = center;
position = "{116, 266}";
},
{
name = top;
position = "{351, 531}";
},
{
name = topright;
position = "{279, 531}";
}
);
guideLines = (
{
angle = 78;
position = "{387, 1242}";
}
);
layerId = "4082F5B4-16CD-4EE9-8420-2E9C5A704856";
paths = (
{
closed = 1;
nodes = (
"200 760 LINE",
"37 0 LINE",
"83 0 LINE",
"246 760 LINE"
);
}
);
width = 232;
}
);
note = l;
unicode = 006C;
},
{
glyphname = m;
lastChange = "2018-06-23 23:45:44 +0000";
layers = (
{
anchors = (
{
name = bottom;
position = "{371, 0}";
},
{
name = top;
position = "{484, 531}";
}
);
guideLines = (
{
angle = 78;
position = "{975, 870}";
}
);
layerId = "4082F5B4-16CD-4EE9-8420-2E9C5A704856";
paths = (
{
closed = 1;
nodes = (
"450 253 LINE SMOOTH",
"481 399 OFFCURVE",
"566 497 OFFCURVE",
"668 497 CURVE SMOOTH",
"717 497 OFFCURVE",
"747 468 OFFCURVE",
"747 418 CURVE SMOOTH",
"747 400 OFFCURVE",
"743 371 OFFCURVE",
"735 332 CURVE SMOOTH",
"662 0 LINE",
"711 0 LINE",
"785 337 LINE",
"791 367 OFFCURVE",
"794 386 OFFCURVE",
"795 396 CURVE",
"795 404 OFFCURVE",
"796 414 OFFCURVE",
"796 423 CURVE SMOOTH",
"796 498 OFFCURVE",
"751 539 OFFCURVE",
"675 539 CURVE SMOOTH",
"598 539 OFFCURVE",
"528 495 OFFCURVE",
"478 411 CURVE",
"475 411 LINE",
"473 495 OFFCURVE",
"435 539 OFFCURVE",
"366 539 CURVE SMOOTH",
"294 539 OFFCURVE",
"226 502 OFFCURVE",
"174 428 CURVE",
"171 428 LINE",
"187 531 LINE",
"148 531 LINE",
"35 0 LINE",
"83 0 LINE",
"132 232 LINE SMOOTH",
"143 286 OFFCURVE",
"160 333 OFFCURVE",
"181 372 CURVE SMOOTH",
"223 451 OFFCURVE",
"287 497 OFFCURVE",
"356 497 CURVE SMOOTH",
"406 497 OFFCURVE",
"431 467 OFFCURVE",
"431 408 CURVE SMOOTH",
"431 396 OFFCURVE",
"427 370 OFFCURVE",
"419 329 CURVE SMOOTH",
"347 0 LINE",
"397 0 LINE"
);
}
);
width = 855;
}
);
note = m;
unicode = 006D;
},
{
glyphname = n;
lastChange = "2018-06-23 23:45:44 +0000";
layers = (
{
anchors = (
{
name = bottom;
position = "{223, 0}";
},
{
name = top;
position = "{336, 531}";
}
);
guideLines = (
{
angle = 78;
position = "{640, 866}";
}
);
layerId = "4082F5B4-16CD-4EE9-8420-2E9C5A704856";
paths = (
{
closed = 1;
nodes = (
"493 329 LINE SMOOTH",
"501 366 OFFCURVE",
"505 395 OFFCURVE",
"505 418 CURVE SMOOTH",
"505 496 OFFCURVE",
"462 539 OFFCURVE",
"378 539 CURVE SMOOTH",
"296 539 OFFCURVE",
"228 500 OFFCURVE",
"175 423 CURVE",
"172 423 LINE",
"190 531 LINE",
"150 531 LINE",
"37 0 LINE",
"85 0 LINE",
"135 233 LINE SMOOTH",
"146 287 OFFCURVE",
"164 333 OFFCURVE",
"186 373 CURVE SMOOTH",
"229 451 OFFCURVE",
"296 497 OFFCURVE",
"369 497 CURVE SMOOTH",
"428 497 OFFCURVE",
"456 466 OFFCURVE",
"456 414 CURVE SMOOTH",
"456 393 OFFCURVE",
"453 368 OFFCURVE",
"446 338 CURVE SMOOTH",
"373 0 LINE",
"421 0 LINE"
);
}
);
width = 558;
}
);
note = n;
unicode = 006E;
},
{
glyphname = o;
lastChange = "2018-06-23 23:45:44 +0000";
layers = (
{
anchors = (
{
name = bottom;
position = "{218, 0}";
},
{
name = center;
position = "{274, 266}";
},
{
name = ogonek;
position = "{438, 5}";
},
{
name = top;
position = "{331, 531}";
},
{
name = topright;
position = "{596, 531}";
}
);
guideLines = (
{
angle = 78;
position = "{648, 936}";
}
);
layerId = "4082F5B4-16CD-4EE9-8420-2E9C5A704856";
paths = (
{
closed = 1;
nodes = (
"266 541 OFFCURVE",
"220 526 OFFCURVE",
"180 497 CURVE SMOOTH",
"99 438 OFFCURVE",
"48 321 OFFCURVE",
"48 197 CURVE SMOOTH",
"48 64 OFFCURVE",
"111 -10 OFFCURVE",
"231 -10 CURVE SMOOTH",
"284 -10 OFFCURVE",
"330 5 OFFCURVE",
"371 34 CURVE SMOOTH",
"451 93 OFFCURVE",
"501 213 OFFCURVE",
"501 342 CURVE SMOOTH",
"501 466 OFFCURVE",
"434 541 OFFCURVE",
"317 541 CURVE SMOOTH"
);
},
{
closed = 1;
nodes = (
"402 499 OFFCURVE",
"451 443 OFFCURVE",
"451 343 CURVE SMOOTH",
"451 284 OFFCURVE",
"442 230 OFFCURVE",
"423 182 CURVE SMOOTH",
"385 83 OFFCURVE",
"318 32 OFFCURVE",
"236 32 CURVE SMOOTH",
"144 32 OFFCURVE",
"98 88 OFFCURVE",
"98 199 CURVE SMOOTH",
"98 252 OFFCURVE",
"108 303 OFFCURVE",
"127 351 CURVE SMOOTH",
"166 446 OFFCURVE",
"232 499 OFFCURVE",
"313 499 CURVE SMOOTH"
);
}
);
width = 549;
}
);
note = o;
unicode = 006F;
},
{
glyphname = p;
lastChange = "2018-06-23 23:45:44 +0000";
layers = (
{
anchors = (
{
name = bottom;
position = "{224, 0}";
},
{
name = top;
position = "{337, 531}";
}
);
guideLines = (
{
angle = 77.987;
position = "{669, 298}";
},
{
angle = 78;
position = "{736, 946}";
}
);
layerId = "4082F5B4-16CD-4EE9-8420-2E9C5A704856";
paths = (
{
closed = 1;
nodes = (
"294 -8 OFFCURVE",
"341 9 OFFCURVE",
"382 42 CURVE SMOOTH",
"463 107 OFFCURVE",
"513 231 OFFCURVE",
"513 358 CURVE SMOOTH",
"513 481 OFFCURVE",
"464 541 OFFCURVE",
"376 541 CURVE SMOOTH",
"295 541 OFFCURVE",
"228 497 OFFCURVE",
"169 397 CURVE",
"166 397 LINE",
"188 531 LINE",
"148 531 LINE",
"-16 -240 LINE",
"32 -240 LINE",
"77 -38 OFFCURVE",
"101 76 OFFCURVE",
"105 99 CURVE",
"107 99 LINE",
"123 28 OFFCURVE",
"168 -8 OFFCURVE",
"243 -8 CURVE SMOOTH"
);
},
{
closed = 1;
nodes = (
"430 497 OFFCURVE",
"463 449 OFFCURVE",
"463 353 CURVE SMOOTH",
"463 299 OFFCURVE",
"453 246 OFFCURVE",
"432 194 CURVE SMOOTH",
"391 90 OFFCURVE",
"323 34 OFFCURVE",
"242 34 CURVE SMOOTH",
"172 34 OFFCURVE",
"130 87 OFFCURVE",
"130 169 CURVE SMOOTH",
"130 221 OFFCURVE",
"153 316 OFFCURVE",
"202 387 CURVE SMOOTH",
"250 458 OFFCURVE",
"309 497 OFFCURVE",
"365 497 CURVE SMOOTH"
);
}
);
width = 561;
}
);
note = p;
unicode = 0070;
},
{
glyphname = q;
lastChange = "2018-06-23 23:45:44 +0000";
layers = (
{
anchors = (
{
name = bottom;
position = "{226, 0}";
},
{
name = top;
position = "{339, 531}";
}
);
guideLines = (
{
angle = 77.9871;
position = "{378, 298}";
},
{
angle = 78;
position = "{615, 936}";
}
);
layerId = "4082F5B4-16CD-4EE9-8420-2E9C5A704856";
paths = (
{
closed = 1;
nodes = (
"269 539 OFFCURVE",
"223 523 OFFCURVE",
"183 492 CURVE SMOOTH",
"101 429 OFFCURVE",
"48 304 OFFCURVE",
"48 173 CURVE SMOOTH",
"48 51 OFFCURVE",
"94 -10 OFFCURVE",
"185 -10 CURVE SMOOTH",
"267 -10 OFFCURVE",
"334 37 OFFCURVE",
"395 138 CURVE",
"398 138 LINE",
"367 0 LINE",
"319 -229 LINE",
"365 -229 LINE",
"525 531 LINE",
"486 531 LINE",
"459 429 LINE",
"456 429 LINE",
"440 500 OFFCURVE",
"389 539 OFFCURVE",
"318 539 CURVE SMOOTH"
);
},
{
closed = 1;
nodes = (
"125 34 OFFCURVE",
"98 85 OFFCURVE",
"98 178 CURVE SMOOTH",
"98 231 OFFCURVE",
"108 284 OFFCURVE",
"129 337 CURVE SMOOTH",
"171 442 OFFCURVE",
"238 497 OFFCURVE",
"319 497 CURVE SMOOTH",
"386 497 OFFCURVE",
"431 446 OFFCURVE",
"431 362 CURVE SMOOTH",
"431 314 OFFCURVE",
"409 219 OFFCURVE",
"363 148 CURVE SMOOTH",
"317 78 OFFCURVE",
"256 34 OFFCURVE",
"196 34 CURVE SMOOTH"
);
}
);
width = 565;
}
);
note = q;
unicode = 0071;
},
{
glyphname = r;
lastChange = "2018-06-23 23:45:44 +0000";
layers = (
{
anchors = (
{
name = bottom;
position = "{127, 0}";
},
{
name = top;
position = "{240, 531}";
}
);
guideLines = (
{
angle = 78;
position = "{662, 866}";
}
);
layerId = "4082F5B4-16CD-4EE9-8420-2E9C5A704856";
paths = (
{
closed = 1;
nodes = (
"326 540 OFFCURVE",
"306 536 OFFCURVE",
"288 529 CURVE SMOOTH",
"251 514 OFFCURVE",
"223 492 OFFCURVE",
"176 431 CURVE",
"173 431 LINE",
"187 531 LINE",
"148 531 LINE",
"35 0 LINE",
"83 0 LINE",
"132 235 LINE SMOOTH",
"142 283 OFFCURVE",
"159 329 OFFCURVE",
"181 370 CURVE SMOOTH",
"225 454 OFFCURVE",
"282 495 OFFCURVE",
"343 495 CURVE SMOOTH",
"364 495 OFFCURVE",
"383 493 OFFCURVE",
"398 488 CURVE",
"408 533 LINE",
"391 538 OFFCURVE",
"371 540 OFFCURVE",
"348 540 CURVE SMOOTH"
);
}
);
width = 367;
}
);
note = r;
unicode = 0072;
},
{
glyphname = s;
lastChange = "2018-06-23 23:45:44 +0000";
layers = (
{
anchors = (
{
name = bottom;
position = "{146, 0}";
},
{
name = top;
position = "{259, 531}";
}
);
guideLines = (
{
angle = 78;
position = "{483, 868}";
}
);
layerId = "4082F5B4-16CD-4EE9-8420-2E9C5A704856";
paths = (
{
closed = 1;
nodes = (
"348 164 OFFCURVE",
"345 181 OFFCURVE",
"337 196 CURVE SMOOTH",
"323 226 OFFCURVE",
"298 248 OFFCURVE",
"224 289 CURVE SMOOTH",
"199 302 OFFCURVE",
"180 315 OFFCURVE",
"166 327 CURVE SMOOTH",
"138 350 OFFCURVE",
"128 367 OFFCURVE",
"128 403 CURVE SMOOTH",
"128 458 OFFCURVE",
"177 496 OFFCURVE",
"253 496 CURVE SMOOTH",
"294 496 OFFCURVE",
"337 486 OFFCURVE",
"382 465 CURVE",
"399 508 LINE",
"362 527 OFFCURVE",
"302 539 OFFCURVE",
"253 539 CURVE SMOOTH",
"148 539 OFFCURVE",
"78 480 OFFCURVE",
"78 397 CURVE SMOOTH",
"78 336 OFFCURVE",
"105 300 OFFCURVE",
"201 248 CURVE SMOOTH",
"233 230 OFFCURVE",
"255 216 OFFCURVE",
"266 207 CURVE SMOOTH",
"289 187 OFFCURVE",
"298 167 OFFCURVE",
"298 140 CURVE SMOOTH",
"298 71 OFFCURVE",
"249 32 OFFCURVE",
"159 32 CURVE SMOOTH",
"114 32 OFFCURVE",
"61 49 OFFCURVE",
"12 79 CURVE",
"12 27 LINE",
"55 2 OFFCURVE",
"105 -10 OFFCURVE",
"161 -10 CURVE SMOOTH",
"276 -10 OFFCURVE",
"348 50 OFFCURVE",
"348 144 CURVE SMOOTH"
);
}
);
width = 404;
}
);
note = s;
unicode = 0073;
},
{
glyphname = t;
lastChange = "2018-06-23 23:45:44 +0000";
layers = (
{
anchors = (
{
name = bottom;
position = "{146, 0}";
},
{
name = center;
position = "{150, 266}";
},
{
name = top;
position = "{280, 531}";
},
{
name = topright;
position = "{348, 531}";
}
);
guideLines = (
{
angle = 78;
position = "{543, 944}";
}
);
layerId = "4082F5B4-16CD-4EE9-8420-2E9C5A704856";
paths = (
{
closed = 1;
nodes = (
"226 656 LINE",
"199 656 LINE",
"152 532 LINE",
"62 524 LINE",
"55 491 LINE",
"144 491 LINE",
"81 195 LINE SMOOTH",
"72 151 OFFCURVE",
"67 118 OFFCURVE",
"67 94 CURVE SMOOTH",
"67 26 OFFCURVE",
"104 -10 OFFCURVE",
"168 -10 CURVE SMOOTH",
"190 -10 OFFCURVE",
"218 -5 OFFCURVE",
"251 4 CURVE",
"251 46 LINE",
"224 38 OFFCURVE",
"199 33 OFFCURVE",
"177 33 CURVE SMOOTH",
"136 33 OFFCURVE",
"115 56 OFFCURVE",
"115 101 CURVE SMOOTH",
"115 122 OFFCURVE",
"119 149 OFFCURVE",
"126 181 CURVE SMOOTH",
"192 491 LINE",
"330 491 LINE",
"339 531 LINE",
"199 531 LINE"
);
}
);
width = 301;
}
);
note = t;
unicode = 0074;
},
{
glyphname = u;
lastChange = "2018-06-23 23:45:44 +0000";
layers = (
{
anchors = (
{
name = bottom;
position = "{223, 0}";
},
{
name = ogonek;
position = "{446, 5}";
},
{
name = top;
position = "{336, 531}";
},
{
name = topright;
position = "{605, 531}";
}
);
guideLines = (
{
angle = 78;
position = "{641, 866}";
}
);
layerId = "4082F5B4-16CD-4EE9-8420-2E9C5A704856";
paths = (
{
closed = 1;
nodes = (
"64 194 LINE SMOOTH",
"57 158 OFFCURVE",
"53 130 OFFCURVE",
"53 111 CURVE SMOOTH",
"53 33 OFFCURVE",
"98 -8 OFFCURVE",
"183 -8 CURVE SMOOTH",
"260 -8 OFFCURVE",
"326 28 OFFCURVE",
"380 100 CURVE",
"383 100 LINE",
"369 0 LINE",
"408 0 LINE",
"521 531 LINE",
"473 531 LINE",
"422 294 LINE SMOOTH",
"411 243 OFFCURVE",
"395 197 OFFCURVE",
"374 158 CURVE SMOOTH",
"330 79 OFFCURVE",
"264 34 OFFCURVE",
"192 34 CURVE SMOOTH",
"133 34 OFFCURVE",
"101 64 OFFCURVE",
"101 113 CURVE SMOOTH",
"101 130 OFFCURVE",
"104 155 OFFCURVE",
"112 190 CURVE SMOOTH",
"186 531 LINE",
"137 531 LINE"
);
}
);
width = 558;
}
);
note = u;
unicode = 0075;
},
{
glyphname = v;
lastChange = "2018-06-23 23:45:44 +0000";
layers = (
{
anchors = (
{
name = bottom;
position = "{162, 0}";
},
{
name = top;
position = "{275, 531}";
}
);
guideLines = (
{
angle = 78;
position = "{536, 953}";
}
);
layerId = "4082F5B4-16CD-4EE9-8420-2E9C5A704856";
paths = (
{
closed = 1;
nodes = (
"483 531 LINE",
"433 531 LINE",
"235 173 LINE SMOOTH",
"209 127 OFFCURVE",
"188 85 OFFCURVE",
"172 48 CURVE",
"169 48 LINE",
"167 77 OFFCURVE",
"161 118 OFFCURVE",
"153 172 CURVE SMOOTH",
"100 531 LINE",
"51 531 LINE",
"135 0 LINE",
"190 0 LINE"
);
}
);
width = 437;
}
);
note = v;
unicode = 0076;
},
{
glyphname = w;
lastChange = "2018-06-23 23:45:44 +0000";
layers = (
{
anchors = (
{
name = bottom;
position = "{284, 0}";
},
{
name = top;
position = "{397, 531}";
}
);
guideLines = (
{
angle = 78;
position = "{830, 1167}";
}
);
layerId = "4082F5B4-16CD-4EE9-8420-2E9C5A704856";
paths = (
{
closed = 1;
nodes = (
"710 531 LINE",
"663 531 LINE",
"507 198 LINE",
"458 83 LINE",
"446 53 LINE",
"443 53 LINE",
"443 102 OFFCURVE",
"440 150 OFFCURVE",
"436 198 CURVE SMOOTH",
"405 531 LINE",
"367 531 LINE",
"185 198 LINE SMOOTH",
"156 145 OFFCURVE",
"132 97 OFFCURVE",
"112 53 CURVE",
"109 53 LINE",
"110 130 LINE",
"104 531 LINE",
"59 531 LINE",
"69 0 LINE",
"126 0 LINE",
"300 323 LINE SMOOTH",
"335 388 OFFCURVE",
"359 435 OFFCURVE",
"370 465 CURVE",
"373 465 LINE",
"373 451 OFFCURVE",
"375 408 OFFCURVE",
"380 335 CURVE SMOOTH",
"409 0 LINE",
"462 0 LINE"
);
}
);
width = 680;
}
);
note = w;
unicode = 0077;
},
{
glyphname = x;
lastChange = "2018-06-23 23:45:44 +0000";
layers = (
{
anchors = (
{
name = bottom;
position = "{168, 0}";
},
{
name = top;
position = "{282, 531}";
}
);
guideLines = (
{
angle = 78;
position = "{547, 940}";
}
);
layerId = "4082F5B4-16CD-4EE9-8420-2E9C5A704856";
paths = (
{
closed = 1;
nodes = (
"373 0 LINE",
"247 270 LINE",
"466 531 LINE",
"407 531 LINE",
"225 305 LINE",
"124 531 LINE",
"75 531 LINE",
"195 273 LINE",
"-35 0 LINE",
"24 0 LINE",
"216 236 LINE",
"325 0 LINE"
);
}
);
width = 450;
}
);
note = x;
unicode = 0078;
},
{
glyphname = y;
lastChange = "2018-06-23 23:45:44 +0000";
layers = (
{
anchors = (
{
name = bottom;
position = "{168, 0}";
},
{
name = top;
position = "{281, 531}";
}
);
guideLines = (
{
angle = 77.9871;
position = "{473, 305}";
},
{
angle = 78;
position = "{531, 877}";
}
);
layerId = "4082F5B4-16CD-4EE9-8420-2E9C5A704856";
paths = (
{
closed = 1;
nodes = (
"133 -26 OFFCURVE",
"117 -56 OFFCURVE",
"96 -94 CURVE SMOOTH",
"55 -168 OFFCURVE",
"13 -198 OFFCURVE",
"-39 -198 CURVE SMOOTH",
"-61 -198 OFFCURVE",
"-83 -194 OFFCURVE",
"-106 -185 CURVE",
"-106 -230 LINE",
"-86 -237 OFFCURVE",
"-65 -240 OFFCURVE",
"-43 -240 CURVE SMOOTH",
"-16 -240 OFFCURVE",
"8 -235 OFFCURVE",
"29 -226 CURVE SMOOTH",
"70 -206 OFFCURVE",
"97 -182 OFFCURVE",
"144 -99 CURVE SMOOTH",
"492 531 LINE",
"442 531 LINE",
"272 223 LINE SMOOTH",
"226 138 OFFCURVE",
"195 78 OFFCURVE",
"181 44 CURVE",
"176 44 LINE",
"174 76 OFFCURVE",
"166 149 OFFCURVE",
"149 263 CURVE SMOOTH",
"109 531 LINE",
"60 531 LINE",
"145 -4 LINE"
);
}
);
width = 449;
}
);
leftMetricsKey = y;
note = y;
rightMetricsKey = y;
unicode = 0079;
},
{
glyphname = z;
lastChange = "2018-06-23 23:45:44 +0000";
layers = (
{
anchors = (
{
name = bottom;
position = "{160, 0}";
},
{
name = top;
position = "{273, 531}";
}
);
guideLines = (
{
angle = 78;
position = "{537, 975}";
}
);
layerId = "4082F5B4-16CD-4EE9-8420-2E9C5A704856";
paths = (
{
closed = 1;
nodes = (
"56 41 LINE",
"428 490 LINE",
"437 531 LINE",
"115 531 LINE",
"107 490 LINE",
"372 490 LINE",
"-7 35 LINE",
"-14 0 LINE",
"342 0 LINE",
"350 41 LINE"
);
}
);
width = 433;
}
);
note = z;
unicode = 007A;
},
{
glyphname = braceleft;
lastChange = "2018-06-23 23:45:44 +0000";
layers = (
{
layerId = "4082F5B4-16CD-4EE9-8420-2E9C5A704856";
paths = (
{
closed = 1;
nodes = (
"217 -116 LINE",
"151 -116 OFFCURVE",
"131 -99 OFFCURVE",
"131 -59 CURVE SMOOTH",
"131 -45 OFFCURVE",
"133 -29 OFFCURVE",
"137 -10 CURVE SMOOTH",
"160 100 LINE SMOOTH",
"168 137 OFFCURVE",
"172 163 OFFCURVE",
"172 180 CURVE SMOOTH",
"172 227 OFFCURVE",
"146 261 OFFCURVE",
"102 273 CURVE",
"102 275 LINE",
"169 287 OFFCURVE",
"208 321 OFFCURVE",
"227 408 CURVE SMOOTH",
"263 573 LINE SMOOTH",
"269 598 OFFCURVE",
"276 618 OFFCURVE",
"285 632 CURVE SMOOTH",
"302 660 OFFCURVE",
"326 670 OFFCURVE",
"382 672 CURVE",
"390 714 LINE",
"376 714 LINE SMOOTH",
"286 714 OFFCURVE",
"239 677 OFFCURVE",
"219 589 CURVE SMOOTH",
"176 397 LINE SMOOTH",
"160 326 OFFCURVE",
"121 296 OFFCURVE",
"39 296 CURVE",
"29 258 LINE",
"94 258 OFFCURVE",
"126 232 OFFCURVE",
"126 180 CURVE SMOOTH",
"126 168 OFFCURVE",
"123 147 OFFCURVE",
"117 118 CURVE SMOOTH",
"90 -5 LINE SMOOTH",
"84 -28 OFFCURVE",
"82 -46 OFFCURVE",
"82 -61 CURVE SMOOTH",
"82 -126 OFFCURVE",
"124 -158 OFFCURVE",
"207 -158 CURVE SMOOTH",
"217 -158 LINE"
);
}
);
width = 346;
}
);
note = braceleft;
unicode = 007B;
},
{
glyphname = bar;
lastChange = "2018-06-23 23:45:44 +0000";
layers = (
{
layerId = "4082F5B4-16CD-4EE9-8420-2E9C5A704856";
paths = (
{
closed = 1;
nodes = (
"334 -249 LINE",
"334 762 LINE",
"285 762 LINE",
"285 -249 LINE"
);
}
);
width = 551;
}
);
note = bar;
unicode = 007C;
},
{
glyphname = braceright;
lastChange = "2018-06-23 23:45:44 +0000";
layers = (
{
layerId = "4082F5B4-16CD-4EE9-8420-2E9C5A704856";
paths = (
{
closed = 1;
nodes = (
"142 672 LINE",
"168 672 OFFCURVE",
"187 670 OFFCURVE",
"199 667 CURVE SMOOTH",
"222 659 OFFCURVE",
"234 644 OFFCURVE",
"234 615 CURVE SMOOTH",
"234 602 OFFCURVE",
"232 586 OFFCURVE",
"228 566 CURVE SMOOTH",
"202 440 LINE SMOOTH",
"196 415 OFFCURVE",
"193 394 OFFCURVE",
"193 376 CURVE SMOOTH",
"193 333 OFFCURVE",
"214 296 OFFCURVE",
"263 283 CURVE",
"263 281 LINE",
"193 269 OFFCURVE",
"156 230 OFFCURVE",
"138 148 CURVE SMOOTH",
"102 -17 LINE SMOOTH",
"97 -43 OFFCURVE",
"89 -63 OFFCURVE",
"81 -76 CURVE SMOOTH",
"63 -104 OFFCURVE",
"42 -115 OFFCURVE",
"-20 -116 CURVE",
"-20 -158 LINE",
"-11 -158 LINE SMOOTH",
"78 -158 OFFCURVE",
"125 -124 OFFCURVE",
"146 -33 CURVE SMOOTH",
"189 159 LINE SMOOTH",
"205 230 OFFCURVE",
"245 260 OFFCURVE",
"326 260 CURVE",
"336 298 LINE",
"271 298 OFFCURVE",
"239 326 OFFCURVE",
"239 376 CURVE SMOOTH",
"239 386 OFFCURVE",
"242 407 OFFCURVE",
"248 438 CURVE SMOOTH",
"275 561 LINE SMOOTH",
"280 585 OFFCURVE",
"283 604 OFFCURVE",
"283 617 CURVE SMOOTH",
"283 680 OFFCURVE",
"248 714 OFFCURVE",
"162 714 CURVE SMOOTH",
"152 714 LINE"
);
}
);
width = 346;
}
);
note = braceright;
unicode = 007D;
},
{
glyphname = asciitilde;
lastChange = "2018-06-23 23:45:44 +0000";
layers = (
{
layerId = "4082F5B4-16CD-4EE9-8420-2E9C5A704856";
paths = (
{
closed = 1;
nodes = (
"208 364 OFFCURVE",
"238 355 OFFCURVE",
"279 336 CURVE SMOOTH",
"329 313 OFFCURVE",
"373 301 OFFCURVE",
"411 301 CURVE SMOOTH",
"451 301 OFFCURVE",
"489 319 OFFCURVE",
"525 356 CURVE",
"525 403 LINE",
"483 359 OFFCURVE",
"450 342 OFFCURVE",
"415 342 CURVE SMOOTH",
"385 342 OFFCURVE",
"349 351 OFFCURVE",
"308 370 CURVE SMOOTH",
"242 399 OFFCURVE",
"215 405 OFFCURVE",
"176 405 CURVE SMOOTH",
"135 405 OFFCURVE",
"97 387 OFFCURVE",
"62 351 CURVE",
"62 305 LINE",
"99 344 OFFCURVE",
"139 364 OFFCURVE",
"171 364 CURVE SMOOTH"
);
}
);
width = 551;
}
);
note = asciitilde;
unicode = 007E;
},
{
glyphname = exclamdown;
lastChange = "2018-06-23 23:45:44 +0000";
layers = (
{
layerId = "4082F5B4-16CD-4EE9-8420-2E9C5A704856";
paths = (
{
closed = 1;
nodes = (
"60 -183 LINE",
"159 347 LINE",
"129 347 LINE",
"2 -183 LINE"
);
},
{
closed = 1;
nodes = (
"211 527 OFFCURVE",
"200 539 OFFCURVE",
"178 539 CURVE SMOOTH",
"150 539 OFFCURVE",
"133 515 OFFCURVE",
"133 479 CURVE SMOOTH",
"133 456 OFFCURVE",
"144 444 OFFCURVE",
"165 444 CURVE SMOOTH",
"194 444 OFFCURVE",
"211 466 OFFCURVE",
"211 503 CURVE SMOOTH"
);
}
);
width = 245;
}
);
note = exclamdown;
unicode = 00A1;
},
{
glyphname = cent;
lastChange = "2018-06-23 23:45:44 +0000";
layers = (
{
layerId = "4082F5B4-16CD-4EE9-8420-2E9C5A704856";
paths = (
{
closed = 1;
nodes = (
"355 89 OFFCURVE",
"400 98 OFFCURVE",
"439 117 CURVE",
"439 162 LINE",
"395 143 OFFCURVE",
"352 133 OFFCURVE",
"310 133 CURVE SMOOTH",
"223 133 OFFCURVE",
"172 187 OFFCURVE",
"172 294 CURVE SMOOTH",
"172 352 OFFCURVE",
"182 404 OFFCURVE",
"201 451 CURVE SMOOTH",
"240 545 OFFCURVE",
"310 596 OFFCURVE",
"394 596 CURVE SMOOTH",
"430 596 OFFCURVE",
"465 588 OFFCURVE",
"500 573 CURVE",
"514 617 LINE",
"481 630 OFFCURVE",
"446 637 OFFCURVE",
"408 638 CURVE",
"427 724 LINE",
"383 724 LINE",
"365 637 LINE",
"319 632 OFFCURVE",
"277 614 OFFCURVE",
"240 583 CURVE SMOOTH",
"166 521 OFFCURVE",
"122 413 OFFCURVE",
"122 293 CURVE SMOOTH",
"122 186 OFFCURVE",
"173 111 OFFCURVE",
"259 95 CURVE",
"237 -10 LINE",
"282 -10 LINE",
"302 89 LINE"
);
}
);
width = 551;
}
);
note = cent;
unicode = 00A2;
},
{
glyphname = sterling;
lastChange = "2018-06-23 23:45:44 +0000";
layers = (
{
layerId = "4082F5B4-16CD-4EE9-8420-2E9C5A704856";
paths = (
{
closed = 1;
nodes = (
"314 722 OFFCURVE",
"239 663 OFFCURVE",
"212 541 CURVE SMOOTH",
"175 370 LINE",
"78 370 LINE",
"70 330 LINE",
"167 330 LINE",
"139 203 LINE SMOOTH",
"116 104 OFFCURVE",
"66 48 OFFCURVE",
"6 41 CURVE",
"-2 0 LINE",
"456 0 LINE",
"466 46 LINE",
"95 46 LINE",
"140 75 OFFCURVE",
"171 126 OFFCURVE",
"187 199 CURVE SMOOTH",
"215 330 LINE",
"414 330 LINE",
"423 370 LINE",
"223 370 LINE",
"259 536 LINE SMOOTH",
"279 631 OFFCURVE",
"336 680 OFFCURVE",
"424 680 CURVE SMOOTH",
"464 680 OFFCURVE",
"501 672 OFFCURVE",
"537 656 CURVE SMOOTH",
"563 643 LINE",
"582 684 LINE",
"536 709 OFFCURVE",
"484 722 OFFCURVE",
"429 722 CURVE SMOOTH"
);
}
);
width = 551;
}
);
note = sterling;
unicode = 00A3;
},
{
glyphname = currency;
lastChange = "2018-06-23 23:45:44 +0000";
layers = (
{
layerId = "4082F5B4-16CD-4EE9-8420-2E9C5A704856";
paths = (
{
closed = 1;
nodes = (
"128 312 OFFCURVE",
"140 275 OFFCURVE",
"164 243 CURVE",
"102 181 LINE",
"132 151 LINE",
"195 214 LINE",
"228 188 OFFCURVE",
"265 175 OFFCURVE",
"306 175 CURVE SMOOTH",
"345 175 OFFCURVE",
"381 187 OFFCURVE",
"415 212 CURVE",
"479 150 LINE",
"509 180 LINE",
"446 242 LINE",
"471 272 OFFCURVE",
"484 309 OFFCURVE",
"484 353 CURVE SMOOTH",
"484 393 OFFCURVE",
"471 429 OFFCURVE",
"446 464 CURVE",
"509 527 LINE",
"479 557 LINE",
"415 494 LINE",
"381 520 OFFCURVE",
"345 532 OFFCURVE",
"306 532 CURVE SMOOTH",
"266 532 OFFCURVE",
"228 520 OFFCURVE",
"194 494 CURVE",
"132 557 LINE",
"101 526 LINE",
"164 463 LINE",
"140 428 OFFCURVE",
"128 392 OFFCURVE",
"128 353 CURVE SMOOTH"
);
},
{
closed = 1;
nodes = (
"171 431 OFFCURVE",
"232 491 OFFCURVE",
"306 491 CURVE SMOOTH",
"331 491 OFFCURVE",
"354 485 OFFCURVE",
"375 472 CURVE SMOOTH",
"418 447 OFFCURVE",
"443 402 OFFCURVE",
"443 353 CURVE SMOOTH",
"443 278 OFFCURVE",
"382 218 OFFCURVE",
"306 218 CURVE SMOOTH",
"230 218 OFFCURVE",
"171 277 OFFCURVE",
"171 353 CURVE SMOOTH"
);
}
);
width = 551;
}
);
note = currency;
unicode = 00A4;
},
{
glyphname = yen;
lastChange = "2018-06-23 23:45:44 +0000";
layers = (
{
layerId = "4082F5B4-16CD-4EE9-8420-2E9C5A704856";
paths = (
{
closed = 1;
nodes = (
"138 714 LINE",
"243 312 LINE",
"117 312 LINE",
"109 275 LINE",
"256 275 LINE",
"236 182 LINE",
"90 182 LINE",
"81 141 LINE",
"227 141 LINE",
"196 0 LINE",
"247 0 LINE",
"276 141 LINE",
"430 141 LINE",
"439 182 LINE",
"284 182 LINE",
"303 275 LINE",
"457 275 LINE",
"465 312 LINE",
"335 312 LINE",
"608 714 LINE",
"551 714 LINE",
"285 315 LINE",
"187 714 LINE"
);
}
);
width = 551;
}
);
note = yen;
unicode = 00A5;
},
{
glyphname = brokenbar;
lastChange = "2018-06-23 23:45:44 +0000";
layers = (
{
layerId = "4082F5B4-16CD-4EE9-8420-2E9C5A704856";
paths = (
{
closed = 1;
nodes = (
"331 393 LINE",
"331 762 LINE",
"282 762 LINE",
"282 393 LINE"
);
},
{
closed = 1;
nodes = (
"331 -249 LINE",
"331 120 LINE",
"282 120 LINE",
"282 -249 LINE"
);
}
);
width = 551;
}
);
note = brokenbar;
unicode = 00A6;
},
{
glyphname = section;
lastChange = "2018-06-23 23:45:44 +0000";
layers = (
{
layerId = "4082F5B4-16CD-4EE9-8420-2E9C5A704856";
paths = (
{
closed = 1;
nodes = (
"103 319 OFFCURVE",
"133 281 OFFCURVE",
"234 239 CURVE SMOOTH",
"314 205 OFFCURVE",
"336 181 OFFCURVE",
"336 140 CURVE SMOOTH",
"336 76 OFFCURVE",
"283 41 OFFCURVE",
"186 41 CURVE SMOOTH",
"138 41 OFFCURVE",
"81 56 OFFCURVE",
"50 73 CURVE",
"50 25 LINE",
"88 8 OFFCURVE",
"133 -1 OFFCURVE",
"184 -1 CURVE SMOOTH",
"227 -1 OFFCURVE",
"263 5 OFFCURVE",
"292 18 CURVE SMOOTH",
"352 42 OFFCURVE",
"384 88 OFFCURVE",
"384 144 CURVE SMOOTH",
"384 188 OFFCURVE",
"364 219 OFFCURVE",
"324 240 CURVE",
"405 279 OFFCURVE",
"446 331 OFFCURVE",
"446 395 CURVE SMOOTH",
"446 416 OFFCURVE",
"442 434 OFFCURVE",
"434 449 CURVE SMOOTH",
"418 480 OFFCURVE",
"395 500 OFFCURVE",
"322 534 CURVE SMOOTH",
"277 554 OFFCURVE",
"248 571 OFFCURVE",
"232 586 CURVE SMOOTH",
"217 601 OFFCURVE",
"210 618 OFFCURVE",
"210 637 CURVE SMOOTH",
"210 688 OFFCURVE",
"267 720 OFFCURVE",
"347 720 CURVE SMOOTH",
"388 720 OFFCURVE",
"431 711 OFFCURVE",
"476 694 CURVE",
"491 733 LINE",
"450 752 OFFCURVE",
"403 761 OFFCURVE",
"350 761 CURVE SMOOTH",
"313 761 OFFCURVE",
"279 756 OFFCURVE",
"251 745 CURVE SMOOTH",
"195 723 OFFCURVE",
"164 681 OFFCURVE",
"164 633 CURVE SMOOTH",
"164 590 OFFCURVE",
"192 552 OFFCURVE",
"234 532 CURVE",
"150 500 OFFCURVE",
"103 446 OFFCURVE",
"103 380 CURVE SMOOTH"
);
},
{
closed = 1;
nodes = (
"366 472 OFFCURVE",
"399 440 OFFCURVE",
"399 393 CURVE SMOOTH",
"399 333 OFFCURVE",
"358 293 OFFCURVE",
"291 261 CURVE",
"249 277 OFFCURVE",
"218 290 OFFCURVE",
"200 301 CURVE SMOOTH",
"163 323 OFFCURVE",
"148 347 OFFCURVE",
"148 384 CURVE SMOOTH",
"148 440 OFFCURVE",
"195 487 OFFCURVE",
"273 507 CURVE"
);
}
);
width = 486;
}
);
note = section;
unicode = 00A7;
},
{
glyphname = dieresis;
lastChange = "2018-06-23 23:45:44 +0000";
layers = (
{
layerId = "4082F5B4-16CD-4EE9-8420-2E9C5A704856";
paths = (
{
closed = 1;
nodes = (
"408 646 OFFCURVE",
"417 636 OFFCURVE",
"435 636 CURVE SMOOTH",
"457 636 OFFCURVE",
"472 657 OFFCURVE",
"472 688 CURVE SMOOTH",
"472 709 OFFCURVE",
"463 719 OFFCURVE",
"446 719 CURVE SMOOTH",
"422 719 OFFCURVE",
"408 699 OFFCURVE",
"408 667 CURVE SMOOTH"
);
},
{
closed = 1;
nodes = (
"240 646 OFFCURVE",
"249 636 OFFCURVE",
"267 636 CURVE SMOOTH",
"289 636 OFFCURVE",
"304 657 OFFCURVE",
"304 688 CURVE SMOOTH",
"304 709 OFFCURVE",
"295 719 OFFCURVE",
"278 719 CURVE SMOOTH",
"254 719 OFFCURVE",
"240 699 OFFCURVE",
"240 667 CURVE SMOOTH"
);
}
);
width = 554;
}
);
note = dieresis;
unicode = 00A8;
},
{
glyphname = copyright;
lastChange = "2018-06-23 23:45:44 +0000";
layers = (
{
layerId = "4082F5B4-16CD-4EE9-8420-2E9C5A704856";
paths = (
{
closed = 1;
nodes = (
"491 533 OFFCURVE",
"522 526 OFFCURVE",
"554 511 CURVE",
"572 552 LINE",
"537 569 OFFCURVE",
"500 577 OFFCURVE",
"461 577 CURVE SMOOTH",
"339 577 OFFCURVE",
"262 489 OFFCURVE",
"262 354 CURVE SMOOTH",
"262 215 OFFCURVE",
"331 136 OFFCURVE",
"452 136 CURVE SMOOTH",
"486 136 OFFCURVE",
"521 144 OFFCURVE",
"554 158 CURVE",
"554 201 LINE",
"517 187 OFFCURVE",
"485 180 OFFCURVE",
"457 180 CURVE SMOOTH",
"362 180 OFFCURVE",
"313 237 OFFCURVE",
"313 358 CURVE SMOOTH",
"313 469 OFFCURVE",
"369 533 OFFCURVE",
"461 533 CURVE SMOOTH"
);
},
{
closed = 1;
nodes = (
"72 292 OFFCURVE",
"88 232 OFFCURVE",
"120 176 CURVE SMOOTH",
"183 63 OFFCURVE",
"304 -10 OFFCURVE",
"439 -10 CURVE SMOOTH",
"507 -10 OFFCURVE",
"569 7 OFFCURVE",
"626 41 CURVE SMOOTH",
"740 109 OFFCURVE",
"806 229 OFFCURVE",
"806 357 CURVE SMOOTH",
"806 423 OFFCURVE",
"790 484 OFFCURVE",
"757 541 CURVE SMOOTH",
"691 655 OFFCURVE",
"569 724 OFFCURVE",
"439 724 CURVE SMOOTH",
"373 724 OFFCURVE",
"312 708 OFFCURVE",
"255 675 CURVE SMOOTH",
"141 609 OFFCURVE",
"72 487 OFFCURVE",
"72 357 CURVE SMOOTH"
);
},
{
closed = 1;
nodes = (
"117 414 OFFCURVE",
"131 466 OFFCURVE",
"159 516 CURVE SMOOTH",
"215 614 OFFCURVE",
"320 679 OFFCURVE",
"439 679 CURVE SMOOTH",
"497 679 OFFCURVE",
"551 665 OFFCURVE",
"601 636 CURVE SMOOTH",
"699 578 OFFCURVE",
"761 473 OFFCURVE",
"761 357 CURVE SMOOTH",
"761 298 OFFCURVE",
"746 244 OFFCURVE",
"716 194 CURVE SMOOTH",
"656 94 OFFCURVE",
"552 35 OFFCURVE",
"439 35 CURVE SMOOTH",
"381 35 OFFCURVE",
"327 50 OFFCURVE",
"278 79 CURVE SMOOTH",
"179 137 OFFCURVE",
"117 241 OFFCURVE",
"117 357 CURVE SMOOTH"
);
}
);
width = 832;
}
);
note = copyright;
unicode = 00A9;
},
{
glyphname = ordfeminine;
lastChange = "2018-06-23 23:45:44 +0000";
layers = (
{
layerId = "4082F5B4-16CD-4EE9-8420-2E9C5A704856";
paths = (
{
closed = 1;
nodes = (
"149 725 OFFCURVE",
"83 627 OFFCURVE",
"83 504 CURVE SMOOTH",
"83 434 OFFCURVE",
"116 396 OFFCURVE",
"168 396 CURVE SMOOTH",
"209 396 OFFCURVE",
"246 418 OFFCURVE",
"277 463 CURVE",
"279 463 LINE",
"268 402 LINE",
"303 402 LINE",
"370 719 LINE",
"338 719 LINE",
"321 669 LINE",
"318 669 LINE",
"302 706 OFFCURVE",
"273 725 OFFCURVE",
"238 725 CURVE SMOOTH"
);
},
{
closed = 1;
nodes = (
"144 432 OFFCURVE",
"126 456 OFFCURVE",
"126 502 CURVE SMOOTH",
"126 606 OFFCURVE",
"177 689 OFFCURVE",
"238 689 CURVE SMOOTH",
"275 689 OFFCURVE",
"301 657 OFFCURVE",
"301 619 CURVE SMOOTH",
"301 596 OFFCURVE",
"298 576 OFFCURVE",
"293 559 CURVE",
"273 488 OFFCURVE",
"223 432 OFFCURVE",
"180 432 CURVE SMOOTH"
);
}
);
width = 314;
}
);
note = ordfeminine;
unicode = 00AA;
},
{
glyphname = guillemotleft;
lastChange = "2018-06-23 23:45:44 +0000";
layers = (
{
layerId = "4082F5B4-16CD-4EE9-8420-2E9C5A704856";
paths = (
{
closed = 1;
nodes = (
"30 264 LINE",
"154 60 LINE",
"185 79 LINE",
"81 267 LINE",
"236 431 LINE",
"208 455 LINE",
"31 277 LINE"
);
},
{
closed = 1;
nodes = (
"206 264 LINE",
"330 60 LINE",
"361 79 LINE",
"259 267 LINE",
"412 431 LINE",
"384 455 LINE",
"207 277 LINE"
);
}
);
width = 420;
}
);
note = guillemotleft;
unicode = 00AB;
},
{
glyphname = logicalnot;
lastChange = "2018-06-23 23:45:44 +0000";
layers = (
{
layerId = "4082F5B4-16CD-4EE9-8420-2E9C5A704856";
paths = (
{
closed = 1;
nodes = (
"61 328 LINE",
"453 328 LINE",
"453 133 LINE",
"502 133 LINE",
"502 377 LINE",
"61 377 LINE"
);
}
);
width = 551;
}
);
note = logicalnot;
unicode = 00AC;
},
{
glyphname = registered;
lastChange = "2018-06-23 23:45:44 +0000";
layers = (
{
layerId = "4082F5B4-16CD-4EE9-8420-2E9C5A704856";
paths = (
{
closed = 1;
nodes = (
"424 530 LINE SMOOTH",
"488 530 OFFCURVE",
"520 502 OFFCURVE",
"520 446 CURVE SMOOTH",
"520 388 OFFCURVE",
"485 357 OFFCURVE",
"425 357 CURVE SMOOTH",
"370 357 LINE",
"370 530 LINE"
);
},
{
closed = 1;
nodes = (
"571 532 OFFCURVE",
"517 572 OFFCURVE",
"424 572 CURVE SMOOTH",
"321 572 LINE",
"321 142 LINE",
"370 142 LINE",
"370 318 LINE",
"452 318 LINE",
"555 142 LINE",
"614 142 LINE",
"498 334 LINE",
"543 355 OFFCURVE",
"571 396 OFFCURVE",
"571 448 CURVE SMOOTH"
);
},
{
closed = 1;
nodes = (
"73 290 OFFCURVE",
"90 229 OFFCURVE",
"123 173 CURVE SMOOTH",
"188 61 OFFCURVE",
"307 -10 OFFCURVE",
"440 -10 CURVE SMOOTH",
"508 -10 OFFCURVE",
"570 7 OFFCURVE",
"627 41 CURVE SMOOTH",
"741 109 OFFCURVE",
"807 229 OFFCURVE",
"807 357 CURVE SMOOTH",
"807 423 OFFCURVE",
"791 484 OFFCURVE",
"758 541 CURVE SMOOTH",
"692 655 OFFCURVE",
"570 724 OFFCURVE",
"440 724 CURVE SMOOTH",
"375 724 OFFCURVE",
"315 708 OFFCURVE",
"259 677 CURVE SMOOTH",
"146 613 OFFCURVE",
"73 492 OFFCURVE",
"73 357 CURVE SMOOTH"
);
},
{
closed = 1;
nodes = (
"118 414 OFFCURVE",
"132 466 OFFCURVE",
"160 516 CURVE SMOOTH",
"216 614 OFFCURVE",
"321 679 OFFCURVE",
"440 679 CURVE SMOOTH",
"498 679 OFFCURVE",
"552 665 OFFCURVE",
"602 636 CURVE SMOOTH",
"700 578 OFFCURVE",
"762 473 OFFCURVE",
"762 357 CURVE SMOOTH",
"762 298 OFFCURVE",
"747 244 OFFCURVE",
"717 194 CURVE SMOOTH",
"657 94 OFFCURVE",
"553 35 OFFCURVE",
"440 35 CURVE SMOOTH",
"382 35 OFFCURVE",
"328 50 OFFCURVE",
"279 79 CURVE SMOOTH",
"180 137 OFFCURVE",
"118 241 OFFCURVE",
"118 357 CURVE SMOOTH"
);
}
);
width = 832;
}
);
note = registered;
unicode = 00AE;
},
{
glyphname = overscore;
lastChange = "2018-06-23 23:45:44 +0000";
layers = (
{
layerId = "4082F5B4-16CD-4EE9-8420-2E9C5A704856";
paths = (
{
closed = 1;
nodes = (
"196 807 LINE",
"170 760 LINE",
"489 760 LINE",
"515 807 LINE"
);
}
);
width = 320;
}
);
note = overscore;
unicode = 00AF;
},
{
glyphname = degree;
lastChange = "2018-06-23 23:45:44 +0000";
layers = (
{
layerId = "4082F5B4-16CD-4EE9-8420-2E9C5A704856";
paths = (
{
closed = 1;
nodes = (
"118 501 OFFCURVE",
"182 438 OFFCURVE",
"261 438 CURVE SMOOTH",
"340 438 OFFCURVE",
"404 501 OFFCURVE",
"404 581 CURVE SMOOTH",
"404 659 OFFCURVE",
"341 724 OFFCURVE",
"261 724 CURVE SMOOTH",
"181 724 OFFCURVE",
"118 659 OFFCURVE",
"118 581 CURVE SMOOTH"
);
},
{
closed = 1;
nodes = (
"154 640 OFFCURVE",
"203 689 OFFCURVE",
"261 689 CURVE SMOOTH",
"320 689 OFFCURVE",
"368 640 OFFCURVE",
"368 581 CURVE SMOOTH",
"368 523 OFFCURVE",
"321 475 OFFCURVE",
"261 475 CURVE SMOOTH",
"202 475 OFFCURVE",
"154 523 OFFCURVE",
"154 581 CURVE SMOOTH"
);
}
);
width = 428;
}
);
note = degree;
unicode = 00B0;
},
{
glyphname = plusminus;
lastChange = "2018-06-23 23:45:44 +0000";
layers = (
{
layerId = "4082F5B4-16CD-4EE9-8420-2E9C5A704856";
paths = (
{
closed = 1;
nodes = (
"307 112 LINE",
"307 307 LINE",
"503 307 LINE",
"503 355 LINE",
"307 355 LINE",
"307 553 LINE",
"258 553 LINE",
"258 355 LINE",
"62 355 LINE",
"62 307 LINE",
"258 307 LINE",
"258 112 LINE"
);
},
{
closed = 1;
nodes = (
"503 49 LINE",
"62 49 LINE",
"62 0 LINE",
"503 0 LINE"
);
}
);
width = 551;
}
);
note = plusminus;
unicode = 00B1;
},
{
glyphname = twosuperior;
lastChange = "2018-06-23 23:45:44 +0000";
layers = (
{
layerId = "4082F5B4-16CD-4EE9-8420-2E9C5A704856";
paths = (
{
closed = 1;
nodes = (
"100 324 LINE",
"230 433 LINE SMOOTH",
"311 500 OFFCURVE",
"348 556 OFFCURVE",
"348 625 CURVE SMOOTH",
"348 643 OFFCURVE",
"344 659 OFFCURVE",
"335 674 CURVE SMOOTH",
"318 703 OFFCURVE",
"283 722 OFFCURVE",
"236 722 CURVE SMOOTH",
"193 722 OFFCURVE",
"154 708 OFFCURVE",
"119 678 CURVE",
"139 648 LINE",
"171 673 OFFCURVE",
"203 685 OFFCURVE",
"234 685 CURVE SMOOTH",
"277 685 OFFCURVE",
"304 658 OFFCURVE",
"304 619 CURVE SMOOTH",
"304 566 OFFCURVE",
"282 528 OFFCURVE",
"193 451 CURVE SMOOTH",
"48 325 LINE",
"40 286 LINE",
"295 286 LINE",
"303 324 LINE"
);
}
);
width = 314;
}
);
note = twosuperior;
unicode = 00B2;
},
{
glyphname = threesuperior;
lastChange = "2018-06-23 23:45:44 +0000";
layers = (
{
layerId = "4082F5B4-16CD-4EE9-8420-2E9C5A704856";
paths = (
{
closed = 1;
nodes = (
"344 683 OFFCURVE",
"303 723 OFFCURVE",
"238 723 CURVE SMOOTH",
"191 723 OFFCURVE",
"151 709 OFFCURVE",
"115 681 CURVE",
"135 650 LINE",
"167 672 OFFCURVE",
"199 683 OFFCURVE",
"232 683 CURVE SMOOTH",
"276 683 OFFCURVE",
"302 661 OFFCURVE",
"302 616 CURVE SMOOTH",
"302 564 OFFCURVE",
"253 529 OFFCURVE",
"187 529 CURVE SMOOTH",
"145 529 LINE",
"137 490 LINE",
"178 490 LINE SMOOTH",
"242 490 OFFCURVE",
"274 464 OFFCURVE",
"274 411 CURVE SMOOTH",
"274 353 OFFCURVE",
"231 316 OFFCURVE",
"167 316 CURVE SMOOTH",
"126 316 OFFCURVE",
"83 331 OFFCURVE",
"53 349 CURVE",
"53 305 LINE",
"80 289 OFFCURVE",
"126 278 OFFCURVE",
"165 278 CURVE SMOOTH",
"195 278 OFFCURVE",
"221 284 OFFCURVE",
"244 295 CURVE SMOOTH",
"289 318 OFFCURVE",
"316 362 OFFCURVE",
"316 412 CURVE SMOOTH",
"316 459 OFFCURVE",
"288 496 OFFCURVE",
"245 506 CURVE",
"245 508 LINE",
"314 524 OFFCURVE",
"344 568 OFFCURVE",
"344 623 CURVE SMOOTH"
);
}
);
width = 314;
}
);
note = threesuperior;
unicode = 00B3;
},
{
glyphname = acute;
lastChange = "2018-06-23 23:45:44 +0000";
layers = (
{
layerId = "4082F5B4-16CD-4EE9-8420-2E9C5A704856";
paths = (
{
closed = 1;
nodes = (
"316 606 LINE",
"372 641 OFFCURVE",
"454 712 OFFCURVE",
"487 755 CURVE",
"487 766 LINE",
"420 766 LINE",
"391 718 OFFCURVE",
"326 649 OFFCURVE",
"283 616 CURVE",
"283 606 LINE"
);
}
);
width = 554;
}
);
note = acute;
unicode = 00B4;
},
{
glyphname = mu;
lastChange = "2018-06-23 23:45:44 +0000";
layers = (
{
layerId = "4082F5B4-16CD-4EE9-8420-2E9C5A704856";
paths = (
{
closed = 1;
nodes = (
"116 135 OFFCURVE",
"120 159 OFFCURVE",
"126 190 CURVE SMOOTH",
"200 531 LINE",
"151 531 LINE",
"-14 -240 LINE",
"33 -240 LINE",
"64 -87 LINE SMOOTH",
"75 -38 OFFCURVE",
"83 9 OFFCURVE",
"89 52 CURVE",
"92 52 LINE",
"106 15 OFFCURVE",
"142 -8 OFFCURVE",
"197 -8 CURVE SMOOTH",
"275 -8 OFFCURVE",
"341 28 OFFCURVE",
"394 100 CURVE",
"397 100 LINE",
"383 0 LINE",
"421 0 LINE",
"535 531 LINE",
"487 531 LINE",
"436 294 LINE SMOOTH",
"424 240 OFFCURVE",
"408 193 OFFCURVE",
"387 155 CURVE SMOOTH",
"344 78 OFFCURVE",
"278 34 OFFCURVE",
"206 34 CURVE SMOOTH",
"149 34 OFFCURVE",
"116 65 OFFCURVE",
"116 118 CURVE SMOOTH"
);
}
);
width = 572;
}
);
note = mu;
unicode = 00B5;
},
{
glyphname = paragraph;
lastChange = "2018-06-23 23:45:44 +0000";
layers = (
{
layerId = "4082F5B4-16CD-4EE9-8420-2E9C5A704856";
paths = (
{
closed = 1;
nodes = (
"325 760 LINE SMOOTH",
"173 760 OFFCURVE",
"105 678 OFFCURVE",
"105 509 CURVE SMOOTH",
"105 345 OFFCURVE",
"169 264 OFFCURVE",
"310 264 CURVE SMOOTH",
"336 264 OFFCURVE",
"360 267 OFFCURVE",
"381 273 CURVE",
"381 -127 LINE",
"430 -127 LINE",
"430 714 LINE",
"541 714 LINE",
"541 -127 LINE",
"590 -127 LINE",
"590 760 LINE"
);
}
);
width = 655;
}
);
note = paragraph;
unicode = 00B6;
},
{
glyphname = cedilla;
lastChange = "2018-06-23 23:45:44 +0000";
layers = (
{
layerId = "4082F5B4-16CD-4EE9-8420-2E9C5A704856";
paths = (
{
closed = 1;
nodes = (
"96 -102 OFFCURVE",
"73 -77 OFFCURVE",
"28 -67 CURVE",
"66 0 LINE",
"27 0 LINE",
"-27 -93 LINE",
"22 -96 OFFCURVE",
"47 -113 OFFCURVE",
"47 -145 CURVE SMOOTH",
"47 -183 OFFCURVE",
"15 -201 OFFCURVE",
"-50 -201 CURVE SMOOTH",
"-63 -201 OFFCURVE",
"-75 -200 OFFCURVE",
"-85 -198 CURVE",
"-85 -237 LINE",
"-75 -239 OFFCURVE",
"-62 -240 OFFCURVE",
"-47 -240 CURVE SMOOTH",
"45 -240 OFFCURVE",
"96 -202 OFFCURVE",
"96 -141 CURVE SMOOTH"
);
}
);
width = 205;
}
);
note = cedilla;
unicode = 00B8;
},
{
glyphname = onesuperior;
lastChange = "2018-06-23 23:45:44 +0000";
layers = (
{
layerId = "4082F5B4-16CD-4EE9-8420-2E9C5A704856";
paths = (
{
closed = 1;
nodes = (
"143 600 LINE",
"181 624 OFFCURVE",
"205 639 OFFCURVE",
"213 646 CURVE",
"221 652 OFFCURVE",
"231 661 OFFCURVE",
"242 671 CURVE",
"240 664 OFFCURVE",
"237 656 OFFCURVE",
"235 647 CURVE SMOOTH",
"229 628 OFFCURVE",
"225 608 OFFCURVE",
"221 589 CURVE",
"218 579 OFFCURVE",
"216 571 OFFCURVE",
"215 564 CURVE SMOOTH",
"157 286 LINE",
"198 286 LINE",
"289 714 LINE",
"250 714 LINE",
"124 629 LINE"
);
}
);
width = 314;
}
);
note = onesuperior;
unicode = 00B9;
},
{
glyphname = ordmasculine;
lastChange = "2018-06-23 23:45:44 +0000";
layers = (
{
layerId = "4082F5B4-16CD-4EE9-8420-2E9C5A704856";
paths = (
{
closed = 1;
nodes = (
"222 722 OFFCURVE",
"194 713 OFFCURVE",
"170 695 CURVE SMOOTH",
"121 658 OFFCURVE",
"93 590 OFFCURVE",
"93 517 CURVE SMOOTH",
"93 441 OFFCURVE",
"128 394 OFFCURVE",
"202 394 CURVE SMOOTH",
"235 394 OFFCURVE",
"264 403 OFFCURVE",
"288 422 CURVE SMOOTH",
"336 459 OFFCURVE",
"363 528 OFFCURVE",
"363 603 CURVE SMOOTH",
"363 679 OFFCURVE",
"321 722 OFFCURVE",
"253 722 CURVE SMOOTH"
);
},
{
closed = 1;
nodes = (
"297 686 OFFCURVE",
"323 655 OFFCURVE",
"323 601 CURVE SMOOTH",
"323 570 OFFCURVE",
"318 542 OFFCURVE",
"309 515 CURVE SMOOTH",
"290 462 OFFCURVE",
"255 430 OFFCURVE",
"208 430 CURVE SMOOTH",
"157 430 OFFCURVE",
"132 460 OFFCURVE",
"132 521 CURVE SMOOTH",
"132 550 OFFCURVE",
"137 577 OFFCURVE",
"146 603 CURVE SMOOTH",
"166 653 OFFCURVE",
"203 686 OFFCURVE",
"248 686 CURVE SMOOTH"
);
}
);
width = 320;
}
);
note = ordmasculine;
unicode = 00BA;
},
{
glyphname = guillemotright;
lastChange = "2018-06-23 23:45:44 +0000";
layers = (
{
layerId = "4082F5B4-16CD-4EE9-8420-2E9C5A704856";
paths = (
{
closed = 1;
nodes = (
"398 251 LINE",
"274 455 LINE",
"243 436 LINE",
"345 248 LINE",
"192 84 LINE",
"220 60 LINE",
"397 238 LINE"
);
},
{
closed = 1;
nodes = (
"222 251 LINE",
"98 455 LINE",
"67 436 LINE",
"169 248 LINE",
"16 84 LINE",
"44 60 LINE",
"221 238 LINE"
);
}
);
width = 420;
}
);
note = guillemotright;
unicode = 00BB;
},
{
glyphname = onequarter;
lastChange = "2018-06-23 23:45:44 +0000";
layers = (
{
layerId = "4082F5B4-16CD-4EE9-8420-2E9C5A704856";
paths = (
{
closed = 1;
nodes = (
"611 147 LINE",
"672 431 LINE",
"630 431 LINE",
"383 149 LINE",
"373 112 LINE",
"563 112 LINE",
"540 0 LINE",
"580 0 LINE",
"604 112 LINE",
"667 112 LINE",
"676 147 LINE"
);
},
{
closed = 1;
nodes = (
"522 254 OFFCURVE",
"577 318 OFFCURVE",
"594 338 CURVE SMOOTH",
"610 359 OFFCURVE",
"620 372 OFFCURVE",
"624 377 CURVE",
"620 366 OFFCURVE",
"615 349 OFFCURVE",
"609 326 CURVE SMOOTH",
"604 302 OFFCURVE",
"591 243 OFFCURVE",
"571 147 CURVE",
"429 147 LINE"
);
},
{
closed = 1;
nodes = (
"88 0 LINE",
"140 0 LINE",
"671 714 LINE",
"618 714 LINE"
);
},
{
closed = 1;
nodes = (
"134 600 LINE",
"172 624 OFFCURVE",
"195 639 OFFCURVE",
"204 646 CURVE",
"212 652 OFFCURVE",
"222 661 OFFCURVE",
"233 671 CURVE",
"230 664 OFFCURVE",
"228 656 OFFCURVE",
"226 647 CURVE SMOOTH",
"220 628 OFFCURVE",
"215 608 OFFCURVE",
"211 589 CURVE",
"209 579 OFFCURVE",
"207 571 OFFCURVE",
"206 564 CURVE SMOOTH",
"148 286 LINE",
"189 286 LINE",
"280 714 LINE",
"241 714 LINE",
"115 629 LINE"
);
}
);
width = 762;
}
);
note = onequarter;
unicode = 00BC;
},
{
glyphname = onehalf;
lastChange = "2018-06-23 23:45:44 +0000";
layers = (
{
layerId = "4082F5B4-16CD-4EE9-8420-2E9C5A704856";
paths = (
{
closed = 1;
nodes = (
"478 38 LINE",
"607 147 LINE SMOOTH",
"688 214 OFFCURVE",
"726 270 OFFCURVE",
"726 339 CURVE SMOOTH",
"726 357 OFFCURVE",
"721 373 OFFCURVE",
"713 388 CURVE SMOOTH",
"696 417 OFFCURVE",
"661 436 OFFCURVE",
"613 436 CURVE SMOOTH",
"571 436 OFFCURVE",
"532 421 OFFCURVE",
"497 392 CURVE",
"517 362 LINE",
"549 387 OFFCURVE",
"581 399 OFFCURVE",
"611 399 CURVE SMOOTH",
"655 399 OFFCURVE",
"682 372 OFFCURVE",
"682 333 CURVE SMOOTH",
"682 280 OFFCURVE",
"659 242 OFFCURVE",
"570 165 CURVE SMOOTH",
"425 39 LINE",
"417 0 LINE",
"672 0 LINE",
"681 38 LINE"
);
},
{
closed = 1;
nodes = (
"114 600 LINE",
"152 624 OFFCURVE",
"176 639 OFFCURVE",
"184 646 CURVE",
"192 652 OFFCURVE",
"202 661 OFFCURVE",
"213 671 CURVE",
"211 664 OFFCURVE",
"208 656 OFFCURVE",
"206 647 CURVE SMOOTH",
"201 628 OFFCURVE",
"196 608 OFFCURVE",
"192 589 CURVE",
"189 579 OFFCURVE",
"188 571 OFFCURVE",
"186 564 CURVE SMOOTH",
"128 286 LINE",
"169 286 LINE",
"260 714 LINE",
"221 714 LINE",
"95 629 LINE"
);
},
{
closed = 1;
nodes = (
"59 0 LINE",
"111 0 LINE",
"642 714 LINE",
"589 714 LINE"
);
}
);
width = 762;
}
);
note = onehalf;
unicode = 00BD;
},
{
glyphname = threequarters;
lastChange = "2018-06-23 23:45:44 +0000";
layers = (
{
layerId = "4082F5B4-16CD-4EE9-8420-2E9C5A704856";
paths = (
{
closed = 1;
nodes = (
"650 154 LINE",
"711 438 LINE",
"669 438 LINE",
"422 156 LINE",
"412 119 LINE",
"603 119 LINE",
"579 7 LINE",
"619 7 LINE",
"643 119 LINE",
"707 119 LINE",
"715 154 LINE"
);
},
{
closed = 1;
nodes = (
"562 261 OFFCURVE",
"617 325 OFFCURVE",
"633 346 CURVE SMOOTH",
"650 366 OFFCURVE",
"660 379 OFFCURVE",
"663 384 CURVE",
"660 373 OFFCURVE",
"655 356 OFFCURVE",
"649 333 CURVE SMOOTH",
"643 310 OFFCURVE",
"630 250 OFFCURVE",
"610 154 CURVE",
"468 154 LINE"
);
},
{
closed = 1;
nodes = (
"328 683 OFFCURVE",
"287 723 OFFCURVE",
"222 723 CURVE SMOOTH",
"175 723 OFFCURVE",
"135 709 OFFCURVE",
"99 681 CURVE",
"119 650 LINE",
"151 672 OFFCURVE",
"183 683 OFFCURVE",
"216 683 CURVE SMOOTH",
"260 683 OFFCURVE",
"286 661 OFFCURVE",
"286 616 CURVE SMOOTH",
"286 564 OFFCURVE",
"237 529 OFFCURVE",
"171 529 CURVE SMOOTH",
"129 529 LINE",
"121 490 LINE",
"162 490 LINE SMOOTH",
"226 490 OFFCURVE",
"258 464 OFFCURVE",
"258 411 CURVE SMOOTH",
"258 353 OFFCURVE",
"215 316 OFFCURVE",
"151 316 CURVE SMOOTH",
"110 316 OFFCURVE",
"67 331 OFFCURVE",
"37 349 CURVE",
"37 305 LINE",
"64 289 OFFCURVE",
"110 278 OFFCURVE",
"149 278 CURVE SMOOTH",
"179 278 OFFCURVE",
"205 284 OFFCURVE",
"228 295 CURVE SMOOTH",
"273 318 OFFCURVE",
"300 362 OFFCURVE",
"300 412 CURVE SMOOTH",
"300 459 OFFCURVE",
"272 496 OFFCURVE",
"229 506 CURVE",
"229 508 LINE",
"298 524 OFFCURVE",
"328 568 OFFCURVE",
"328 623 CURVE SMOOTH"
);
},
{
closed = 1;
nodes = (
"132 0 LINE",
"185 0 LINE",
"715 714 LINE",
"663 714 LINE"
);
}
);
width = 762;
}
);
note = threequarters;
unicode = 00BE;
},
{
glyphname = questiondown;
lastChange = "2018-06-23 23:45:44 +0000";
layers = (
{
layerId = "4082F5B4-16CD-4EE9-8420-2E9C5A704856";
paths = (
{
closed = 1;
nodes = (
"261 319 OFFCURVE",
"254 296 OFFCURVE",
"246 281 CURVE SMOOTH",
"230 250 OFFCURVE",
"200 221 OFFCURVE",
"145 181 CURVE SMOOTH",
"43 107 OFFCURVE",
"0 42 OFFCURVE",
"0 -44 CURVE SMOOTH",
"0 -138 OFFCURVE",
"63 -197 OFFCURVE",
"167 -197 CURVE SMOOTH",
"233 -197 OFFCURVE",
"287 -177 OFFCURVE",
"342 -145 CURVE",
"323 -103 LINE",
"269 -136 OFFCURVE",
"219 -152 OFFCURVE",
"173 -152 CURVE SMOOTH",
"95 -152 OFFCURVE",
"51 -108 OFFCURVE",
"51 -39 CURVE SMOOTH",
"51 -15 OFFCURVE",
"56 8 OFFCURVE",
"65 30 CURVE SMOOTH",
"84 73 OFFCURVE",
"116 108 OFFCURVE",
"193 163 CURVE SMOOTH",
"265 216 OFFCURVE",
"292 253 OFFCURVE",
"310 336 CURVE SMOOTH",
"313 350 LINE",
"268 350 LINE"
);
},
{
closed = 1;
nodes = (
"348 522 OFFCURVE",
"337 534 OFFCURVE",
"315 534 CURVE SMOOTH",
"288 534 OFFCURVE",
"270 511 OFFCURVE",
"270 474 CURVE SMOOTH",
"270 451 OFFCURVE",
"281 439 OFFCURVE",
"302 439 CURVE SMOOTH",
"331 439 OFFCURVE",
"348 461 OFFCURVE",
"348 498 CURVE SMOOTH"
);
}
);
width = 390;
}
);
note = questiondown;
unicode = 00BF;
},
{
glyphname = AE;
lastChange = "2018-06-23 23:45:44 +0000";
layers = (
{
anchors = (
{
name = bottom;
position = "{344, 0}";
},
{
name = top;
position = "{496, 714}";
}
);
layerId = "4082F5B4-16CD-4EE9-8420-2E9C5A704856";
paths = (
{
closed = 1;
nodes = (
"389 46 LINE",
"455 352 LINE",
"742 352 LINE",
"752 398 LINE",
"464 398 LINE",
"521 668 LINE",
"826 668 LINE",
"836 714 LINE",
"405 714 LINE",
"-57 0 LINE",
"7 0 LINE",
"167 255 LINE",
"384 255 LINE",
"330 0 LINE",
"685 0 LINE",
"695 46 LINE"
);
},
{
closed = 1;
nodes = (
"471 668 LINE",
"395 306 LINE",
"199 306 LINE",
"428 668 LINE"
);
}
);
width = 801;
}
);
note = AE;
unicode = 00C6;
},
{
glyphname = Eth;
lastChange = "2018-06-23 23:45:44 +0000";
layers = (
{
layerId = "4082F5B4-16CD-4EE9-8420-2E9C5A704856";
paths = (
{
closed = 1;
nodes = (
"629 617 OFFCURVE",
"534 714 OFFCURVE",
"350 714 CURVE SMOOTH",
"201 714 LINE",
"130 377 LINE",
"54 377 LINE",
"44 330 LINE",
"120 330 LINE",
"50 0 LINE",
"211 0 LINE SMOOTH",
"294 0 OFFCURVE",
"367 17 OFFCURVE",
"429 51 CURVE SMOOTH",
"553 119 OFFCURVE",
"629 265 OFFCURVE",
"629 429 CURVE SMOOTH"
);
},
{
closed = 1;
nodes = (
"169 330 LINE",
"354 330 LINE",
"364 377 LINE",
"179 377 LINE",
"242 669 LINE",
"343 669 LINE SMOOTH",
"498 669 OFFCURVE",
"575 588 OFFCURVE",
"575 426 CURVE SMOOTH",
"575 351 OFFCURVE",
"560 284 OFFCURVE",
"530 225 CURVE SMOOTH",
"470 107 OFFCURVE",
"357 44 OFFCURVE",
"210 44 CURVE SMOOTH",
"108 44 LINE"
);
}
);
width = 660;
}
);
note = Eth;
unicode = 00D0;
},
{
glyphname = multiply;
lastChange = "2018-06-23 23:45:44 +0000";
layers = (
{
layerId = "4082F5B4-16CD-4EE9-8420-2E9C5A704856";
paths = (
{
closed = 1;
nodes = (
"142 159 LINE",
"303 319 LINE",
"466 158 LINE",
"499 191 LINE",
"337 353 LINE",
"499 516 LINE",
"466 549 LINE",
"303 388 LINE",
"142 549 LINE",
"108 515 LINE",
"269 353 LINE",
"109 192 LINE"
);
}
);
width = 551;
}
);
note = multiply;
unicode = 00D7;
},
{
glyphname = Oslash;
lastChange = "2018-06-23 23:45:44 +0000";
layers = (
{
anchors = (
{
name = bottom;
position = "{301, 0}";
},
{
name = top;
position = "{453, 714}";
}
);
layerId = "4082F5B4-16CD-4EE9-8420-2E9C5A704856";
paths = (
{
closed = 1;
nodes = (
"685 518 OFFCURVE",
"666 599 OFFCURVE",
"636 632 CURVE",
"707 721 LINE",
"673 747 LINE",
"608 665 LINE",
"564 705 OFFCURVE",
"507 724 OFFCURVE",
"436 724 CURVE SMOOTH",
"368 724 OFFCURVE",
"308 706 OFFCURVE",
"255 668 CURVE SMOOTH",
"149 594 OFFCURVE",
"84 444 OFFCURVE",
"84 273 CURVE SMOOTH",
"84 191 OFFCURVE",
"103 125 OFFCURVE",
"139 77 CURVE",
"68 -7 LINE",
"100 -38 LINE",
"168 45 LINE",
"211 8 OFFCURVE",
"268 -10 OFFCURVE",
"338 -10 CURVE SMOOTH",
"443 -10 OFFCURVE",
"529 36 OFFCURVE",
"589 118 CURVE SMOOTH",
"649 200 OFFCURVE",
"685 323 OFFCURVE",
"685 445 CURVE SMOOTH"
);
},
{
closed = 1;
nodes = (
"492 678 OFFCURVE",
"542 660 OFFCURVE",
"576 623 CURVE",
"173 119 LINE",
"150 153 OFFCURVE",
"135 211 OFFCURVE",
"135 280 CURVE SMOOTH",
"135 385 OFFCURVE",
"167 494 OFFCURVE",
"218 566 CURVE SMOOTH",
"269 638 OFFCURVE",
"342 678 OFFCURVE",
"429 678 CURVE SMOOTH"
);
},
{
closed = 1;
nodes = (
"632 363 OFFCURVE",
"619 293 OFFCURVE",
"594 229 CURVE SMOOTH",
"542 101 OFFCURVE",
"455 35 OFFCURVE",
"344 35 CURVE SMOOTH",
"284 35 OFFCURVE",
"236 51 OFFCURVE",
"201 84 CURVE",
"602 587 LINE",
"619 560 OFFCURVE",
"632 495 OFFCURVE",
"632 440 CURVE SMOOTH"
);
}
);
width = 715;
}
);
note = Oslash;
unicode = 00D8;
},
{
glyphname = Thorn;
lastChange = "2018-06-23 23:45:44 +0000";
layers = (
{
anchors = (
{
name = bottom;
position = "{223, 0}";
},
{
name = top;
position = "{375, 714}";
}
);
layerId = "4082F5B4-16CD-4EE9-8420-2E9C5A704856";
paths = (
{
closed = 1;
nodes = (
"531 522 OFFCURVE",
"458 584 OFFCURVE",
"327 584 CURVE SMOOTH",
"223 584 LINE",
"251 714 LINE",
"201 714 LINE",
"50 0 LINE",
"100 0 LINE",
"135 164 LINE",
"233 164 LINE SMOOTH",
"431 164 OFFCURVE",
"531 248 OFFCURVE",
"531 408 CURVE SMOOTH"
);
},
{
closed = 1;
nodes = (
"317 539 LINE SMOOTH",
"424 539 OFFCURVE",
"478 494 OFFCURVE",
"478 405 CURVE SMOOTH",
"478 272 OFFCURVE",
"402 209 OFFCURVE",
"236 209 CURVE SMOOTH",
"143 209 LINE",
"214 539 LINE"
);
}
);
width = 559;
}
);
note = Thorn;
unicode = 00DE;
},
{
glyphname = germandbls;
lastChange = "2018-06-23 23:45:44 +0000";
layers = (
{
anchors = (
{
name = bottom;
position = "{210, 0}";
},
{
name = top;
position = "{324, 531}";
}
);
layerId = "4082F5B4-16CD-4EE9-8420-2E9C5A704856";
paths = (
{
closed = 1;
nodes = (
"-8 -240 OFFCURVE",
"38 -198 OFFCURVE",
"59 -99 CURVE SMOOTH",
"201 573 LINE SMOOTH",
"222 673 OFFCURVE",
"270 722 OFFCURVE",
"354 722 CURVE SMOOTH",
"416 722 OFFCURVE",
"454 694 OFFCURVE",
"454 649 CURVE SMOOTH",
"454 613 OFFCURVE",
"441 588 OFFCURVE",
"375 543 CURVE SMOOTH",
"343 520 OFFCURVE",
"321 501 OFFCURVE",
"308 488 CURVE SMOOTH",
"282 460 OFFCURVE",
"268 431 OFFCURVE",
"268 394 CURVE SMOOTH",
"268 349 OFFCURVE",
"291 318 OFFCURVE",
"344 281 CURVE SMOOTH",
"395 246 OFFCURVE",
"413 214 OFFCURVE",
"413 165 CURVE SMOOTH",
"413 84 OFFCURVE",
"360 35 OFFCURVE",
"274 35 CURVE SMOOTH",
"233 35 OFFCURVE",
"185 52 OFFCURVE",
"156 75 CURVE",
"156 22 LINE",
"186 1 OFFCURVE",
"224 -10 OFFCURVE",
"270 -10 CURVE SMOOTH",
"387 -10 OFFCURVE",
"462 59 OFFCURVE",
"462 170 CURVE SMOOTH",
"462 232 OFFCURVE",
"437 275 OFFCURVE",
"374 316 CURVE SMOOTH",
"335 341 OFFCURVE",
"312 363 OFFCURVE",
"312 396 CURVE SMOOTH",
"312 434 OFFCURVE",
"328 459 OFFCURVE",
"398 509 CURVE SMOOTH",
"478 563 OFFCURVE",
"501 601 OFFCURVE",
"501 650 CURVE SMOOTH",
"501 724 OFFCURVE",
"447 765 OFFCURVE",
"358 765 CURVE SMOOTH",
"252 765 OFFCURVE",
"186 707 OFFCURVE",
"160 591 CURVE SMOOTH",
"11 -97 LINE SMOOTH",
"-3 -164 OFFCURVE",
"-30 -197 OFFCURVE",
"-81 -197 CURVE SMOOTH",
"-101 -197 OFFCURVE",
"-120 -193 OFFCURVE",
"-137 -185 CURVE",
"-137 -229 LINE",
"-122 -236 OFFCURVE",
"-103 -240 OFFCURVE",
"-79 -240 CURVE SMOOTH"
);
}
);
width = 534;
}
);
note = germandbls;
unicode = 00DF;
},
{
glyphname = ae;
lastChange = "2018-06-23 23:45:44 +0000";
layers = (
{
anchors = (
{
name = bottom;
position = "{334, 0}";
},
{
name = top;
position = "{448, 531}";
}
);
layerId = "4082F5B4-16CD-4EE9-8420-2E9C5A704856";
paths = (
{
closed = 1;
nodes = (
"611 -10 OFFCURVE",
"652 0 OFFCURVE",
"704 24 CURVE",
"704 70 LINE",
"661 50 OFFCURVE",
"620 34 OFFCURVE",
"575 34 CURVE SMOOTH",
"479 34 OFFCURVE",
"435 95 OFFCURVE",
"435 200 CURVE SMOOTH",
"435 215 OFFCURVE",
"437 230 OFFCURVE",
"439 247 CURVE",
"458 247 LINE SMOOTH",
"661 247 OFFCURVE",
"765 308 OFFCURVE",
"765 425 CURVE SMOOTH",
"765 497 OFFCURVE",
"722 539 OFFCURVE",
"649 539 CURVE SMOOTH",
"580 539 OFFCURVE",
"523 505 OFFCURVE",
"478 438 CURVE",
"495 529 LINE",
"463 529 LINE",
"434 435 LINE",
"429 435 LINE",
"420 500 OFFCURVE",
"381 539 OFFCURVE",
"312 539 CURVE SMOOTH",
"263 539 OFFCURVE",
"218 523 OFFCURVE",
"178 491 CURVE SMOOTH",
"99 427 OFFCURVE",
"50 302 OFFCURVE",
"50 168 CURVE SMOOTH",
"50 53 OFFCURVE",
"91 -10 OFFCURVE",
"169 -10 CURVE SMOOTH",
"243 -10 OFFCURVE",
"302 32 OFFCURVE",
"363 124 CURVE",
"367 124 LINE",
"347 0 LINE",
"385 0 LINE",
"404 100 LINE",
"423 32 OFFCURVE",
"484 -10 OFFCURVE",
"564 -10 CURVE SMOOTH"
);
},
{
closed = 1;
nodes = (
"129 34 OFFCURVE",
"100 74 OFFCURVE",
"100 172 CURVE SMOOTH",
"100 232 OFFCURVE",
"109 288 OFFCURVE",
"128 338 CURVE SMOOTH",
"165 438 OFFCURVE",
"233 497 OFFCURVE",
"313 497 CURVE SMOOTH",
"373 497 OFFCURVE",
"406 450 OFFCURVE",
"406 373 CURVE SMOOTH",
"406 353 OFFCURVE",
"402 326 OFFCURVE",
"396 292 CURVE SMOOTH",
"383 225 OFFCURVE",
"354 161 OFFCURVE",
"313 112 CURVE SMOOTH",
"272 63 OFFCURVE",
"224 34 OFFCURVE",
"180 34 CURVE SMOOTH"
);
},
{
closed = 1;
nodes = (
"688 497 OFFCURVE",
"715 468 OFFCURVE",
"715 422 CURVE SMOOTH",
"715 333 OFFCURVE",
"641 290 OFFCURVE",
"469 290 CURVE SMOOTH",
"446 290 LINE",
"484 416 OFFCURVE",
"565 497 OFFCURVE",
"643 497 CURVE SMOOTH"
);
}
);
width = 782;
}
);
note = ae;
unicode = 00E6;
},
{
glyphname = eth;
lastChange = "2018-06-23 23:45:44 +0000";
layers = (
{
layerId = "4082F5B4-16CD-4EE9-8420-2E9C5A704856";
paths = (
{
closed = 1;
nodes = (
"228 554 LINE",
"372 634 LINE",
"419 573 OFFCURVE",
"449 464 OFFCURVE",
"449 374 CURVE",
"447 374 LINE",
"421 435 OFFCURVE",
"366 468 OFFCURVE",
"296 468 CURVE SMOOTH",
"248 468 OFFCURVE",
"206 456 OFFCURVE",
"168 433 CURVE SMOOTH",
"93 386 OFFCURVE",
"50 297 OFFCURVE",
"50 186 CURVE SMOOTH",
"50 63 OFFCURVE",
"119 -10 OFFCURVE",
"234 -10 CURVE SMOOTH",
"402 -10 OFFCURVE",
"498 128 OFFCURVE",
"498 359 CURVE SMOOTH",
"498 473 OFFCURVE",
"469 582 OFFCURVE",
"412 657 CURVE",
"537 726 LINE",
"518 762 LINE",
"388 689 LINE",
"355 724 OFFCURVE",
"321 750 OFFCURVE",
"300 767 CURVE",
"271 734 LINE",
"305 708 OFFCURVE",
"331 686 OFFCURVE",
"348 666 CURVE",
"209 590 LINE"
);
},
{
closed = 1;
nodes = (
"149 34 OFFCURVE",
"100 90 OFFCURVE",
"100 190 CURVE SMOOTH",
"100 235 OFFCURVE",
"108 276 OFFCURVE",
"124 311 CURVE SMOOTH",
"155 381 OFFCURVE",
"214 424 OFFCURVE",
"295 424 CURVE SMOOTH",
"325 424 OFFCURVE",
"350 418 OFFCURVE",
"371 406 CURVE SMOOTH",
"414 382 OFFCURVE",
"437 337 OFFCURVE",
"437 287 CURVE SMOOTH",
"437 240 OFFCURVE",
"428 196 OFFCURVE",
"411 155 CURVE SMOOTH",
"376 73 OFFCURVE",
"315 34 OFFCURVE",
"239 34 CURVE SMOOTH"
);
}
);
width = 549;
}
);
note = eth;
unicode = 00F0;
},
{
glyphname = divide;
lastChange = "2018-06-23 23:45:44 +0000";
layers = (
{
layerId = "4082F5B4-16CD-4EE9-8420-2E9C5A704856";
paths = (
{
closed = 1;
nodes = (
"523 377 LINE",
"82 377 LINE",
"82 328 LINE",
"523 328 LINE"
);
},
{
closed = 1;
nodes = (
"255 147 OFFCURVE",
"271 130 OFFCURVE",
"302 130 CURVE SMOOTH",
"329 130 OFFCURVE",
"350 145 OFFCURVE",
"350 182 CURVE SMOOTH",
"350 215 OFFCURVE",
"333 234 OFFCURVE",
"302 234 CURVE SMOOTH",
"271 234 OFFCURVE",
"255 217 OFFCURVE",
"255 182 CURVE SMOOTH"
);
},
{
closed = 1;
nodes = (
"255 488 OFFCURVE",
"271 471 OFFCURVE",
"302 471 CURVE SMOOTH",
"329 471 OFFCURVE",
"350 486 OFFCURVE",
"350 523 CURVE SMOOTH",
"350 557 OFFCURVE",
"332 575 OFFCURVE",
"302 575 CURVE SMOOTH",
"271 575 OFFCURVE",
"255 558 OFFCURVE",
"255 523 CURVE SMOOTH"
);
}
);
width = 551;
}
);
note = divide;
unicode = 00F7;
},
{
glyphname = oslash;
lastChange = "2018-06-23 23:45:44 +0000";
layers = (
{
anchors = (
{
name = top;
position = "{331, 531}";
}
);
layerId = "4082F5B4-16CD-4EE9-8420-2E9C5A704856";
paths = (
{
closed = 1;
nodes = (
"53 -35 LINE",
"107 31 LINE",
"137 4 OFFCURVE",
"178 -10 OFFCURVE",
"231 -10 CURVE SMOOTH",
"284 -10 OFFCURVE",
"330 5 OFFCURVE",
"371 34 CURVE SMOOTH",
"451 93 OFFCURVE",
"501 213 OFFCURVE",
"501 342 CURVE SMOOTH",
"501 393 OFFCURVE",
"490 436 OFFCURVE",
"467 470 CURVE",
"524 540 LINE",
"492 566 LINE",
"439 501 LINE",
"406 528 OFFCURVE",
"366 541 OFFCURVE",
"317 541 CURVE SMOOTH",
"266 541 OFFCURVE",
"220 526 OFFCURVE",
"180 497 CURVE SMOOTH",
"99 438 OFFCURVE",
"48 321 OFFCURVE",
"48 197 CURVE SMOOTH",
"48 142 OFFCURVE",
"59 97 OFFCURVE",
"80 62 CURVE",
"22 -9 LINE"
);
},
{
closed = 1;
nodes = (
"451 284 OFFCURVE",
"442 230 OFFCURVE",
"423 182 CURVE SMOOTH",
"385 83 OFFCURVE",
"318 32 OFFCURVE",
"236 32 CURVE SMOOTH",
"192 32 OFFCURVE",
"159 44 OFFCURVE",
"137 68 CURVE",
"434 430 LINE",
"445 405 OFFCURVE",
"451 375 OFFCURVE",
"451 343 CURVE SMOOTH"
);
},
{
closed = 1;
nodes = (
"353 499 OFFCURVE",
"385 487 OFFCURVE",
"409 464 CURVE",
"114 103 LINE",
"104 126 OFFCURVE",
"98 159 OFFCURVE",
"98 199 CURVE SMOOTH",
"98 252 OFFCURVE",
"108 303 OFFCURVE",
"127 351 CURVE SMOOTH",
"166 446 OFFCURVE",
"232 499 OFFCURVE",
"313 499 CURVE SMOOTH"
);
}
);
width = 549;
}
);
note = oslash;
unicode = 00F8;
},
{
glyphname = thorn;
lastChange = "2018-06-23 23:45:44 +0000";
layers = (
{
anchors = (
{
name = bottom;
position = "{228, 0}";
},
{
name = top;
position = "{341, 531}";
}
);
layerId = "4082F5B4-16CD-4EE9-8420-2E9C5A704856";
paths = (
{
closed = 1;
nodes = (
"294 -8 OFFCURVE",
"341 9 OFFCURVE",
"382 42 CURVE SMOOTH",
"463 107 OFFCURVE",
"513 231 OFFCURVE",
"513 358 CURVE SMOOTH",
"513 481 OFFCURVE",
"463 541 OFFCURVE",
"377 541 CURVE SMOOTH",
"295 541 OFFCURVE",
"228 495 OFFCURVE",
"167 393 CURVE",
"164 393 LINE",
"180 463 OFFCURVE",
"207 585 OFFCURVE",
"244 760 CURVE",
"196 760 LINE",
"-16 -240 LINE",
"32 -240 LINE",
"77 -38 OFFCURVE",
"101 76 OFFCURVE",
"105 99 CURVE",
"107 99 LINE",
"123 28 OFFCURVE",
"168 -8 OFFCURVE",
"243 -8 CURVE SMOOTH"
);
},
{
closed = 1;
nodes = (
"430 497 OFFCURVE",
"463 449 OFFCURVE",
"463 353 CURVE SMOOTH",
"463 299 OFFCURVE",
"453 246 OFFCURVE",
"432 194 CURVE SMOOTH",
"391 90 OFFCURVE",
"323 34 OFFCURVE",
"242 34 CURVE SMOOTH",
"172 34 OFFCURVE",
"130 87 OFFCURVE",
"130 169 CURVE SMOOTH",
"130 222 OFFCURVE",
"152 313 OFFCURVE",
"202 386 CURVE SMOOTH",
"251 459 OFFCURVE",
"309 497 OFFCURVE",
"365 497 CURVE SMOOTH"
);
}
);
width = 568;
}
);
note = thorn;
unicode = 00FE;
},
{
glyphname = dcroat;
lastChange = "2018-06-23 23:45:44 +0000";
layers = (
{
layerId = "4082F5B4-16CD-4EE9-8420-2E9C5A704856";
paths = (
{
closed = 1;
nodes = (
"269 539 OFFCURVE",
"222 522 OFFCURVE",
"181 490 CURVE SMOOTH",
"99 423 OFFCURVE",
"50 298 OFFCURVE",
"50 173 CURVE SMOOTH",
"50 51 OFFCURVE",
"96 -10 OFFCURVE",
"187 -10 CURVE SMOOTH",
"269 -10 OFFCURVE",
"338 38 OFFCURVE",
"394 134 CURVE",
"397 134 LINE",
"375 0 LINE",
"415 0 LINE",
"547 621 LINE",
"622 621 LINE",
"632 662 LINE",
"555 662 LINE",
"576 760 LINE",
"528 760 LINE",
"507 662 LINE",
"311 662 LINE",
"301 621 LINE",
"498 621 LINE",
"474 509 OFFCURVE",
"460 446 OFFCURVE",
"458 432 CURVE",
"456 432 LINE",
"439 503 OFFCURVE",
"394 539 OFFCURVE",
"320 539 CURVE SMOOTH"
);
},
{
closed = 1;
nodes = (
"133 34 OFFCURVE",
"100 82 OFFCURVE",
"100 178 CURVE SMOOTH",
"100 233 OFFCURVE",
"110 286 OFFCURVE",
"131 338 CURVE SMOOTH",
"173 442 OFFCURVE",
"240 497 OFFCURVE",
"321 497 CURVE SMOOTH",
"391 497 OFFCURVE",
"433 444 OFFCURVE",
"433 362 CURVE SMOOTH",
"433 307 OFFCURVE",
"410 215 OFFCURVE",
"364 147 CURVE SMOOTH",
"318 78 OFFCURVE",
"256 34 OFFCURVE",
"198 34 CURVE SMOOTH"
);
}
);
width = 568;
}
);
note = dcroat;
unicode = 0111;
},
{
glyphname = Hbar;
lastChange = "2018-06-23 23:45:44 +0000";
layers = (
{
layerId = "4082F5B4-16CD-4EE9-8420-2E9C5A704856";
paths = (
{
closed = 1;
nodes = (
"621 714 LINE",
"592 578 LINE",
"222 578 LINE",
"251 714 LINE",
"201 714 LINE",
"172 578 LINE",
"79 578 LINE",
"69 534 LINE",
"163 534 LINE",
"50 0 LINE",
"100 0 LINE",
"173 351 LINE",
"544 351 LINE",
"470 0 LINE",
"519 0 LINE",
"632 534 LINE",
"728 534 LINE",
"738 578 LINE",
"641 578 LINE",
"670 714 LINE"
);
},
{
closed = 1;
nodes = (
"212 534 LINE",
"583 534 LINE",
"554 397 LINE",
"183 397 LINE"
);
}
);
width = 667;
}
);
note = Hbar;
unicode = 0126;
},
{
glyphname = hbar;
lastChange = "2018-06-23 23:45:44 +0000";
layers = (
{
layerId = "4082F5B4-16CD-4EE9-8420-2E9C5A704856";
paths = (
{
closed = 1;
nodes = (
"494 337 LINE SMOOTH",
"501 372 OFFCURVE",
"505 400 OFFCURVE",
"505 420 CURVE SMOOTH",
"505 498 OFFCURVE",
"459 539 OFFCURVE",
"375 539 CURVE SMOOTH",
"299 539 OFFCURVE",
"237 507 OFFCURVE",
"177 427 CURVE",
"172 427 LINE",
"180 457 OFFCURVE",
"196 523 OFFCURVE",
"218 626 CURVE",
"400 626 LINE",
"408 664 LINE",
"226 664 LINE",
"246 760 LINE",
"198 760 LINE",
"178 664 LINE",
"108 664 LINE",
"100 626 LINE",
"170 626 LINE",
"37 0 LINE",
"85 0 LINE",
"134 235 LINE SMOOTH",
"167 400 OFFCURVE",
"256 497 OFFCURVE",
"367 497 CURVE SMOOTH",
"423 497 OFFCURVE",
"456 470 OFFCURVE",
"456 417 CURVE SMOOTH",
"456 399 OFFCURVE",
"453 374 OFFCURVE",
"446 341 CURVE SMOOTH",
"371 0 LINE",
"421 0 LINE"
);
}
);
width = 563;
}
);
note = hbar;
unicode = 0127;
},
{
glyphname = dotlessi;
lastChange = "2018-06-23 23:45:44 +0000";
layers = (
{
anchors = (
{
name = bottom;
position = "{60, 0}";
},
{
name = ogonek;
position = "{152, 5}";
},
{
name = top;
position = "{173, 531}";
}
);
layerId = "4082F5B4-16CD-4EE9-8420-2E9C5A704856";
paths = (
{
closed = 1;
nodes = (
"150 531 LINE",
"37 0 LINE",
"85 0 LINE",
"197 531 LINE"
);
}
);
width = 232;
}
);
note = dotlessi;
unicode = 0131;
},
{
glyphname = kgreenlandic;
lastChange = "2018-06-23 23:45:44 +0000";
layers = (
{
anchors = (
{
name = bottom;
position = "{174, 0}";
},
{
name = top;
position = "{287, 531}";
}
);
layerId = "4082F5B4-16CD-4EE9-8420-2E9C5A704856";
paths = (
{
closed = 1;
nodes = (
"164 379 LINE",
"196 531 LINE",
"149 531 LINE",
"37 0 LINE",
"84 0 LINE",
"123 181 LINE",
"223 273 LINE",
"352 0 LINE",
"404 0 LINE",
"259 302 LINE",
"490 531 LINE",
"429 531 LINE",
"132 233 LINE",
"130 233 LINE"
);
}
);
width = 461;
}
);
note = kgreenlandic;
unicode = 0138;
},
{
glyphname = Lslash;
lastChange = "2018-06-23 23:45:44 +0000";
layers = (
{
layerId = "4082F5B4-16CD-4EE9-8420-2E9C5A704856";
paths = (
{
closed = 1;
nodes = (
"413 47 LINE",
"110 47 LINE",
"160 287 LINE",
"333 391 LINE",
"312 428 LINE",
"173 345 LINE",
"251 714 LINE",
"201 714 LINE",
"116 313 LINE",
"19 255 LINE",
"38 217 LINE",
"104 256 LINE",
"49 0 LINE",
"402 0 LINE"
);
}
);
width = 450;
}
);
note = Lslash;
unicode = 0141;
},
{
glyphname = lslash;
lastChange = "2018-06-23 23:45:44 +0000";
layers = (
{
layerId = "4082F5B4-16CD-4EE9-8420-2E9C5A704856";
paths = (
{
closed = 1;
nodes = (
"200 760 LINE",
"117 377 LINE",
"5 311 LINE",
"23 276 LINE",
"106 324 LINE",
"37 0 LINE",
"83 0 LINE",
"159 355 LINE",
"280 424 LINE",
"260 459 LINE",
"171 408 LINE",
"246 760 LINE"
);
}
);
width = 210;
}
);
note = lslash;
unicode = 0142;
},
{
glyphname = Eng;
lastChange = "2018-06-23 23:45:44 +0000";
layers = (
{
layerId = "4082F5B4-16CD-4EE9-8420-2E9C5A704856";
paths = (
{
closed = 1;
nodes = (
"442 -176 OFFCURVE",
"497 -119 OFFCURVE",
"524 9 CURVE SMOOTH",
"673 714 LINE",
"627 714 LINE",
"535 285 LINE SMOOTH",
"519 207 OFFCURVE",
"506 139 OFFCURVE",
"499 82 CURVE",
"495 82 LINE",
"240 714 LINE",
"201 714 LINE",
"50 0 LINE",
"96 0 LINE",
"158 289 OFFCURVE",
"192 453 OFFCURVE",
"201 494 CURVE SMOOTH",
"209 534 OFFCURVE",
"217 579 OFFCURVE",
"224 627 CURVE",
"228 627 LINE",
"475 11 LINE",
"452 -91 OFFCURVE",
"416 -129 OFFCURVE",
"342 -129 CURVE SMOOTH",
"316 -129 OFFCURVE",
"294 -125 OFFCURVE",
"275 -119 CURVE",
"270 -164 LINE",
"279 -168 OFFCURVE",
"316 -176 OFFCURVE",
"340 -176 CURVE SMOOTH"
);
}
);
width = 674;
}
);
note = Eng;
unicode = 014A;
},
{
glyphname = eng;
lastChange = "2018-06-23 23:45:44 +0000";
layers = (
{
layerId = "4082F5B4-16CD-4EE9-8420-2E9C5A704856";
paths = (
{
closed = 1;
nodes = (
"334 -240 OFFCURVE",
"379 -197 OFFCURVE",
"402 -90 CURVE SMOOTH",
"493 329 LINE SMOOTH",
"501 366 OFFCURVE",
"505 395 OFFCURVE",
"505 418 CURVE SMOOTH",
"505 496 OFFCURVE",
"462 539 OFFCURVE",
"378 539 CURVE SMOOTH",
"296 539 OFFCURVE",
"228 500 OFFCURVE",
"175 423 CURVE",
"172 423 LINE",
"190 531 LINE",
"150 531 LINE",
"37 0 LINE",
"85 0 LINE",
"135 233 LINE SMOOTH",
"146 287 OFFCURVE",
"164 333 OFFCURVE",
"186 373 CURVE SMOOTH",
"229 451 OFFCURVE",
"296 497 OFFCURVE",
"369 497 CURVE SMOOTH",
"428 497 OFFCURVE",
"456 466 OFFCURVE",
"456 414 CURVE SMOOTH",
"456 393 OFFCURVE",
"453 368 OFFCURVE",
"446 338 CURVE SMOOTH",
"355 -85 LINE SMOOTH",
"338 -167 OFFCURVE",
"311 -197 OFFCURVE",
"258 -197 CURVE SMOOTH",
"237 -197 OFFCURVE",
"218 -193 OFFCURVE",
"203 -186 CURVE",
"203 -231 LINE",
"218 -237 OFFCURVE",
"237 -240 OFFCURVE",
"258 -240 CURVE SMOOTH"
);
}
);
width = 563;
}
);
note = eng;
unicode = 014B;
},
{
glyphname = OE;
lastChange = "2018-06-23 23:45:44 +0000";
layers = (
{
anchors = (
{
name = bottom;
position = "{375, 0}";
},
{
name = top;
position = "{527, 714}";
}
);
layerId = "4082F5B4-16CD-4EE9-8420-2E9C5A704856";
paths = (
{
closed = 1;
nodes = (
"451 46 LINE",
"517 352 LINE",
"804 352 LINE",
"814 398 LINE",
"526 398 LINE",
"583 668 LINE",
"888 668 LINE",
"898 714 LINE",
"562 714 LINE",
"526 721 OFFCURVE",
"487 724 OFFCURVE",
"445 724 CURVE SMOOTH",
"375 724 OFFCURVE",
"313 706 OFFCURVE",
"259 670 CURVE SMOOTH",
"151 597 OFFCURVE",
"84 444 OFFCURVE",
"84 273 CURVE SMOOTH",
"84 91 OFFCURVE",
"174 -10 OFFCURVE",
"338 -10 CURVE SMOOTH",
"365 -10 OFFCURVE",
"406 -4 OFFCURVE",
"422 0 CURVE",
"747 0 LINE",
"757 46 LINE"
);
},
{
closed = 1;
nodes = (
"207 35 OFFCURVE",
"135 120 OFFCURVE",
"135 280 CURVE SMOOTH",
"135 354 OFFCURVE",
"148 423 OFFCURVE",
"175 487 CURVE SMOOTH",
"229 614 OFFCURVE",
"322 678 OFFCURVE",
"441 678 CURVE SMOOTH",
"467 678 OFFCURVE",
"498 676 OFFCURVE",
"533 671 CURVE",
"401 41 LINE",
"385 37 OFFCURVE",
"366 35 OFFCURVE",
"344 35 CURVE SMOOTH"
);
}
);
width = 863;
}
);
note = OE;
unicode = 0152;
},
{
glyphname = oe;
lastChange = "2018-06-23 23:45:44 +0000";
layers = (
{
anchors = (
{
name = bottom;
position = "{363, 0}";
},
{
name = top;
position = "{477, 531}";
}
);
layerId = "4082F5B4-16CD-4EE9-8420-2E9C5A704856";
paths = (
{
closed = 1;
nodes = (
"668 -10 OFFCURVE",
"717 1 OFFCURVE",
"762 24 CURVE",
"762 70 LINE",
"715 46 OFFCURVE",
"670 34 OFFCURVE",
"627 34 CURVE SMOOTH",
"537 34 OFFCURVE",
"487 92 OFFCURVE",
"487 199 CURVE SMOOTH",
"487 219 OFFCURVE",
"488 235 OFFCURVE",
"490 247 CURVE",
"506 247 LINE SMOOTH",
"716 247 OFFCURVE",
"823 311 OFFCURVE",
"823 428 CURVE SMOOTH",
"823 497 OFFCURVE",
"775 539 OFFCURVE",
"701 539 CURVE SMOOTH",
"617 539 OFFCURVE",
"540 487 OFFCURVE",
"494 401 CURVE",
"475 491 OFFCURVE",
"409 541 OFFCURVE",
"317 541 CURVE SMOOTH",
"266 541 OFFCURVE",
"220 526 OFFCURVE",
"180 497 CURVE SMOOTH",
"99 438 OFFCURVE",
"48 321 OFFCURVE",
"48 197 CURVE SMOOTH",
"48 64 OFFCURVE",
"111 -10 OFFCURVE",
"231 -10 CURVE SMOOTH",
"324 -10 OFFCURVE",
"401 40 OFFCURVE",
"444 122 CURVE",
"465 36 OFFCURVE",
"528 -10 OFFCURVE",
"616 -10 CURVE SMOOTH"
);
},
{
closed = 1;
nodes = (
"402 499 OFFCURVE",
"451 443 OFFCURVE",
"451 343 CURVE SMOOTH",
"451 284 OFFCURVE",
"442 230 OFFCURVE",
"423 182 CURVE SMOOTH",
"385 83 OFFCURVE",
"318 32 OFFCURVE",
"236 32 CURVE SMOOTH",
"144 32 OFFCURVE",
"98 88 OFFCURVE",
"98 199 CURVE SMOOTH",
"98 252 OFFCURVE",
"108 303 OFFCURVE",
"127 351 CURVE SMOOTH",
"166 446 OFFCURVE",
"232 499 OFFCURVE",
"313 499 CURVE SMOOTH"
);
},
{
closed = 1;
nodes = (
"741 497 OFFCURVE",
"773 467 OFFCURVE",
"773 422 CURVE SMOOTH",
"773 334 OFFCURVE",
"689 290 OFFCURVE",
"521 290 CURVE SMOOTH",
"497 290 LINE",
"530 417 OFFCURVE",
"609 497 OFFCURVE",
"695 497 CURVE SMOOTH"
);
}
);
width = 840;
}
);
note = oe;
unicode = 0153;
},
{
glyphname = Tbar;
lastChange = "2018-06-23 23:45:44 +0000";
layers = (
{
layerId = "4082F5B4-16CD-4EE9-8420-2E9C5A704856";
paths = (
{
closed = 1;
nodes = (
"238 352 LINE",
"164 0 LINE",
"214 0 LINE",
"288 352 LINE",
"449 352 LINE",
"458 392 LINE",
"296 392 LINE",
"355 668 LINE",
"570 668 LINE",
"579 714 LINE",
"104 714 LINE",
"94 668 LINE",
"305 668 LINE",
"247 392 LINE",
"89 392 LINE",
"80 352 LINE"
);
}
);
width = 481;
}
);
note = Tbar;
unicode = 0166;
},
{
glyphname = tbar;
lastChange = "2018-06-23 23:45:44 +0000";
layers = (
{
layerId = "4082F5B4-16CD-4EE9-8420-2E9C5A704856";
paths = (
{
closed = 1;
nodes = (
"101 292 LINE",
"79 186 LINE SMOOTH",
"71 150 OFFCURVE",
"67 120 OFFCURVE",
"67 94 CURVE SMOOTH",
"67 32 OFFCURVE",
"106 -10 OFFCURVE",
"170 -10 CURVE SMOOTH",
"192 -10 OFFCURVE",
"235 -2 OFFCURVE",
"251 4 CURVE",
"251 46 LINE",
"224 38 OFFCURVE",
"199 33 OFFCURVE",
"177 33 CURVE SMOOTH",
"134 33 OFFCURVE",
"115 61 OFFCURVE",
"115 98 CURVE SMOOTH",
"115 121 OFFCURVE",
"119 149 OFFCURVE",
"126 181 CURVE SMOOTH",
"149 292 LINE",
"271 292 LINE",
"280 332 LINE",
"158 332 LINE",
"192 491 LINE",
"330 491 LINE",
"339 531 LINE",
"199 531 LINE",
"226 656 LINE",
"199 656 LINE",
"152 532 LINE",
"62 524 LINE",
"55 491 LINE",
"144 491 LINE",
"110 332 LINE",
"31 332 LINE",
"22 292 LINE"
);
}
);
width = 280;
}
);
note = tbar;
unicode = 0167;
},
{
glyphname = longs;
lastChange = "2018-06-23 23:45:44 +0000";
layers = (
{
anchors = (
{
name = bottom;
position = "{59, 0}";
},
{
name = top;
position = "{172, 531}";
}
);
layerId = "4082F5B4-16CD-4EE9-8420-2E9C5A704856";
paths = (
{
closed = 1;
nodes = (
"-9 -240 OFFCURVE",
"35 -195 OFFCURVE",
"56 -90 CURVE SMOOTH",
"204 611 LINE SMOOTH",
"222 693 OFFCURVE",
"258 724 OFFCURVE",
"320 724 CURVE SMOOTH",
"340 724 OFFCURVE",
"364 720 OFFCURVE",
"392 711 CURVE",
"404 750 LINE",
"388 756 OFFCURVE",
"349 765 OFFCURVE",
"323 765 CURVE SMOOTH",
"228 765 OFFCURVE",
"180 719 OFFCURVE",
"155 609 CURVE SMOOTH",
"11 -78 LINE SMOOTH",
"-8 -165 OFFCURVE",
"-34 -195 OFFCURVE",
"-91 -195 CURVE SMOOTH",
"-106 -195 OFFCURVE",
"-123 -192 OFFCURVE",
"-140 -187 CURVE",
"-140 -231 LINE",
"-123 -237 OFFCURVE",
"-106 -240 OFFCURVE",
"-90 -240 CURVE SMOOTH"
);
}
);
width = 231;
}
);
note = longs;
unicode = 017F;
},
{
glyphname = florin;
lastChange = "2018-06-23 23:45:44 +0000";
layers = (
{
layerId = "4082F5B4-16CD-4EE9-8420-2E9C5A704856";
paths = (
{
closed = 1;
nodes = (
"130 -240 OFFCURVE",
"175 -197 OFFCURVE",
"197 -90 CURVE SMOOTH",
"305 419 LINE",
"426 419 LINE",
"434 459 LINE",
"313 459 LINE",
"336 570 LINE SMOOTH",
"354 651 OFFCURVE",
"390 683 OFFCURVE",
"452 683 CURVE SMOOTH",
"472 683 OFFCURVE",
"496 679 OFFCURVE",
"524 670 CURVE",
"536 709 LINE",
"506 719 OFFCURVE",
"479 724 OFFCURVE",
"455 724 CURVE SMOOTH",
"360 724 OFFCURVE",
"310 677 OFFCURVE",
"287 568 CURVE SMOOTH",
"264 459 LINE",
"164 452 LINE",
"157 419 LINE",
"257 419 LINE",
"152 -78 LINE SMOOTH",
"133 -165 OFFCURVE",
"107 -195 OFFCURVE",
"50 -195 CURVE SMOOTH",
"35 -195 OFFCURVE",
"18 -192 OFFCURVE",
"1 -187 CURVE",
"1 -231 LINE",
"19 -237 OFFCURVE",
"35 -240 OFFCURVE",
"51 -240 CURVE SMOOTH"
);
}
);
width = 551;
}
);
note = florin;
unicode = 0192;
},
{
glyphname = Aringacute;
lastChange = "2018-06-23 23:45:44 +0000";
layers = (
{
layerId = "4082F5B4-16CD-4EE9-8420-2E9C5A704856";
paths = (
{
closed = 1;
nodes = (
"453 765 OFFCURVE",
"417 802 OFFCURVE",
"356 802 CURVE SMOOTH",
"298 802 OFFCURVE",
"255 762 OFFCURVE",
"255 703 CURVE SMOOTH",
"255 668 OFFCURVE",
"270 640 OFFCURVE",
"294 623 CURVE",
"-54 0 LINE",
"3 0 LINE",
"143 254 LINE",
"393 254 LINE",
"427 0 LINE",
"478 0 LINE",
"394 615 LINE",
"433 629 OFFCURVE",
"453 665 OFFCURVE",
"453 706 CURVE SMOOTH"
);
},
{
closed = 1;
nodes = (
"250 450 OFFCURVE",
"297 534 OFFCURVE",
"307 553 CURVE SMOOTH",
"316 572 OFFCURVE",
"326 590 OFFCURVE",
"335 608 CURVE",
"351 608 LINE",
"355 547 OFFCURVE",
"361 491 OFFCURVE",
"368 441 CURVE SMOOTH",
"387 299 LINE",
"168 299 LINE"
);
},
{
closed = 1;
nodes = (
"416 667 OFFCURVE",
"392 644 OFFCURVE",
"355 644 CURVE SMOOTH",
"316 644 OFFCURVE",
"294 667 OFFCURVE",
"294 705 CURVE SMOOTH",
"294 742 OFFCURVE",
"320 766 OFFCURVE",
"355 766 CURVE SMOOTH",
"394 766 OFFCURVE",
"416 742 OFFCURVE",
"416 705 CURVE SMOOTH"
);
},
{
closed = 1;
nodes = (
"363 834 LINE",
"419 869 OFFCURVE",
"497 937 OFFCURVE",
"534 983 CURVE",
"534 994 LINE",
"467 994 LINE",
"438 946 OFFCURVE",
"373 877 OFFCURVE",
"330 844 CURVE",
"330 834 LINE"
);
}
);
width = 517;
}
);
note = Aringacute;
unicode = 01FA;
},
{
glyphname = circumflex;
lastChange = "2018-06-23 23:45:44 +0000";
layers = (
{
layerId = "4082F5B4-16CD-4EE9-8420-2E9C5A704856";
paths = (
{
closed = 1;
nodes = (
"440 658 OFFCURVE",
"402 725 OFFCURVE",
"387 766 CURVE",
"356 766 LINE",
"331 729 OFFCURVE",
"261 657 OFFCURVE",
"217 620 CURVE",
"217 606 LINE",
"243 606 LINE",
"279 629 OFFCURVE",
"330 670 OFFCURVE",
"365 707 CURVE",
"395 659 OFFCURVE",
"421 625 OFFCURVE",
"444 606 CURVE",
"468 606 LINE",
"468 620 LINE"
);
}
);
width = 554;
}
);
note = circumflex;
unicode = 02C6;
},
{
glyphname = caron;
lastChange = "2018-06-23 23:45:44 +0000";
layers = (
{
layerId = "4082F5B4-16CD-4EE9-8420-2E9C5A704856";
paths = (
{
closed = 1;
nodes = (
"278 715 OFFCURVE",
"313 654 OFFCURVE",
"332 606 CURVE",
"363 606 LINE",
"390 646 OFFCURVE",
"458 716 OFFCURVE",
"502 752 CURVE",
"502 766 LINE",
"476 766 LINE",
"440 743 OFFCURVE",
"390 702 OFFCURVE",
"354 665 CURVE",
"325 712 OFFCURVE",
"298 746 OFFCURVE",
"275 766 CURVE",
"251 766 LINE",
"251 752 LINE"
);
}
);
width = 554;
}
);
note = caron;
unicode = 02C7;
},
{
glyphname = macron;
lastChange = "2018-06-23 23:45:44 +0000";
layers = (
{
layerId = "4082F5B4-16CD-4EE9-8420-2E9C5A704856";
paths = (
{
closed = 1;
nodes = (
"451 608 LINE",
"460 651 LINE",
"212 651 LINE",
"203 608 LINE"
);
}
);
width = 535;
}
);
note = macron;
unicode = 02C9;
},
{
glyphname = breve;
lastChange = "2018-06-23 23:45:44 +0000";
layers = (
{
layerId = "4082F5B4-16CD-4EE9-8420-2E9C5A704856";
paths = (
{
closed = 1;
nodes = (
"441 673 OFFCURVE",
"408 656 OFFCURVE",
"353 656 CURVE SMOOTH",
"297 656 OFFCURVE",
"276 679 OFFCURVE",
"276 723 CURVE",
"242 723 LINE",
"241 713 LINE",
"241 703 LINE SMOOTH",
"241 643 OFFCURVE",
"281 609 OFFCURVE",
"349 609 CURVE SMOOTH",
"427 609 OFFCURVE",
"473 645 OFFCURVE",
"492 723 CURVE",
"457 723 LINE"
);
}
);
width = 554;
}
);
note = breve;
unicode = 02D8;
},
{
glyphname = dotaccent;
lastChange = "2018-06-23 23:45:44 +0000";
layers = (
{
layerId = "4082F5B4-16CD-4EE9-8420-2E9C5A704856";
paths = (
{
closed = 1;
nodes = (
"159 643 OFFCURVE",
"169 631 OFFCURVE",
"188 631 CURVE SMOOTH",
"211 631 OFFCURVE",
"227 653 OFFCURVE",
"227 691 CURVE SMOOTH",
"227 714 OFFCURVE",
"218 726 OFFCURVE",
"199 726 CURVE SMOOTH",
"174 726 OFFCURVE",
"159 704 OFFCURVE",
"159 667 CURVE SMOOTH"
);
}
);
width = 215;
}
);
note = dotaccent;
unicode = 02D9;
},
{
glyphname = ring;
lastChange = "2018-06-23 23:45:44 +0000";
layers = (
{
layerId = "4082F5B4-16CD-4EE9-8420-2E9C5A704856";
paths = (
{
closed = 1;
nodes = (
"472 767 OFFCURVE",
"433 801 OFFCURVE",
"376 801 CURVE SMOOTH",
"317 801 OFFCURVE",
"274 760 OFFCURVE",
"274 703 CURVE SMOOTH",
"274 643 OFFCURVE",
"313 607 OFFCURVE",
"373 607 CURVE SMOOTH",
"430 607 OFFCURVE",
"472 647 OFFCURVE",
"472 707 CURVE SMOOTH"
);
},
{
closed = 1;
nodes = (
"434 669 OFFCURVE",
"410 643 OFFCURVE",
"373 643 CURVE SMOOTH",
"336 643 OFFCURVE",
"313 666 OFFCURVE",
"313 703 CURVE SMOOTH",
"313 740 OFFCURVE",
"336 766 OFFCURVE",
"375 766 CURVE SMOOTH",
"410 766 OFFCURVE",
"434 743 OFFCURVE",
"434 706 CURVE SMOOTH"
);
}
);
width = 577;
}
);
note = ring;
unicode = 02DA;
},
{
glyphname = ogonek;
lastChange = "2018-06-23 23:45:44 +0000";
layers = (
{
layerId = "4082F5B4-16CD-4EE9-8420-2E9C5A704856";
paths = (
{
closed = 1;
nodes = (
"-39 -47 OFFCURVE",
"-66 -86 OFFCURVE",
"-66 -131 CURVE SMOOTH",
"-66 -176 OFFCURVE",
"-38 -202 OFFCURVE",
"11 -202 CURVE SMOOTH",
"30 -202 OFFCURVE",
"46 -200 OFFCURVE",
"59 -195 CURVE",
"59 -160 LINE",
"45 -164 OFFCURVE",
"33 -165 OFFCURVE",
"22 -165 CURVE SMOOTH",
"-7 -165 OFFCURVE",
"-21 -152 OFFCURVE",
"-21 -125 CURVE SMOOTH",
"-21 -90 OFFCURVE",
"-1 -60 OFFCURVE",
"39 -29 CURVE SMOOTH",
"75 0 LINE",
"40 0 LINE"
);
}
);
width = 170;
}
);
note = ogonek;
unicode = 02DB;
},
{
glyphname = tilde;
lastChange = "2018-06-23 23:45:44 +0000";
layers = (
{
layerId = "4082F5B4-16CD-4EE9-8420-2E9C5A704856";
paths = (
{
closed = 1;
nodes = (
"455 610 OFFCURVE",
"486 645 OFFCURVE",
"503 721 CURVE",
"466 721 LINE",
"454 676 OFFCURVE",
"436 657 OFFCURVE",
"408 657 CURVE SMOOTH",
"395 657 OFFCURVE",
"379 663 OFFCURVE",
"362 675 CURVE SMOOTH",
"334 694 OFFCURVE",
"315 706 OFFCURVE",
"305 710 CURVE SMOOTH",
"294 714 OFFCURVE",
"282 717 OFFCURVE",
"269 717 CURVE SMOOTH",
"216 717 OFFCURVE",
"181 677 OFFCURVE",
"169 607 CURVE",
"205 607 LINE",
"219 654 OFFCURVE",
"237 670 OFFCURVE",
"266 670 CURVE SMOOTH",
"291 670 OFFCURVE",
"309 656 OFFCURVE",
"331 641 CURVE SMOOTH",
"356 624 OFFCURVE",
"380 610 OFFCURVE",
"406 610 CURVE SMOOTH"
);
}
);
width = 554;
}
);
note = tilde;
unicode = 02DC;
},
{
glyphname = hungarumlaut;
lastChange = "2018-06-23 23:45:44 +0000";
layers = (
{
layerId = "4082F5B4-16CD-4EE9-8420-2E9C5A704856";
paths = (
{
closed = 1;
nodes = (
"244 606 LINE",
"283 635 OFFCURVE",
"348 703 OFFCURVE",
"386 755 CURVE",
"386 766 LINE",
"336 766 LINE",
"303 711 OFFCURVE",
"256 652 OFFCURVE",
"225 620 CURVE",
"225 606 LINE"
);
},
{
closed = 1;
nodes = (
"396 606 LINE",
"436 635 OFFCURVE",
"500 702 OFFCURVE",
"539 755 CURVE",
"539 766 LINE",
"489 766 LINE",
"454 711 OFFCURVE",
"405 649 OFFCURVE",
"378 620 CURVE",
"378 606 LINE"
);
}
);
width = 554;
}
);
note = hungarumlaut;
unicode = 02DD;
},
{
glyphname = tonos;
lastChange = "2018-06-23 23:45:44 +0000";
layers = (
{
anchors = (
{
name = _top;
position = "{358, 531}";
}
);
layerId = "4082F5B4-16CD-4EE9-8420-2E9C5A704856";
paths = (
{
closed = 1;
nodes = (
"350 606 LINE",
"395 657 OFFCURVE",
"456 751 OFFCURVE",
"475 797 CURVE",
"475 812 LINE",
"421 812 LINE",
"398 750 OFFCURVE",
"355 671 OFFCURVE",
"318 618 CURVE",
"318 606 LINE"
);
}
);
width = 568;
}
);
note = tonos;
unicode = 0384;
},
{
glyphname = dieresistonos;
lastChange = "2018-06-23 23:45:44 +0000";
layers = (
{
anchors = (
{
name = _top;
position = "{244, 531}";
}
);
layerId = "4082F5B4-16CD-4EE9-8420-2E9C5A704856";
paths = (
{
closed = 1;
nodes = (
"358 646 OFFCURVE",
"367 635 OFFCURVE",
"384 635 CURVE SMOOTH",
"407 635 OFFCURVE",
"420 656 OFFCURVE",
"420 690 CURVE SMOOTH",
"420 711 OFFCURVE",
"412 722 OFFCURVE",
"395 722 CURVE SMOOTH",
"372 722 OFFCURVE",
"358 702 OFFCURVE",
"358 668 CURVE SMOOTH"
);
},
{
closed = 1;
nodes = (
"156 647 OFFCURVE",
"165 635 OFFCURVE",
"182 635 CURVE SMOOTH",
"204 635 OFFCURVE",
"218 656 OFFCURVE",
"218 690 CURVE SMOOTH",
"218 711 OFFCURVE",
"209 722 OFFCURVE",
"193 722 CURVE SMOOTH",
"170 722 OFFCURVE",
"156 702 OFFCURVE",
"156 668 CURVE SMOOTH"
);
},
{
closed = 1;
nodes = (
"292 678 LINE",
"328 721 OFFCURVE",
"369 790 OFFCURVE",
"386 829 CURVE",
"386 838 LINE",
"329 838 LINE",
"318 799 OFFCURVE",
"290 733 OFFCURVE",
"264 686 CURVE",
"264 678 LINE"
);
}
);
width = 568;
}
);
note = dieresistonos;
unicode = 0385;
},
{
glyphname = Gamma;
lastChange = "2018-06-23 23:45:44 +0000";
layers = (
{
layerId = "4082F5B4-16CD-4EE9-8420-2E9C5A704856";
paths = (
{
closed = 1;
nodes = (
"537 668 LINE",
"547 714 LINE",
"201 714 LINE",
"50 0 LINE",
"100 0 LINE",
"242 668 LINE"
);
}
);
width = 479;
}
);
note = Gamma;
unicode = 0393;
},
{
glyphname = Theta;
lastChange = "2018-06-23 23:45:44 +0000";
layers = (
{
layerId = "4082F5B4-16CD-4EE9-8420-2E9C5A704856";
paths = (
{
closed = 1;
nodes = (
"229 340 LINE",
"522 340 LINE",
"531 387 LINE",
"238 387 LINE"
);
},
{
closed = 1;
nodes = (
"685 624 OFFCURVE",
"597 724 OFFCURVE",
"436 724 CURVE SMOOTH",
"367 724 OFFCURVE",
"307 706 OFFCURVE",
"254 668 CURVE SMOOTH",
"148 593 OFFCURVE",
"84 443 OFFCURVE",
"84 273 CURVE SMOOTH",
"84 90 OFFCURVE",
"175 -10 OFFCURVE",
"338 -10 CURVE SMOOTH",
"405 -10 OFFCURVE",
"465 8 OFFCURVE",
"516 45 CURVE SMOOTH",
"619 117 OFFCURVE",
"685 279 OFFCURVE",
"685 445 CURVE SMOOTH"
);
},
{
closed = 1;
nodes = (
"563 678 OFFCURVE",
"632 596 OFFCURVE",
"632 440 CURVE SMOOTH",
"632 365 OFFCURVE",
"619 295 OFFCURVE",
"593 230 CURVE SMOOTH",
"542 99 OFFCURVE",
"454 35 OFFCURVE",
"344 35 CURVE SMOOTH",
"208 35 OFFCURVE",
"135 120 OFFCURVE",
"135 280 CURVE SMOOTH",
"135 352 OFFCURVE",
"148 419 OFFCURVE",
"174 483 CURVE SMOOTH",
"226 612 OFFCURVE",
"316 678 OFFCURVE",
"429 678 CURVE SMOOTH"
);
}
);
width = 715;
}
);
note = Theta;
unicode = 0398;
},
{
glyphname = Lambda;
lastChange = "2018-06-23 23:45:44 +0000";
layers = (
{
layerId = "4082F5B4-16CD-4EE9-8420-2E9C5A704856";
paths = (
{
closed = 1;
nodes = (
"364 604 OFFCURVE",
"370 548 OFFCURVE",
"379 481 CURVE SMOOTH",
"447 0 LINE",
"496 0 LINE",
"395 714 LINE",
"350 714 LINE",
"-55 0 LINE",
"3 0 LINE",
"260 459 LINE SMOOTH",
"305 538 OFFCURVE",
"338 602 OFFCURVE",
"360 650 CURVE",
"362 650 LINE"
);
}
);
width = 537;
}
);
note = Lambda;
unicode = 039B;
},
{
glyphname = Xi;
lastChange = "2018-06-23 23:45:44 +0000";
layers = (
{
layerId = "4082F5B4-16CD-4EE9-8420-2E9C5A704856";
paths = (
{
closed = 1;
nodes = (
"436 352 LINE",
"445 398 LINE",
"139 398 LINE",
"130 352 LINE"
);
},
{
closed = 1;
nodes = (
"547 668 LINE",
"556 714 LINE",
"161 714 LINE",
"151 668 LINE"
);
},
{
closed = 1;
nodes = (
"-9 0 LINE",
"424 0 LINE",
"434 46 LINE",
"0 46 LINE"
);
}
);
width = 516;
}
);
note = Xi;
unicode = 039E;
},
{
glyphname = Pi;
lastChange = "2018-06-23 23:45:44 +0000";
layers = (
{
layerId = "4082F5B4-16CD-4EE9-8420-2E9C5A704856";
paths = (
{
closed = 1;
nodes = (
"201 714 LINE",
"50 0 LINE",
"100 0 LINE",
"241 667 LINE",
"611 667 LINE",
"470 0 LINE",
"519 0 LINE",
"670 714 LINE"
);
}
);
width = 671;
}
);
note = Pi;
unicode = 03A0;
},
{
glyphname = Sigma;
lastChange = "2018-06-23 23:45:44 +0000";
layers = (
{
layerId = "4082F5B4-16CD-4EE9-8420-2E9C5A704856";
paths = (
{
closed = 1;
nodes = (
"442 46 LINE",
"130 46 LINE",
"56 44 LINE",
"355 357 LINE",
"191 670 LINE",
"287 668 LINE",
"546 668 LINE",
"555 714 LINE",
"145 714 LINE",
"137 673 LINE",
"302 363 LINE",
"-4 43 LINE",
"-11 0 LINE",
"432 0 LINE"
);
}
);
width = 510;
}
);
note = Sigma;
unicode = 03A3;
},
{
glyphname = Phi;
lastChange = "2018-06-23 23:45:44 +0000";
layers = (
{
layerId = "4082F5B4-16CD-4EE9-8420-2E9C5A704856";
paths = (
{
closed = 1;
nodes = (
"349 104 LINE",
"416 106 OFFCURVE",
"474 120 OFFCURVE",
"523 145 CURVE SMOOTH",
"623 194 OFFCURVE",
"680 292 OFFCURVE",
"680 413 CURVE SMOOTH",
"680 544 OFFCURVE",
"602 622 OFFCURVE",
"460 631 CURVE",
"479 724 LINE",
"430 724 LINE",
"410 631 LINE",
"341 629 OFFCURVE",
"282 616 OFFCURVE",
"232 591 CURVE SMOOTH",
"132 542 OFFCURVE",
"76 444 OFFCURVE",
"76 329 CURVE SMOOTH",
"76 287 OFFCURVE",
"85 250 OFFCURVE",
"103 217 CURVE SMOOTH",
"137 152 OFFCURVE",
"204 109 OFFCURVE",
"298 104 CURVE",
"274 -10 LINE",
"324 -10 LINE"
);
},
{
closed = 1;
nodes = (
"569 581 OFFCURVE",
"629 516 OFFCURVE",
"629 410 CURVE SMOOTH",
"629 248 OFFCURVE",
"530 154 OFFCURVE",
"358 149 CURVE",
"450 585 LINE"
);
},
{
closed = 1;
nodes = (
"195 151 OFFCURVE",
"126 220 OFFCURVE",
"126 333 CURVE SMOOTH",
"126 383 OFFCURVE",
"137 427 OFFCURVE",
"160 465 CURVE SMOOTH",
"205 542 OFFCURVE",
"289 583 OFFCURVE",
"400 585 CURVE",
"308 149 LINE"
);
}
);
width = 706;
}
);
note = Phi;
unicode = 03A6;
},
{
glyphname = Psi;
lastChange = "2018-06-23 23:45:44 +0000";
layers = (
{
layerId = "4082F5B4-16CD-4EE9-8420-2E9C5A704856";
paths = (
{
closed = 1;
nodes = (
"557 222 OFFCURVE",
"657 298 OFFCURVE",
"694 477 CURVE SMOOTH",
"745 714 LINE",
"696 714 LINE",
"647 488 LINE SMOOTH",
"612 328 OFFCURVE",
"537 265 OFFCURVE",
"384 265 CURVE SMOOTH",
"379 265 LINE",
"474 714 LINE",
"424 714 LINE",
"329 265 LINE",
"323 265 LINE SMOOTH",
"206 265 OFFCURVE",
"151 314 OFFCURVE",
"151 418 CURVE",
"149 439 OFFCURVE",
"153 473 OFFCURVE",
"164 519 CURVE SMOOTH",
"173 565 OFFCURVE",
"187 630 OFFCURVE",
"205 714 CURVE",
"155 714 LINE",
"116 531 LINE SMOOTH",
"107 486 OFFCURVE",
"102 447 OFFCURVE",
"102 414 CURVE SMOOTH",
"102 289 OFFCURVE",
"178 222 OFFCURVE",
"316 222 CURVE SMOOTH",
"320 222 LINE",
"273 0 LINE",
"323 0 LINE",
"370 222 LINE",
"376 222 LINE SMOOTH"
);
}
);
width = 693;
}
);
note = Psi;
unicode = 03A8;
},
{
glyphname = uni03A9;
lastChange = "2018-06-23 23:45:44 +0000";
layers = (
{
anchors = (
{
name = bottom;
position = "{313, 0}";
},
{
name = topleft;
position = "{105, 714}";
}
);
layerId = "4082F5B4-16CD-4EE9-8420-2E9C5A704856";
paths = (
{
closed = 1;
nodes = (
"559 678 OFFCURVE",
"632 595 OFFCURVE",
"632 449 CURVE SMOOTH",
"632 271 OFFCURVE",
"542 123 OFFCURVE",
"369 28 CURVE",
"364 0 LINE",
"637 0 LINE",
"646 46 LINE",
"462 46 LINE",
"599 128 OFFCURVE",
"685 280 OFFCURVE",
"685 445 CURVE SMOOTH",
"685 628 OFFCURVE",
"595 724 OFFCURVE",
"431 724 CURVE SMOOTH",
"364 724 OFFCURVE",
"305 708 OFFCURVE",
"254 677 CURVE SMOOTH",
"150 614 OFFCURVE",
"84 477 OFFCURVE",
"84 329 CURVE SMOOTH",
"84 289 OFFCURVE",
"88 252 OFFCURVE",
"97 219 CURVE SMOOTH",
"113 154 OFFCURVE",
"136 107 OFFCURVE",
"191 46 CURVE",
"22 46 LINE",
"13 0 LINE",
"257 0 LINE",
"262 28 LINE",
"228 63 OFFCURVE",
"202 95 OFFCURVE",
"186 123 CURVE SMOOTH",
"154 178 OFFCURVE",
"135 242 OFFCURVE",
"135 326 CURVE SMOOTH",
"135 419 OFFCURVE",
"167 517 OFFCURVE",
"218 580 CURVE SMOOTH",
"269 643 OFFCURVE",
"341 678 OFFCURVE",
"429 678 CURVE SMOOTH"
);
}
);
width = 738;
}
);
note = uni03A9;
unicode = 03A9;
},
{
glyphname = alpha;
lastChange = "2018-06-23 23:45:44 +0000";
layers = (
{
anchors = (
{
name = top;
position = "{334, 531}";
}
);
layerId = "4082F5B4-16CD-4EE9-8420-2E9C5A704856";
paths = (
{
closed = 1;
nodes = (
"271 539 OFFCURVE",
"225 523 OFFCURVE",
"185 492 CURVE SMOOTH",
"103 428 OFFCURVE",
"50 301 OFFCURVE",
"50 173 CURVE SMOOTH",
"50 51 OFFCURVE",
"96 -10 OFFCURVE",
"187 -10 CURVE SMOOTH",
"270 -10 OFFCURVE",
"338 38 OFFCURVE",
"391 134 CURVE",
"394 134 LINE",
"390 108 OFFCURVE",
"388 87 OFFCURVE",
"388 69 CURVE SMOOTH",
"388 22 OFFCURVE",
"410 -10 OFFCURVE",
"460 -10 CURVE SMOOTH",
"480 -10 OFFCURVE",
"500 -5 OFFCURVE",
"520 5 CURVE",
"520 43 LINE",
"502 36 OFFCURVE",
"487 32 OFFCURVE",
"474 32 CURVE SMOOTH",
"449 32 OFFCURVE",
"437 48 OFFCURVE",
"437 80 CURVE SMOOTH",
"437 88 OFFCURVE",
"438 100 OFFCURVE",
"440 115 CURVE SMOOTH",
"442 130 OFFCURVE",
"455 193 OFFCURVE",
"479 305 CURVE SMOOTH",
"501 407 OFFCURVE",
"530 491 OFFCURVE",
"553 531 CURVE",
"513 531 LINE",
"496 508 OFFCURVE",
"479 473 OFFCURVE",
"462 427 CURVE",
"459 427 LINE",
"441 502 OFFCURVE",
"394 539 OFFCURVE",
"320 539 CURVE SMOOTH"
);
},
{
closed = 1;
nodes = (
"132 34 OFFCURVE",
"100 79 OFFCURVE",
"100 178 CURVE SMOOTH",
"100 231 OFFCURVE",
"110 284 OFFCURVE",
"131 337 CURVE SMOOTH",
"173 444 OFFCURVE",
"240 497 OFFCURVE",
"321 497 CURVE SMOOTH",
"346 497 OFFCURVE",
"366 491 OFFCURVE",
"383 479 CURVE SMOOTH",
"416 456 OFFCURVE",
"433 413 OFFCURVE",
"433 362 CURVE SMOOTH",
"433 301 OFFCURVE",
"409 213 OFFCURVE",
"364 145 CURVE SMOOTH",
"319 77 OFFCURVE",
"258 34 OFFCURVE",
"198 34 CURVE SMOOTH"
);
}
);
width = 555;
}
);
note = alpha;
unicode = 03B1;
},
{
glyphname = beta;
lastChange = "2018-06-23 23:45:44 +0000";
layers = (
{
layerId = "4082F5B4-16CD-4EE9-8420-2E9C5A704856";
paths = (
{
closed = 1;
nodes = (
"258 765 OFFCURVE",
"188 702 OFFCURVE",
"155 550 CURVE SMOOTH",
"-15 -240 LINE",
"31 -240 LINE",
"63 -94 LINE",
"94 51 LINE",
"117 34 OFFCURVE",
"136 22 OFFCURVE",
"152 15 CURVE SMOOTH",
"184 0 OFFCURVE",
"222 -10 OFFCURVE",
"267 -10 CURVE SMOOTH",
"313 -10 OFFCURVE",
"354 0 OFFCURVE",
"389 20 CURVE SMOOTH",
"458 58 OFFCURVE",
"497 131 OFFCURVE",
"497 219 CURVE SMOOTH",
"497 312 OFFCURVE",
"451 378 OFFCURVE",
"369 398 CURVE",
"403 403 OFFCURVE",
"434 416 OFFCURVE",
"459 434 CURVE SMOOTH",
"511 470 OFFCURVE",
"542 530 OFFCURVE",
"542 605 CURVE SMOOTH",
"542 704 OFFCURVE",
"477 765 OFFCURVE",
"376 765 CURVE SMOOTH"
);
},
{
closed = 1;
nodes = (
"447 723 OFFCURVE",
"492 679 OFFCURVE",
"492 602 CURVE SMOOTH",
"492 482 OFFCURVE",
"418 419 OFFCURVE",
"281 419 CURVE SMOOTH",
"252 419 LINE",
"244 379 LINE",
"270 379 LINE SMOOTH",
"388 379 OFFCURVE",
"447 325 OFFCURVE",
"447 216 CURVE SMOOTH",
"447 103 OFFCURVE",
"376 32 OFFCURVE",
"265 32 CURVE SMOOTH",
"209 32 OFFCURVE",
"148 55 OFFCURVE",
"103 92 CURVE",
"199 541 LINE SMOOTH",
"208 586 OFFCURVE",
"221 622 OFFCURVE",
"235 646 CURVE SMOOTH",
"263 696 OFFCURVE",
"307 723 OFFCURVE",
"369 723 CURVE SMOOTH"
);
}
);
width = 562;
}
);
note = beta;
unicode = 03B2;
},
{
glyphname = gamma;
lastChange = "2018-06-23 23:45:44 +0000";
layers = (
{
layerId = "4082F5B4-16CD-4EE9-8420-2E9C5A704856";
paths = (
{
closed = 1;
nodes = (
"118 -170 OFFCURVE",
"151 -83 OFFCURVE",
"209 22 CURVE SMOOTH",
"486 531 LINE",
"437 531 LINE",
"265 214 LINE SMOOTH",
"233 156 OFFCURVE",
"206 103 OFFCURVE",
"183 53 CURVE",
"181 53 LINE",
"173 128 OFFCURVE",
"166 184 OFFCURVE",
"159 220 CURVE SMOOTH",
"109 531 LINE",
"60 531 LINE",
"150 7 LINE",
"98 -91 OFFCURVE",
"67 -173 OFFCURVE",
"58 -240 CURVE",
"108 -240 LINE"
);
}
);
width = 431;
}
);
note = gamma;
unicode = 03B3;
},
{
glyphname = delta;
lastChange = "2018-06-23 23:45:44 +0000";
layers = (
{
layerId = "4082F5B4-16CD-4EE9-8420-2E9C5A704856";
paths = (
{
closed = 1;
nodes = (
"127 424 OFFCURVE",
"38 329 OFFCURVE",
"38 180 CURVE SMOOTH",
"38 66 OFFCURVE",
"112 -10 OFFCURVE",
"229 -10 CURVE SMOOTH",
"276 -10 OFFCURVE",
"319 1 OFFCURVE",
"356 23 CURVE SMOOTH",
"431 66 OFFCURVE",
"476 157 OFFCURVE",
"476 253 CURVE SMOOTH",
"476 284 OFFCURVE",
"472 313 OFFCURVE",
"463 339 CURVE SMOOTH",
"446 392 OFFCURVE",
"417 432 OFFCURVE",
"349 489 CURVE SMOOTH",
"320 513 OFFCURVE",
"300 532 OFFCURVE",
"289 544 CURVE SMOOTH",
"268 570 OFFCURVE",
"256 595 OFFCURVE",
"256 626 CURVE SMOOTH",
"256 683 OFFCURVE",
"296 723 OFFCURVE",
"364 723 CURVE SMOOTH",
"409 723 OFFCURVE",
"458 706 OFFCURVE",
"510 671 CURVE",
"532 709 LINE",
"476 747 OFFCURVE",
"421 765 OFFCURVE",
"369 765 CURVE SMOOTH",
"271 765 OFFCURVE",
"206 709 OFFCURVE",
"206 625 CURVE SMOOTH",
"206 571 OFFCURVE",
"239 518 OFFCURVE",
"306 468 CURVE"
);
},
{
closed = 1;
nodes = (
"142 32 OFFCURVE",
"88 89 OFFCURVE",
"88 185 CURVE SMOOTH",
"88 312 OFFCURVE",
"161 394 OFFCURVE",
"339 438 CURVE",
"402 386 OFFCURVE",
"426 328 OFFCURVE",
"426 253 CURVE SMOOTH",
"426 211 OFFCURVE",
"418 173 OFFCURVE",
"402 140 CURVE SMOOTH",
"371 73 OFFCURVE",
"312 32 OFFCURVE",
"234 32 CURVE SMOOTH"
);
}
);
width = 535;
}
);
note = delta;
unicode = 03B4;
},
{
glyphname = epsilon;
lastChange = "2018-06-23 23:45:44 +0000";
layers = (
{
anchors = (
{
name = top;
position = "{262, 531}";
}
);
layerId = "4082F5B4-16CD-4EE9-8420-2E9C5A704856";
paths = (
{
closed = 1;
nodes = (
"270 301 LINE SMOOTH",
"194 301 OFFCURVE",
"152 333 OFFCURVE",
"152 392 CURVE SMOOTH",
"152 458 OFFCURVE",
"200 496 OFFCURVE",
"286 496 CURVE SMOOTH",
"327 496 OFFCURVE",
"376 484 OFFCURVE",
"409 465 CURVE",
"428 507 LINE",
"387 528 OFFCURVE",
"340 539 OFFCURVE",
"287 539 CURVE SMOOTH",
"174 539 OFFCURVE",
"102 481 OFFCURVE",
"102 391 CURVE SMOOTH",
"102 338 OFFCURVE",
"133 302 OFFCURVE",
"180 286 CURVE",
"180 284 LINE",
"85 271 OFFCURVE",
"29 212 OFFCURVE",
"29 126 CURVE SMOOTH",
"29 42 OFFCURVE",
"91 -10 OFFCURVE",
"193 -10 CURVE SMOOTH",
"255 -10 OFFCURVE",
"317 7 OFFCURVE",
"362 30 CURVE",
"362 75 LINE",
"317 50 OFFCURVE",
"250 32 OFFCURVE",
"197 32 CURVE SMOOTH",
"121 32 OFFCURVE",
"79 68 OFFCURVE",
"79 130 CURVE SMOOTH",
"79 211 OFFCURVE",
"139 256 OFFCURVE",
"248 256 CURVE SMOOTH",
"303 256 LINE",
"312 301 LINE"
);
}
);
width = 410;
}
);
note = epsilon;
unicode = 03B5;
},
{
glyphname = zeta;
lastChange = "2018-06-23 23:45:44 +0000";
layers = (
{
layerId = "4082F5B4-16CD-4EE9-8420-2E9C5A704856";
paths = (
{
closed = 1;
nodes = (
"57 91 OFFCURVE",
"97 36 OFFCURVE",
"202 -3 CURVE SMOOTH",
"241 -18 OFFCURVE",
"266 -31 OFFCURVE",
"278 -42 CURVE",
"290 -55 OFFCURVE",
"296 -69 OFFCURVE",
"296 -85 CURVE SMOOTH",
"296 -122 OFFCURVE",
"267 -160 OFFCURVE",
"208 -214 CURVE",
"265 -214 LINE",
"323 -158 OFFCURVE",
"343 -120 OFFCURVE",
"343 -78 CURVE SMOOTH",
"343 -61 OFFCURVE",
"339 -46 OFFCURVE",
"333 -33 CURVE SMOOTH",
"319 -8 OFFCURVE",
"296 9 OFFCURVE",
"230 36 CURVE SMOOTH",
"194 51 OFFCURVE",
"168 64 OFFCURVE",
"153 78 CURVE SMOOTH",
"123 103 OFFCURVE",
"108 139 OFFCURVE",
"108 194 CURVE SMOOTH",
"108 236 OFFCURVE",
"119 280 OFFCURVE",
"140 325 CURVE SMOOTH",
"183 415 OFFCURVE",
"265 505 OFFCURVE",
"412 635 CURVE SMOOTH",
"505 719 LINE",
"514 760 LINE",
"220 760 LINE",
"211 719 LINE",
"342 719 LINE SMOOTH",
"385 719 OFFCURVE",
"423 720 OFFCURVE",
"454 722 CURVE",
"167 488 OFFCURVE",
"57 336 OFFCURVE",
"57 188 CURVE SMOOTH"
);
}
);
width = 442;
}
);
note = zeta;
unicode = 03B6;
},
{
glyphname = eta;
lastChange = "2018-06-23 23:45:44 +0000";
layers = (
{
anchors = (
{
name = top;
position = "{338, 531}";
}
);
layerId = "4082F5B4-16CD-4EE9-8420-2E9C5A704856";
paths = (
{
closed = 1;
nodes = (
"493 329 LINE SMOOTH",
"501 366 OFFCURVE",
"505 395 OFFCURVE",
"505 418 CURVE SMOOTH",
"505 496 OFFCURVE",
"462 539 OFFCURVE",
"378 539 CURVE SMOOTH",
"296 539 OFFCURVE",
"228 500 OFFCURVE",
"175 423 CURVE",
"172 423 LINE",
"190 531 LINE",
"150 531 LINE",
"37 0 LINE",
"85 0 LINE",
"135 233 LINE SMOOTH",
"146 287 OFFCURVE",
"164 333 OFFCURVE",
"186 373 CURVE SMOOTH",
"229 451 OFFCURVE",
"296 497 OFFCURVE",
"369 497 CURVE SMOOTH",
"428 497 OFFCURVE",
"456 466 OFFCURVE",
"456 414 CURVE SMOOTH",
"456 393 OFFCURVE",
"453 368 OFFCURVE",
"446 338 CURVE SMOOTH",
"321 -240 LINE",
"368 -240 LINE"
);
}
);
width = 563;
}
);
note = eta;
unicode = 03B7;
},
{
glyphname = theta;
lastChange = "2018-06-23 23:45:44 +0000";
layers = (
{
layerId = "4082F5B4-16CD-4EE9-8420-2E9C5A704856";
paths = (
{
closed = 1;
nodes = (
"146 32 OFFCURVE",
"107 91 OFFCURVE",
"107 215 CURVE SMOOTH",
"107 260 OFFCURVE",
"116 340 OFFCURVE",
"124 376 CURVE",
"464 376 LINE",
"413 136 OFFCURVE",
"340 32 OFFCURVE",
"230 32 CURVE SMOOTH"
);
},
{
closed = 1;
nodes = (
"446 730 OFFCURVE",
"484 677 OFFCURVE",
"484 558 CURVE SMOOTH",
"484 515 OFFCURVE",
"479 469 OFFCURVE",
"471 420 CURVE",
"133 420 LINE",
"178 626 OFFCURVE",
"254 730 OFFCURVE",
"362 730 CURVE SMOOTH"
);
},
{
closed = 1;
nodes = (
"264 -10 OFFCURVE",
"299 0 OFFCURVE",
"330 18 CURVE SMOOTH",
"392 54 OFFCURVE",
"438 124 OFFCURVE",
"475 237 CURVE SMOOTH",
"512 350 OFFCURVE",
"530 474 OFFCURVE",
"530 560 CURVE SMOOTH",
"530 701 OFFCURVE",
"476 771 OFFCURVE",
"368 771 CURVE SMOOTH",
"330 771 OFFCURVE",
"295 763 OFFCURVE",
"264 746 CURVE SMOOTH",
"202 711 OFFCURVE",
"153 642 OFFCURVE",
"116 532 CURVE SMOOTH",
"79 421 OFFCURVE",
"60 304 OFFCURVE",
"60 212 CURVE SMOOTH",
"60 63 OFFCURVE",
"114 -10 OFFCURVE",
"225 -10 CURVE SMOOTH"
);
}
);
width = 527;
}
);
note = theta;
unicode = 03B8;
},
{
glyphname = iota;
lastChange = "2018-06-23 23:45:44 +0000";
layers = (
{
anchors = (
{
name = top;
position = "{193, 531}";
}
);
layerId = "4082F5B4-16CD-4EE9-8420-2E9C5A704856";
paths = (
{
closed = 1;
nodes = (
"127 33 OFFCURVE",
"107 56 OFFCURVE",
"107 101 CURVE SMOOTH",
"107 121 OFFCURVE",
"111 147 OFFCURVE",
"118 181 CURVE SMOOTH",
"193 531 LINE",
"145 531 LINE",
"73 195 LINE SMOOTH",
"64 155 OFFCURVE",
"59 121 OFFCURVE",
"59 94 CURVE SMOOTH",
"59 30 OFFCURVE",
"95 -10 OFFCURVE",
"160 -10 CURVE SMOOTH",
"181 -10 OFFCURVE",
"206 -6 OFFCURVE",
"233 2 CURVE",
"233 43 LINE",
"208 37 OFFCURVE",
"187 33 OFFCURVE",
"169 33 CURVE SMOOTH"
);
}
);
width = 273;
}
);
note = iota;
unicode = 03B9;
},
{
glyphname = lambda;
lastChange = "2018-06-23 23:45:44 +0000";
layers = (
{
layerId = "4082F5B4-16CD-4EE9-8420-2E9C5A704856";
paths = (
{
closed = 1;
nodes = (
"263 426 OFFCURVE",
"266 376 OFFCURVE",
"271 321 CURVE SMOOTH",
"294 79 LINE SMOOTH",
"300 17 OFFCURVE",
"321 -10 OFFCURVE",
"372 -10 CURVE SMOOTH",
"388 -10 OFFCURVE",
"402 -7 OFFCURVE",
"415 -3 CURVE",
"415 35 LINE",
"403 31 OFFCURVE",
"392 29 OFFCURVE",
"382 29 CURVE SMOOTH",
"354 29 OFFCURVE",
"344 48 OFFCURVE",
"340 89 CURVE SMOOTH",
"286 632 LINE SMOOTH",
"276 729 OFFCURVE",
"238 766 OFFCURVE",
"160 766 CURVE SMOOTH",
"136 766 OFFCURVE",
"116 763 OFFCURVE",
"99 757 CURVE",
"103 717 LINE",
"124 722 OFFCURVE",
"141 725 OFFCURVE",
"154 725 CURVE SMOOTH",
"211 725 OFFCURVE",
"235 694 OFFCURVE",
"241 626 CURVE SMOOTH",
"251 532 LINE",
"200 443 OFFCURVE",
"149 354 OFFCURVE",
"97 266 CURVE SMOOTH",
"45 177 OFFCURVE",
"-6 88 OFFCURVE",
"-56 0 CURVE",
"-6 0 LINE",
"197 354 LINE SMOOTH",
"222 397 OFFCURVE",
"242 437 OFFCURVE",
"258 471 CURVE",
"261 471 LINE"
);
}
);
width = 437;
}
);
note = lambda;
unicode = 03BB;
},
{
glyphname = nu;
lastChange = "2018-06-23 23:45:44 +0000";
layers = (
{
layerId = "4082F5B4-16CD-4EE9-8420-2E9C5A704856";
paths = (
{
closed = 1;
nodes = (
"177 0 LINE",
"340 137 OFFCURVE",
"438 306 OFFCURVE",
"482 531 CURVE",
"434 531 LINE",
"393 324 OFFCURVE",
"294 153 OFFCURVE",
"163 44 CURVE",
"157 109 OFFCURVE",
"150 178 OFFCURVE",
"141 252 CURVE SMOOTH",
"107 531 LINE",
"59 531 LINE",
"128 0 LINE"
);
}
);
width = 457;
}
);
note = nu;
unicode = 03BD;
},
{
glyphname = xi;
lastChange = "2018-06-23 23:45:44 +0000";
layers = (
{
layerId = "4082F5B4-16CD-4EE9-8420-2E9C5A704856";
paths = (
{
closed = 1;
nodes = (
"360 423 LINE SMOOTH",
"243 423 OFFCURVE",
"180 461 OFFCURVE",
"180 537 CURVE SMOOTH",
"180 570 OFFCURVE",
"192 600 OFFCURVE",
"215 627 CURVE SMOOTH",
"262 681 OFFCURVE",
"360 719 OFFCURVE",
"446 719 CURVE SMOOTH",
"462 719 LINE",
"472 760 LINE",
"178 760 LINE",
"169 719 LINE",
"222 719 LINE SMOOTH",
"250 719 OFFCURVE",
"283 721 OFFCURVE",
"321 723 CURVE",
"201 692 OFFCURVE",
"133 622 OFFCURVE",
"133 534 CURVE SMOOTH",
"133 464 OFFCURVE",
"173 419 OFFCURVE",
"250 405 CURVE",
"250 403 LINE",
"111 377 OFFCURVE",
"29 296 OFFCURVE",
"29 182 CURVE SMOOTH",
"29 126 OFFCURVE",
"46 90 OFFCURVE",
"73 63 CURVE SMOOTH",
"99 37 OFFCURVE",
"130 21 OFFCURVE",
"212 -8 CURVE SMOOTH",
"258 -26 OFFCURVE",
"277 -45 OFFCURVE",
"277 -76 CURVE SMOOTH",
"277 -118 OFFCURVE",
"250 -160 OFFCURVE",
"198 -203 CURVE",
"257 -203 LINE",
"302 -164 OFFCURVE",
"328 -117 OFFCURVE",
"328 -77 CURVE SMOOTH",
"328 -38 OFFCURVE",
"313 -11 OFFCURVE",
"283 9 CURVE SMOOTH",
"268 19 OFFCURVE",
"241 31 OFFCURVE",
"201 45 CURVE SMOOTH",
"109 78 OFFCURVE",
"80 119 OFFCURVE",
"80 186 CURVE SMOOTH",
"80 226 OFFCURVE",
"91 260 OFFCURVE",
"112 289 CURVE SMOOTH",
"155 347 OFFCURVE",
"246 382 OFFCURVE",
"353 382 CURVE SMOOTH",
"388 382 LINE",
"398 423 LINE"
);
}
);
width = 427;
}
);
note = xi;
unicode = 03BE;
},
{
glyphname = pi;
lastChange = "2018-06-23 23:45:44 +0000";
layers = (
{
layerId = "4082F5B4-16CD-4EE9-8420-2E9C5A704856";
paths = (
{
closed = 1;
nodes = (
"400 30 OFFCURVE",
"387 47 OFFCURVE",
"387 70 CURVE SMOOTH",
"387 85 OFFCURVE",
"390 104 OFFCURVE",
"395 129 CURVE SMOOTH",
"471 491 LINE",
"565 491 LINE",
"574 531 LINE",
"142 531 LINE",
"51 522 LINE",
"44 491 LINE",
"148 491 LINE",
"44 0 LINE",
"92 0 LINE",
"196 491 LINE",
"424 491 LINE",
"349 138 LINE SMOOTH",
"342 108 OFFCURVE",
"339 83 OFFCURVE",
"339 63 CURVE SMOOTH",
"339 22 OFFCURVE",
"369 -10 OFFCURVE",
"416 -10 CURVE SMOOTH",
"436 -10 OFFCURVE",
"453 -8 OFFCURVE",
"467 -4 CURVE",
"467 36 LINE",
"452 32 OFFCURVE",
"437 30 OFFCURVE",
"423 30 CURVE SMOOTH"
);
}
);
width = 540;
}
);
note = pi;
unicode = 03C0;
},
{
glyphname = rho;
lastChange = "2018-06-23 23:45:44 +0000";
layers = (
{
layerId = "4082F5B4-16CD-4EE9-8420-2E9C5A704856";
paths = (
{
closed = 1;
nodes = (
"210 541 OFFCURVE",
"137 472 OFFCURVE",
"106 333 CURVE SMOOTH",
"-16 -240 LINE",
"32 -240 LINE",
"63 -95 OFFCURVE",
"83 2 OFFCURVE",
"93 52 CURVE",
"143 6 OFFCURVE",
"185 -10 OFFCURVE",
"243 -10 CURVE SMOOTH",
"293 -10 OFFCURVE",
"338 4 OFFCURVE",
"377 33 CURVE SMOOTH",
"456 90 OFFCURVE",
"507 211 OFFCURVE",
"507 342 CURVE SMOOTH",
"507 467 OFFCURVE",
"439 541 OFFCURVE",
"326 541 CURVE SMOOTH"
);
},
{
closed = 1;
nodes = (
"408 499 OFFCURVE",
"457 443 OFFCURVE",
"457 343 CURVE SMOOTH",
"457 285 OFFCURVE",
"447 231 OFFCURVE",
"428 182 CURVE SMOOTH",
"389 83 OFFCURVE",
"324 32 OFFCURVE",
"242 32 CURVE SMOOTH",
"190 32 OFFCURVE",
"144 53 OFFCURVE",
"102 94 CURVE",
"147 306 LINE SMOOTH",
"178 446 OFFCURVE",
"231 499 OFFCURVE",
"319 499 CURVE SMOOTH"
);
}
);
width = 555;
}
);
note = rho;
unicode = 03C1;
},
{
glyphname = sigma1;
lastChange = "2018-06-23 23:45:44 +0000";
layers = (
{
layerId = "4082F5B4-16CD-4EE9-8420-2E9C5A704856";
paths = (
{
closed = 1;
nodes = (
"406 532 OFFCURVE",
"367 539 OFFCURVE",
"324 539 CURVE SMOOTH",
"272 539 OFFCURVE",
"226 525 OFFCURVE",
"185 498 CURVE SMOOTH",
"103 443 OFFCURVE",
"50 328 OFFCURVE",
"50 201 CURVE SMOOTH",
"50 90 OFFCURVE",
"90 32 OFFCURVE",
"204 -10 CURVE SMOOTH",
"274 -37 OFFCURVE",
"293 -56 OFFCURVE",
"293 -95 CURVE SMOOTH",
"293 -133 OFFCURVE",
"262 -171 OFFCURVE",
"213 -214 CURVE",
"272 -214 LINE",
"319 -171 OFFCURVE",
"343 -129 OFFCURVE",
"343 -87 CURVE SMOOTH",
"343 -33 OFFCURVE",
"319 -4 OFFCURVE",
"231 30 CURVE SMOOTH",
"192 45 OFFCURVE",
"165 60 OFFCURVE",
"148 74 CURVE SMOOTH",
"115 103 OFFCURVE",
"100 141 OFFCURVE",
"100 202 CURVE SMOOTH",
"100 256 OFFCURVE",
"110 306 OFFCURVE",
"129 352 CURVE SMOOTH",
"167 443 OFFCURVE",
"238 497 OFFCURVE",
"322 497 CURVE SMOOTH",
"357 497 OFFCURVE",
"393 489 OFFCURVE",
"428 474 CURVE",
"442 518 LINE"
);
}
);
width = 448;
}
);
note = sigma1;
unicode = 03C2;
},
{
glyphname = sigma;
lastChange = "2018-06-23 23:45:44 +0000";
layers = (
{
layerId = "4082F5B4-16CD-4EE9-8420-2E9C5A704856";
paths = (
{
closed = 1;
nodes = (
"495 372 OFFCURVE",
"479 446 OFFCURVE",
"456 491 CURVE",
"573 491 LINE",
"582 531 LINE",
"357 531 LINE SMOOTH",
"294 531 OFFCURVE",
"240 519 OFFCURVE",
"194 494 CURVE SMOOTH",
"104 445 OFFCURVE",
"51 345 OFFCURVE",
"51 217 CURVE SMOOTH",
"51 75 OFFCURVE",
"124 -10 OFFCURVE",
"249 -10 CURVE SMOOTH",
"405 -10 OFFCURVE",
"495 109 OFFCURVE",
"495 309 CURVE SMOOTH"
);
},
{
closed = 1;
nodes = (
"432 440 OFFCURVE",
"445 366 OFFCURVE",
"445 312 CURVE SMOOTH",
"445 251 OFFCURVE",
"437 200 OFFCURVE",
"422 159 CURVE SMOOTH",
"391 76 OFFCURVE",
"333 32 OFFCURVE",
"256 32 CURVE SMOOTH",
"156 32 OFFCURVE",
"101 100 OFFCURVE",
"101 222 CURVE SMOOTH",
"101 392 OFFCURVE",
"195 491 OFFCURVE",
"359 491 CURVE SMOOTH",
"412 491 LINE"
);
}
);
width = 555;
}
);
note = sigma;
unicode = 03C3;
},
{
glyphname = tau;
lastChange = "2018-06-23 23:45:44 +0000";
layers = (
{
layerId = "4082F5B4-16CD-4EE9-8420-2E9C5A704856";
paths = (
{
closed = 1;
nodes = (
"190 33 OFFCURVE",
"169 59 OFFCURVE",
"169 101 CURVE SMOOTH",
"169 120 OFFCURVE",
"173 146 OFFCURVE",
"180 181 CURVE SMOOTH",
"246 491 LINE",
"407 491 LINE",
"415 531 LINE",
"132 531 LINE",
"42 522 LINE",
"35 491 LINE",
"198 491 LINE",
"135 195 LINE SMOOTH",
"125 154 OFFCURVE",
"121 121 OFFCURVE",
"121 94 CURVE SMOOTH",
"121 27 OFFCURVE",
"158 -10 OFFCURVE",
"222 -10 CURVE SMOOTH",
"250 -10 OFFCURVE",
"294 0 OFFCURVE",
"305 4 CURVE",
"305 46 LINE",
"275 38 OFFCURVE",
"251 33 OFFCURVE",
"231 33 CURVE SMOOTH"
);
}
);
width = 376;
}
);
note = tau;
unicode = 03C4;
},
{
glyphname = upsilon;
lastChange = "2018-06-23 23:45:44 +0000";
layers = (
{
anchors = (
{
name = top;
position = "{335, 531}";
}
);
layerId = "4082F5B4-16CD-4EE9-8420-2E9C5A704856";
paths = (
{
closed = 1;
nodes = (
"424 -10 OFFCURVE",
"518 170 OFFCURVE",
"518 531 CURVE",
"468 531 LINE",
"468 367 OFFCURVE",
"449 243 OFFCURVE",
"411 159 CURVE SMOOTH",
"374 74 OFFCURVE",
"317 32 OFFCURVE",
"242 32 CURVE SMOOTH",
"162 32 OFFCURVE",
"119 77 OFFCURVE",
"119 163 CURVE SMOOTH",
"119 178 OFFCURVE",
"120 193 OFFCURVE",
"122 207 CURVE SMOOTH",
"123 221 OFFCURVE",
"129 251 OFFCURVE",
"138 297 CURVE SMOOTH",
"188 531 LINE",
"138 531 LINE",
"87 291 LINE SMOOTH",
"75 237 OFFCURVE",
"69 193 OFFCURVE",
"69 159 CURVE SMOOTH",
"69 53 OFFCURVE",
"130 -10 OFFCURVE",
"236 -10 CURVE SMOOTH"
);
}
);
width = 556;
}
);
note = upsilon;
unicode = 03C5;
},
{
glyphname = phi;
lastChange = "2018-06-23 23:45:44 +0000";
layers = (
{
layerId = "4082F5B4-16CD-4EE9-8420-2E9C5A704856";
paths = (
{
closed = 1;
nodes = (
"222 -240 LINE",
"270 -12 LINE",
"337 -10 OFFCURVE",
"395 7 OFFCURVE",
"443 39 CURVE SMOOTH",
"541 102 OFFCURVE",
"594 220 OFFCURVE",
"594 367 CURVE SMOOTH",
"594 475 OFFCURVE",
"544 541 OFFCURVE",
"459 541 CURVE SMOOTH",
"383 541 OFFCURVE",
"331 490 OFFCURVE",
"311 393 CURVE SMOOTH",
"233 31 LINE",
"133 41 OFFCURVE",
"78 105 OFFCURVE",
"78 216 CURVE SMOOTH",
"78 333 OFFCURVE",
"121 420 OFFCURVE",
"218 509 CURVE",
"187 540 LINE",
"76 437 OFFCURVE",
"29 334 OFFCURVE",
"29 213 CURVE SMOOTH",
"29 83 OFFCURVE",
"100 2 OFFCURVE",
"224 -11 CURVE",
"175 -240 LINE"
);
},
{
closed = 1;
nodes = (
"547 298 OFFCURVE",
"536 242 OFFCURVE",
"515 193 CURVE SMOOTH",
"473 95 OFFCURVE",
"390 37 OFFCURVE",
"279 31 CURVE",
"355 384 LINE SMOOTH",
"371 462 OFFCURVE",
"404 497 OFFCURVE",
"457 497 CURVE SMOOTH",
"514 497 OFFCURVE",
"547 449 OFFCURVE",
"547 362 CURVE SMOOTH"
);
}
);
width = 622;
}
);
note = phi;
unicode = 03C6;
},
{
glyphname = chi;
lastChange = "2018-06-23 23:45:44 +0000";
layers = (
{
layerId = "4082F5B4-16CD-4EE9-8420-2E9C5A704856";
paths = (
{
closed = 1;
nodes = (
"95 536 OFFCURVE",
"69 531 OFFCURVE",
"56 526 CURVE",
"65 485 LINE",
"78 490 OFFCURVE",
"91 493 OFFCURVE",
"103 493 CURVE SMOOTH",
"126 493 OFFCURVE",
"140 484 OFFCURVE",
"148 466 CURVE",
"152 457 OFFCURVE",
"156 439 OFFCURVE",
"159 411 CURVE SMOOTH",
"191 161 LINE",
"-105 -240 LINE",
"-47 -240 LINE",
"200 102 LINE",
"228 -128 LINE SMOOTH",
"236 -203 OFFCURVE",
"270 -240 OFFCURVE",
"327 -240 CURVE SMOOTH",
"346 -240 OFFCURVE",
"365 -237 OFFCURVE",
"382 -230 CURVE",
"382 -190 LINE",
"369 -194 OFFCURVE",
"355 -197 OFFCURVE",
"340 -197 CURVE SMOOTH",
"301 -197 OFFCURVE",
"282 -175 OFFCURVE",
"274 -110 CURVE SMOOTH",
"240 146 LINE",
"517 531 LINE",
"465 531 LINE",
"230 204 LINE",
"203 425 LINE SMOOTH",
"199 459 OFFCURVE",
"193 483 OFFCURVE",
"186 496 CURVE SMOOTH",
"172 521 OFFCURVE",
"150 536 OFFCURVE",
"109 536 CURVE SMOOTH"
);
}
);
width = 485;
}
);
note = chi;
unicode = 03C7;
},
{
glyphname = psi;
lastChange = "2018-06-23 23:45:44 +0000";
layers = (
{
layerId = "4082F5B4-16CD-4EE9-8420-2E9C5A704856";
paths = (
{
closed = 1;
nodes = (
"396 655 OFFCURVE",
"375 553 OFFCURVE",
"354 454 CURVE SMOOTH",
"332 355 OFFCURVE",
"302 216 OFFCURVE",
"263 38 CURVE",
"171 48 OFFCURVE",
"125 101 OFFCURVE",
"125 196 CURVE SMOOTH",
"125 226 OFFCURVE",
"130 264 OFFCURVE",
"140 309 CURVE SMOOTH",
"188 531 LINE",
"138 531 LINE",
"90 307 LINE SMOOTH",
"80 261 OFFCURVE",
"75 222 OFFCURVE",
"75 191 CURVE SMOOTH",
"75 77 OFFCURVE",
"137 7 OFFCURVE",
"254 -4 CURVE",
"204 -240 LINE",
"250 -240 LINE",
"300 -4 LINE",
"373 -1 OFFCURVE",
"434 19 OFFCURVE",
"482 57 CURVE SMOOTH",
"580 131 OFFCURVE",
"628 276 OFFCURVE",
"628 531 CURVE",
"578 531 LINE",
"578 198 OFFCURVE",
"495 49 OFFCURVE",
"309 38 CURVE",
"335 163 OFFCURVE",
"387 404 OFFCURVE",
"464 760 CURVE",
"418 760 LINE"
);
}
);
width = 666;
}
);
note = psi;
unicode = 03C8;
},
{
glyphname = omega;
lastChange = "2018-06-23 23:45:44 +0000";
layers = (
{
anchors = (
{
name = bottom;
position = "{276, 0}";
},
{
name = top;
position = "{390, 531}";
}
);
layerId = "4082F5B4-16CD-4EE9-8420-2E9C5A704856";
paths = (
{
closed = 1;
nodes = (
"223 -10 OFFCURVE",
"267 19 OFFCURVE",
"297 77 CURVE",
"308 22 OFFCURVE",
"351 -10 OFFCURVE",
"408 -10 CURVE SMOOTH",
"452 -10 OFFCURVE",
"490 5 OFFCURVE",
"523 34 CURVE SMOOTH",
"590 92 OFFCURVE",
"632 218 OFFCURVE",
"632 358 CURVE SMOOTH",
"632 422 OFFCURVE",
"623 494 OFFCURVE",
"614 531 CURVE",
"569 531 LINE",
"579 481 OFFCURVE",
"584 425 OFFCURVE",
"584 360 CURVE SMOOTH",
"584 167 OFFCURVE",
"514 33 OFFCURVE",
"412 33 CURVE SMOOTH",
"361 33 OFFCURVE",
"333 63 OFFCURVE",
"333 118 CURVE SMOOTH",
"333 135 OFFCURVE",
"336 158 OFFCURVE",
"342 187 CURVE SMOOTH",
"374 338 LINE",
"327 338 LINE",
"292 176 LINE SMOOTH",
"269 74 OFFCURVE",
"228 33 OFFCURVE",
"172 33 CURVE SMOOTH",
"112 33 OFFCURVE",
"81 80 OFFCURVE",
"81 170 CURVE SMOOTH",
"81 289 OFFCURVE",
"124 403 OFFCURVE",
"216 531 CURVE",
"166 531 LINE",
"78 419 OFFCURVE",
"33 293 OFFCURVE",
"33 168 CURVE SMOOTH",
"33 55 OFFCURVE",
"81 -10 OFFCURVE",
"165 -10 CURVE SMOOTH"
);
}
);
width = 666;
}
);
note = omega;
unicode = 03C9;
},
{
glyphname = afii10051;
lastChange = "2018-06-23 23:45:44 +0000";
layers = (
{
layerId = "4082F5B4-16CD-4EE9-8420-2E9C5A704856";
paths = (
{
closed = 1;
nodes = (
"459 -7 OFFCURVE",
"514 43 OFFCURVE",
"535 150 CURVE SMOOTH",
"547 213 LINE SMOOTH",
"552 237 OFFCURVE",
"554 261 OFFCURVE",
"554 285 CURVE SMOOTH",
"554 373 OFFCURVE",
"502 426 OFFCURVE",
"393 426 CURVE SMOOTH",
"244 426 LINE",
"296 668 LINE",
"512 668 LINE",
"521 714 LINE",
"106 714 LINE",
"96 668 LINE",
"246 668 LINE",
"105 0 LINE",
"155 0 LINE",
"235 382 LINE",
"382 382 LINE SMOOTH",
"467 382 OFFCURVE",
"504 351 OFFCURVE",
"504 280 CURVE SMOOTH",
"504 257 OFFCURVE",
"502 236 OFFCURVE",
"498 215 CURVE SMOOTH",
"490 171 LINE SMOOTH",
"473 73 OFFCURVE",
"436 39 OFFCURVE",
"357 39 CURVE SMOOTH",
"342 39 OFFCURVE",
"329 41 OFFCURVE",
"318 43 CURVE SMOOTH",
"307 45 OFFCURVE",
"298 47 OFFCURVE",
"294 48 CURVE",
"294 0 LINE",
"317 -4 OFFCURVE",
"338 -7 OFFCURVE",
"357 -7 CURVE SMOOTH"
);
}
);
width = 631;
}
);
note = afii10051;
unicode = 0402;
},
{
glyphname = afii10053;
lastChange = "2018-06-23 23:45:44 +0000";
layers = (
{
layerId = "4082F5B4-16CD-4EE9-8420-2E9C5A704856";
paths = (
{
closed = 1;
nodes = (
"518 678 OFFCURVE",
"561 668 OFFCURVE",
"597 647 CURVE",
"619 691 LINE",
"577 713 OFFCURVE",
"527 724 OFFCURVE",
"469 724 CURVE SMOOTH",
"395 724 OFFCURVE",
"328 704 OFFCURVE",
"270 664 CURVE SMOOTH",
"152 583 OFFCURVE",
"83 429 OFFCURVE",
"83 261 CURVE SMOOTH",
"83 86 OFFCURVE",
"173 -10 OFFCURVE",
"337 -10 CURVE SMOOTH",
"389 -10 OFFCURVE",
"440 -2 OFFCURVE",
"491 14 CURVE",
"491 60 LINE",
"438 43 OFFCURVE",
"388 35 OFFCURVE",
"343 35 CURVE SMOOTH",
"209 35 OFFCURVE",
"134 116 OFFCURVE",
"134 263 CURVE SMOOTH",
"134 297 OFFCURVE",
"137 328 OFFCURVE",
"142 356 CURVE",
"473 356 LINE",
"482 402 LINE",
"152 402 LINE",
"197 574 OFFCURVE",
"313 678 OFFCURVE",
"469 678 CURVE SMOOTH"
);
}
);
width = 571;
}
);
note = afii10053;
unicode = 0404;
},
{
glyphname = afii10058;
lastChange = "2018-06-23 23:45:44 +0000";
layers = (
{
layerId = "4082F5B4-16CD-4EE9-8420-2E9C5A704856";
paths = (
{
closed = 1;
nodes = (
"827 336 OFFCURVE",
"760 396 OFFCURVE",
"638 396 CURVE SMOOTH",
"525 396 LINE",
"593 714 LINE",
"313 714 LINE",
"263 540 OFFCURVE",
"223 407 OFFCURVE",
"193 315 CURVE SMOOTH",
"164 223 OFFCURVE",
"141 160 OFFCURVE",
"125 128 CURVE SMOOTH",
"92 63 OFFCURVE",
"60 36 OFFCURVE",
"9 36 CURVE SMOOTH",
"-10 36 OFFCURVE",
"-26 39 OFFCURVE",
"-41 44 CURVE",
"-41 -3 LINE",
"-25 -8 OFFCURVE",
"-9 -11 OFFCURVE",
"9 -11 CURVE SMOOTH",
"75 -11 OFFCURVE",
"119 18 OFFCURVE",
"156 83 CURVE SMOOTH",
"175 116 OFFCURVE",
"198 174 OFFCURVE",
"226 256 CURVE SMOOTH",
"253 339 OFFCURVE",
"289 454 OFFCURVE",
"332 601 CURVE SMOOTH",
"351 668 LINE",
"532 668 LINE",
"391 0 LINE",
"568 0 LINE SMOOTH",
"731 0 OFFCURVE",
"827 82 OFFCURVE",
"827 227 CURVE SMOOTH"
);
},
{
closed = 1;
nodes = (
"727 352 OFFCURVE",
"775 312 OFFCURVE",
"775 224 CURVE SMOOTH",
"775 104 OFFCURVE",
"700 44 OFFCURVE",
"567 44 CURVE SMOOTH",
"450 44 LINE",
"516 352 LINE",
"629 352 LINE SMOOTH"
);
}
);
width = 887;
}
);
note = afii10058;
unicode = 0409;
},
{
glyphname = afii10059;
lastChange = "2018-06-23 23:45:44 +0000";
layers = (
{
layerId = "4082F5B4-16CD-4EE9-8420-2E9C5A704856";
paths = (
{
closed = 1;
nodes = (
"865 336 OFFCURVE",
"797 397 OFFCURVE",
"676 397 CURVE SMOOTH",
"563 397 LINE",
"631 714 LINE",
"580 714 LINE",
"513 397 LINE",
"183 397 LINE",
"251 714 LINE",
"201 714 LINE",
"50 0 LINE",
"100 0 LINE",
"173 351 LINE",
"503 351 LINE",
"429 0 LINE",
"606 0 LINE SMOOTH",
"770 0 OFFCURVE",
"865 82 OFFCURVE",
"865 227 CURVE SMOOTH"
);
},
{
closed = 1;
nodes = (
"766 351 OFFCURVE",
"813 310 OFFCURVE",
"813 224 CURVE SMOOTH",
"813 104 OFFCURVE",
"738 44 OFFCURVE",
"605 44 CURVE SMOOTH",
"488 44 LINE",
"554 351 LINE",
"667 351 LINE SMOOTH"
);
}
);
width = 925;
}
);
note = afii10059;
unicode = 040A;
},
{
glyphname = afii10060;
lastChange = "2018-06-23 23:45:44 +0000";
layers = (
{
layerId = "4082F5B4-16CD-4EE9-8420-2E9C5A704856";
paths = (
{
closed = 1;
nodes = (
"532 148 OFFCURVE",
"550 229 OFFCURVE",
"552 242 CURVE SMOOTH",
"554 255 OFFCURVE",
"555 269 OFFCURVE",
"555 282 CURVE SMOOTH",
"555 378 OFFCURVE",
"501 426 OFFCURVE",
"393 426 CURVE SMOOTH",
"244 426 LINE",
"296 668 LINE",
"512 668 LINE",
"521 714 LINE",
"106 714 LINE",
"96 668 LINE",
"246 668 LINE",
"105 0 LINE",
"155 0 LINE",
"235 382 LINE",
"382 382 LINE SMOOTH",
"470 382 OFFCURVE",
"506 350 OFFCURVE",
"506 275 CURVE SMOOTH",
"506 253 OFFCURVE",
"501 223 OFFCURVE",
"492 185 CURVE SMOOTH",
"451 0 LINE",
"499 0 LINE"
);
}
);
width = 641;
}
);
note = afii10060;
unicode = 040B;
},
{
glyphname = afii10145;
lastChange = "2018-06-23 23:45:44 +0000";
layers = (
{
layerId = "4082F5B4-16CD-4EE9-8420-2E9C5A704856";
paths = (
{
closed = 1;
nodes = (
"264 0 LINE",
"226 -174 LINE",
"275 -174 LINE",
"312 0 LINE",
"519 0 LINE",
"670 714 LINE",
"620 714 LINE",
"479 47 LINE",
"109 47 LINE",
"250 714 LINE",
"201 714 LINE",
"50 0 LINE"
);
}
);
width = 671;
}
);
note = afii10145;
unicode = 040F;
},
{
glyphname = afii10018;
lastChange = "2018-06-23 23:45:44 +0000";
layers = (
{
layerId = "4082F5B4-16CD-4EE9-8420-2E9C5A704856";
paths = (
{
closed = 1;
nodes = (
"486 336 OFFCURVE",
"418 396 OFFCURVE",
"297 396 CURVE SMOOTH",
"184 396 LINE",
"242 668 LINE",
"523 668 LINE",
"533 714 LINE",
"201 714 LINE",
"50 0 LINE",
"227 0 LINE SMOOTH",
"391 0 OFFCURVE",
"486 83 OFFCURVE",
"486 227 CURVE SMOOTH"
);
},
{
closed = 1;
nodes = (
"386 352 OFFCURVE",
"434 312 OFFCURVE",
"434 224 CURVE SMOOTH",
"434 104 OFFCURVE",
"359 44 OFFCURVE",
"226 44 CURVE SMOOTH",
"109 44 LINE",
"175 352 LINE",
"288 352 LINE SMOOTH"
);
}
);
width = 543;
}
);
note = afii10018;
unicode = 0411;
},
{
glyphname = afii10021;
lastChange = "2018-06-23 23:45:44 +0000";
layers = (
{
layerId = "4082F5B4-16CD-4EE9-8420-2E9C5A704856";
paths = (
{
closed = 1;
nodes = (
"600 714 LINE",
"337 714 LINE",
"237 412 OFFCURVE",
"125 181 OFFCURVE",
"10 46 CURVE",
"-29 46 LINE",
"-80 -174 LINE",
"-31 -174 LINE",
"9 0 LINE",
"481 0 LINE",
"442 -174 LINE",
"493 -174 LINE",
"541 46 LINE",
"458 46 LINE"
);
},
{
closed = 1;
nodes = (
"408 46 LINE",
"68 46 LINE",
"167 162 OFFCURVE",
"277 385 OFFCURVE",
"372 668 CURVE",
"540 668 LINE"
);
}
);
width = 569;
}
);
note = afii10021;
unicode = 0414;
},
{
glyphname = afii10024;
lastChange = "2018-06-23 23:45:44 +0000";
layers = (
{
anchors = (
{
name = bottomright;
position = "{662, 0}";
},
{
name = top;
position = "{459, 714}";
}
);
layerId = "4082F5B4-16CD-4EE9-8420-2E9C5A704856";
paths = (
{
closed = 1;
nodes = (
"26 0 LINE",
"367 361 LINE",
"290 0 LINE",
"340 0 LINE",
"415 360 LINE",
"625 0 LINE",
"685 0 LINE",
"473 360 LINE",
"823 714 LINE",
"755 714 LINE",
"417 369 LINE",
"491 714 LINE",
"441 714 LINE",
"369 370 LINE",
"167 714 LINE",
"106 714 LINE",
"313 371 LINE",
"-43 0 LINE"
);
}
);
width = 728;
}
);
note = afii10024;
unicode = 0416;
},
{
glyphname = afii10025;
lastChange = "2018-06-23 23:45:44 +0000";
layers = (
{
anchors = (
{
name = bottom;
position = "{192, 0}";
},
{
name = top;
position = "{344, 714}";
}
);
layerId = "4082F5B4-16CD-4EE9-8420-2E9C5A704856";
paths = (
{
closed = 1;
nodes = (
"482 668 OFFCURVE",
"418 724 OFFCURVE",
"311 724 CURVE SMOOTH",
"241 724 OFFCURVE",
"175 703 OFFCURVE",
"113 661 CURVE",
"139 624 LINE",
"195 663 OFFCURVE",
"250 682 OFFCURVE",
"305 682 CURVE SMOOTH",
"386 682 OFFCURVE",
"431 640 OFFCURVE",
"431 566 CURVE SMOOTH",
"431 532 OFFCURVE",
"423 502 OFFCURVE",
"406 477 CURVE SMOOTH",
"372 425 OFFCURVE",
"298 394 OFFCURVE",
"213 394 CURVE SMOOTH",
"126 394 LINE",
"117 347 LINE",
"206 347 LINE SMOOTH",
"328 347 OFFCURVE",
"388 300 OFFCURVE",
"388 207 CURVE SMOOTH",
"388 98 OFFCURVE",
"314 34 OFFCURVE",
"181 34 CURVE SMOOTH",
"110 34 OFFCURVE",
"44 51 OFFCURVE",
"-15 86 CURVE",
"-15 29 LINE",
"43 3 OFFCURVE",
"106 -10 OFFCURVE",
"175 -10 CURVE SMOOTH",
"229 -10 OFFCURVE",
"275 -1 OFFCURVE",
"314 16 CURVE SMOOTH",
"392 49 OFFCURVE",
"438 120 OFFCURVE",
"438 204 CURVE SMOOTH",
"438 295 OFFCURVE",
"392 354 OFFCURVE",
"307 369 CURVE",
"307 371 LINE",
"422 398 OFFCURVE",
"482 467 OFFCURVE",
"482 571 CURVE SMOOTH"
);
}
);
width = 498;
}
);
note = afii10025;
unicode = 0417;
},
{
glyphname = afii10026;
lastChange = "2018-06-23 23:45:44 +0000";
layers = (
{
anchors = (
{
name = bottomright;
position = "{602, 0}";
},
{
name = top;
position = "{429, 714}";
}
);
layerId = "4082F5B4-16CD-4EE9-8420-2E9C5A704856";
paths = (
{
closed = 1;
nodes = (
"99 0 LINE",
"612 638 LINE",
"601 598 OFFCURVE",
"584 528 OFFCURVE",
"563 428 CURVE SMOOTH",
"542 328 OFFCURVE",
"512 185 OFFCURVE",
"473 0 CURVE",
"522 0 LINE",
"673 714 LINE",
"619 714 LINE",
"114 87 LINE",
"119 106 OFFCURVE",
"134 172 OFFCURVE",
"160 285 CURVE SMOOTH",
"251 714 LINE",
"201 714 LINE",
"50 0 LINE"
);
}
);
width = 668;
}
);
note = afii10026;
unicode = 0418;
},
{
glyphname = afii10028;
lastChange = "2018-06-23 23:45:44 +0000";
layers = (
{
anchors = (
{
name = bottomright;
position = "{474, 0}";
},
{
name = top;
position = "{365, 714}";
}
);
layerId = "4082F5B4-16CD-4EE9-8420-2E9C5A704856";
paths = (
{
closed = 1;
nodes = (
"628 714 LINE",
"558 714 LINE",
"174 359 LINE",
"251 714 LINE",
"201 714 LINE",
"50 0 LINE",
"100 0 LINE",
"174 356 LINE",
"445 0 LINE",
"508 0 LINE",
"233 356 LINE"
);
}
);
width = 540;
}
);
note = afii10028;
unicode = 041A;
},
{
glyphname = afii10029;
lastChange = "2018-06-23 23:45:44 +0000";
layers = (
{
layerId = "4082F5B4-16CD-4EE9-8420-2E9C5A704856";
paths = (
{
closed = 1;
nodes = (
"422 0 LINE",
"471 0 LINE",
"622 714 LINE",
"313 714 LINE",
"263 540 OFFCURVE",
"223 407 OFFCURVE",
"193 315 CURVE SMOOTH",
"164 223 OFFCURVE",
"141 160 OFFCURVE",
"125 128 CURVE SMOOTH",
"92 63 OFFCURVE",
"60 36 OFFCURVE",
"9 36 CURVE SMOOTH",
"-10 36 OFFCURVE",
"-26 39 OFFCURVE",
"-41 44 CURVE",
"-41 -3 LINE",
"-25 -8 OFFCURVE",
"-9 -11 OFFCURVE",
"9 -11 CURVE SMOOTH",
"75 -11 OFFCURVE",
"119 18 OFFCURVE",
"156 83 CURVE SMOOTH",
"175 116 OFFCURVE",
"198 174 OFFCURVE",
"226 256 CURVE SMOOTH",
"253 339 OFFCURVE",
"289 454 OFFCURVE",
"332 601 CURVE SMOOTH",
"351 668 LINE",
"563 668 LINE"
);
}
);
width = 618;
}
);
note = afii10029;
unicode = 041B;
},
{
glyphname = afii10037;
lastChange = "2018-06-23 23:45:44 +0000";
layers = (
{
anchors = (
{
name = top;
position = "{375, 714}";
}
);
layerId = "4082F5B4-16CD-4EE9-8420-2E9C5A704856";
paths = (
{
closed = 1;
nodes = (
"157 -10 OFFCURVE",
"225 40 OFFCURVE",
"298 157 CURVE SMOOTH",
"651 714 LINE",
"594 714 LINE",
"447 480 OFFCURVE",
"365 347 OFFCURVE",
"347 316 CURVE SMOOTH",
"329 286 OFFCURVE",
"314 260 OFFCURVE",
"303 240 CURVE",
"278 331 OFFCURVE",
"264 383 OFFCURVE",
"260 396 CURVE SMOOTH",
"165 714 LINE",
"114 714 LINE",
"269 205 LINE",
"193 80 OFFCURVE",
"140 41 OFFCURVE",
"68 41 CURVE SMOOTH",
"37 41 OFFCURVE",
"11 47 OFFCURVE",
"-11 59 CURVE",
"-11 5 LINE",
"9 -5 OFFCURVE",
"35 -10 OFFCURVE",
"65 -10 CURVE SMOOTH"
);
}
);
width = 559;
}
);
note = afii10037;
unicode = 0423;
},
{
glyphname = afii10040;
lastChange = "2018-06-23 23:45:44 +0000";
layers = (
{
layerId = "4082F5B4-16CD-4EE9-8420-2E9C5A704856";
paths = (
{
closed = 1;
nodes = (
"109 46 LINE",
"250 714 LINE",
"201 714 LINE",
"50 0 LINE",
"551 0 LINE",
"512 -174 LINE",
"563 -174 LINE",
"611 46 LINE",
"529 46 LINE",
"670 714 LINE",
"621 714 LINE",
"479 46 LINE"
);
}
);
width = 695;
}
);
note = afii10040;
unicode = 0426;
},
{
glyphname = afii10041;
lastChange = "2018-06-23 23:45:44 +0000";
layers = (
{
anchors = (
{
name = bottomright;
position = "{516, 0}";
},
{
name = top;
position = "{386, 714}";
}
);
layerId = "4082F5B4-16CD-4EE9-8420-2E9C5A704856";
paths = (
{
closed = 1;
nodes = (
"585 714 LINE",
"536 714 LINE",
"458 347 LINE",
"387 318 OFFCURVE",
"320 303 OFFCURVE",
"257 303 CURVE SMOOTH",
"188 303 OFFCURVE",
"150 334 OFFCURVE",
"150 394 CURVE SMOOTH",
"150 412 OFFCURVE",
"154 440 OFFCURVE",
"162 478 CURVE SMOOTH",
"212 714 LINE",
"162 714 LINE",
"111 471 LINE SMOOTH",
"104 438 OFFCURVE",
"100 412 OFFCURVE",
"100 391 CURVE SMOOTH",
"100 305 OFFCURVE",
"155 259 OFFCURVE",
"250 259 CURVE SMOOTH",
"312 259 OFFCURVE",
"378 273 OFFCURVE",
"449 303 CURVE",
"385 0 LINE",
"434 0 LINE"
);
}
);
width = 582;
}
);
note = afii10041;
unicode = 0427;
},
{
glyphname = afii10042;
lastChange = "2018-06-23 23:45:44 +0000";
layers = (
{
layerId = "4082F5B4-16CD-4EE9-8420-2E9C5A704856";
paths = (
{
closed = 1;
nodes = (
"937 714 LINE",
"888 714 LINE",
"746 46 LINE",
"452 46 LINE",
"593 714 LINE",
"544 714 LINE",
"402 46 LINE",
"109 46 LINE",
"250 714 LINE",
"201 714 LINE",
"50 0 LINE",
"786 0 LINE"
);
}
);
width = 930;
}
);
note = afii10042;
unicode = 0428;
},
{
glyphname = afii10043;
lastChange = "2018-06-23 23:45:44 +0000";
layers = (
{
layerId = "4082F5B4-16CD-4EE9-8420-2E9C5A704856";
paths = (
{
closed = 1;
nodes = (
"937 714 LINE",
"888 714 LINE",
"746 46 LINE",
"452 46 LINE",
"593 714 LINE",
"544 714 LINE",
"402 46 LINE",
"109 46 LINE",
"250 714 LINE",
"201 714 LINE",
"50 0 LINE",
"818 0 LINE",
"779 -174 LINE",
"830 -174 LINE",
"878 46 LINE",
"796 46 LINE"
);
}
);
width = 962;
}
);
note = afii10043;
unicode = 0429;
},
{
glyphname = afii10044;
lastChange = "2018-06-23 23:45:44 +0000";
layers = (
{
anchors = (
{
name = top;
position = "{403, 714}";
}
);
layerId = "4082F5B4-16CD-4EE9-8420-2E9C5A704856";
paths = (
{
closed = 1;
nodes = (
"556 336 OFFCURVE",
"489 396 OFFCURVE",
"367 396 CURVE SMOOTH",
"254 396 LINE",
"322 714 LINE",
"104 714 LINE",
"94 668 LINE",
"261 668 LINE",
"120 0 LINE",
"297 0 LINE SMOOTH",
"460 0 OFFCURVE",
"556 82 OFFCURVE",
"556 227 CURVE SMOOTH"
);
},
{
closed = 1;
nodes = (
"456 352 OFFCURVE",
"504 312 OFFCURVE",
"504 224 CURVE SMOOTH",
"504 104 OFFCURVE",
"429 44 OFFCURVE",
"296 44 CURVE SMOOTH",
"179 44 LINE",
"245 352 LINE",
"358 352 LINE SMOOTH"
);
}
);
width = 616;
}
);
note = afii10044;
unicode = 042A;
},
{
glyphname = afii10045;
lastChange = "2018-06-23 23:45:44 +0000";
layers = (
{
anchors = (
{
name = top;
position = "{470, 714}";
}
);
layerId = "4082F5B4-16CD-4EE9-8420-2E9C5A704856";
paths = (
{
closed = 1;
nodes = (
"486 336 OFFCURVE",
"418 396 OFFCURVE",
"297 396 CURVE SMOOTH",
"184 396 LINE",
"252 714 LINE",
"201 714 LINE",
"50 0 LINE",
"227 0 LINE SMOOTH",
"391 0 OFFCURVE",
"486 83 OFFCURVE",
"486 227 CURVE SMOOTH"
);
},
{
closed = 1;
nodes = (
"386 352 OFFCURVE",
"434 312 OFFCURVE",
"434 224 CURVE SMOOTH",
"434 104 OFFCURVE",
"359 44 OFFCURVE",
"226 44 CURVE SMOOTH",
"109 44 LINE",
"175 352 LINE",
"288 352 LINE SMOOTH"
);
},
{
closed = 1;
nodes = (
"708 714 LINE",
"557 0 LINE",
"607 0 LINE",
"758 714 LINE"
);
}
);
width = 750;
}
);
note = afii10045;
unicode = 042B;
},
{
glyphname = afii10046;
lastChange = "2018-06-23 23:45:44 +0000";
layers = (
{
layerId = "4082F5B4-16CD-4EE9-8420-2E9C5A704856";
paths = (
{
closed = 1;
nodes = (
"486 336 OFFCURVE",
"418 396 OFFCURVE",
"297 396 CURVE SMOOTH",
"184 396 LINE",
"252 714 LINE",
"201 714 LINE",
"50 0 LINE",
"227 0 LINE SMOOTH",
"391 0 OFFCURVE",
"486 83 OFFCURVE",
"486 227 CURVE SMOOTH"
);
},
{
closed = 1;
nodes = (
"386 352 OFFCURVE",
"434 312 OFFCURVE",
"434 224 CURVE SMOOTH",
"434 104 OFFCURVE",
"359 44 OFFCURVE",
"226 44 CURVE SMOOTH",
"109 44 LINE",
"175 352 LINE",
"288 352 LINE SMOOTH"
);
}
);
width = 546;
}
);
note = afii10046;
unicode = 042C;
},
{
glyphname = afii10047;
lastChange = "2018-06-23 23:45:44 +0000";
layers = (
{
anchors = (
{
name = top;
position = "{381, 714}";
}
);
layerId = "4082F5B4-16CD-4EE9-8420-2E9C5A704856";
paths = (
{
closed = 1;
nodes = (
"124 35 OFFCURVE",
"67 50 OFFCURVE",
"7 80 CURVE",
"7 27 LINE",
"54 2 OFFCURVE",
"111 -10 OFFCURVE",
"178 -10 CURVE SMOOTH",
"249 -10 OFFCURVE",
"312 8 OFFCURVE",
"365 44 CURVE SMOOTH",
"472 115 OFFCURVE",
"538 268 OFFCURVE",
"538 445 CURVE SMOOTH",
"538 624 OFFCURVE",
"452 724 OFFCURVE",
"289 724 CURVE SMOOTH",
"244 724 OFFCURVE",
"194 718 OFFCURVE",
"120 693 CURVE",
"133 647 LINE",
"191 668 OFFCURVE",
"241 678 OFFCURVE",
"282 678 CURVE SMOOTH",
"415 678 OFFCURVE",
"485 596 OFFCURVE",
"485 440 CURVE SMOOTH",
"484 405 LINE",
"162 405 LINE",
"154 358 LINE",
"479 358 LINE",
"447 146 OFFCURVE",
"344 35 OFFCURVE",
"178 35 CURVE SMOOTH"
);
}
);
width = 571;
}
);
note = afii10047;
unicode = 042D;
},
{
glyphname = afii10048;
lastChange = "2018-06-23 23:45:44 +0000";
layers = (
{
anchors = (
{
name = top;
position = "{590, 714}";
}
);
layerId = "4082F5B4-16CD-4EE9-8420-2E9C5A704856";
paths = (
{
closed = 1;
nodes = (
"959 624 OFFCURVE",
"871 724 OFFCURVE",
"710 724 CURVE SMOOTH",
"653 724 OFFCURVE",
"601 711 OFFCURVE",
"554 684 CURVE SMOOTH",
"460 631 OFFCURVE",
"396 529 OFFCURVE",
"370 397 CURVE",
"183 397 LINE",
"251 714 LINE",
"201 714 LINE",
"50 0 LINE",
"100 0 LINE",
"173 351 LINE",
"362 351 LINE",
"359 330 OFFCURVE",
"358 304 OFFCURVE",
"358 273 CURVE SMOOTH",
"358 90 OFFCURVE",
"449 -10 OFFCURVE",
"612 -10 CURVE SMOOTH",
"682 -10 OFFCURVE",
"743 10 OFFCURVE",
"795 48 CURVE SMOOTH",
"899 125 OFFCURVE",
"959 285 OFFCURVE",
"959 445 CURVE SMOOTH"
);
},
{
closed = 1;
nodes = (
"837 678 OFFCURVE",
"906 596 OFFCURVE",
"906 440 CURVE SMOOTH",
"906 365 OFFCURVE",
"893 295 OFFCURVE",
"867 230 CURVE SMOOTH",
"816 99 OFFCURVE",
"728 35 OFFCURVE",
"618 35 CURVE SMOOTH",
"482 35 OFFCURVE",
"409 120 OFFCURVE",
"409 280 CURVE SMOOTH",
"409 351 OFFCURVE",
"422 418 OFFCURVE",
"448 483 CURVE SMOOTH",
"500 612 OFFCURVE",
"590 678 OFFCURVE",
"703 678 CURVE SMOOTH"
);
}
);
width = 989;
}
);
note = afii10048;
unicode = 042E;
},
{
glyphname = afii10049;
lastChange = "2018-06-23 23:45:44 +0000";
layers = (
{
anchors = (
{
name = top;
position = "{368, 714}";
}
);
layerId = "4082F5B4-16CD-4EE9-8420-2E9C5A704856";
paths = (
{
closed = 1;
nodes = (
"352 0 LINE",
"402 0 LINE",
"553 714 LINE",
"391 714 LINE SMOOTH",
"223 714 OFFCURVE",
"125 634 OFFCURVE",
"125 491 CURVE SMOOTH",
"125 414 OFFCURVE",
"167 349 OFFCURVE",
"235 323 CURVE",
"-25 0 LINE",
"36 0 LINE",
"287 310 LINE",
"417 310 LINE"
);
},
{
closed = 1;
nodes = (
"327 354 LINE SMOOTH",
"231 354 OFFCURVE",
"175 408 OFFCURVE",
"175 494 CURVE SMOOTH",
"175 608 OFFCURVE",
"249 669 OFFCURVE",
"398 669 CURVE SMOOTH",
"494 669 LINE",
"427 354 LINE"
);
}
);
width = 546;
}
);
note = afii10049;
unicode = 042F;
},
{
glyphname = afii10066;
lastChange = "2018-06-23 23:45:44 +0000";
layers = (
{
layerId = "4082F5B4-16CD-4EE9-8420-2E9C5A704856";
paths = (
{
closed = 1;
nodes = (
"48 69 OFFCURVE",
"110 -10 OFFCURVE",
"222 -10 CURVE SMOOTH",
"271 -10 OFFCURVE",
"313 2 OFFCURVE",
"348 27 CURVE SMOOTH",
"420 75 OFFCURVE",
"464 181 OFFCURVE",
"464 303 CURVE SMOOTH",
"464 425 OFFCURVE",
"407 491 OFFCURVE",
"309 491 CURVE SMOOTH",
"238 491 OFFCURVE",
"173 456 OFFCURVE",
"115 385 CURVE",
"113 385 LINE",
"148 537 OFFCURVE",
"214 632 OFFCURVE",
"301 663 CURVE SMOOTH",
"341 676 OFFCURVE",
"411 692 OFFCURVE",
"510 711 CURVE SMOOTH",
"541 717 LINE",
"535 759 LINE",
"511 755 OFFCURVE",
"472 748 OFFCURVE",
"417 737 CURVE SMOOTH",
"310 715 OFFCURVE",
"240 706 OFFCURVE",
"168 617 CURVE SMOOTH",
"96 527 OFFCURVE",
"48 368 OFFCURVE",
"48 212 CURVE SMOOTH"
);
},
{
closed = 1;
nodes = (
"139 32 OFFCURVE",
"97 91 OFFCURVE",
"97 216 CURVE SMOOTH",
"97 247 OFFCURVE",
"102 303 OFFCURVE",
"106 326 CURVE",
"174 414 OFFCURVE",
"234 448 OFFCURVE",
"300 448 CURVE SMOOTH",
"371 448 OFFCURVE",
"414 400 OFFCURVE",
"414 297 CURVE SMOOTH",
"414 246 OFFCURVE",
"407 200 OFFCURVE",
"392 160 CURVE SMOOTH",
"362 80 OFFCURVE",
"305 32 OFFCURVE",
"229 32 CURVE SMOOTH"
);
}
);
width = 518;
}
);
note = afii10066;
unicode = 0431;
},
{
glyphname = afii10067;
lastChange = "2018-06-23 23:45:44 +0000";
layers = (
{
layerId = "4082F5B4-16CD-4EE9-8420-2E9C5A704856";
paths = (
{
closed = 1;
nodes = (
"276 539 OFFCURVE",
"229 524 OFFCURVE",
"186 495 CURVE SMOOTH",
"101 437 OFFCURVE",
"51 327 OFFCURVE",
"51 206 CURVE SMOOTH",
"51 67 OFFCURVE",
"119 -10 OFFCURVE",
"245 -10 CURVE SMOOTH",
"288 -10 OFFCURVE",
"325 -3 OFFCURVE",
"356 11 CURVE SMOOTH",
"418 39 OFFCURVE",
"452 90 OFFCURVE",
"452 151 CURVE SMOOTH",
"452 211 OFFCURVE",
"412 251 OFFCURVE",
"344 262 CURVE",
"344 264 LINE",
"432 283 OFFCURVE",
"481 332 OFFCURVE",
"481 409 CURVE SMOOTH",
"481 491 OFFCURVE",
"425 539 OFFCURVE",
"329 539 CURVE SMOOTH"
);
},
{
closed = 1;
nodes = (
"358 238 OFFCURVE",
"402 208 OFFCURVE",
"402 147 CURVE SMOOTH",
"402 77 OFFCURVE",
"347 34 OFFCURVE",
"253 34 CURVE SMOOTH",
"153 34 OFFCURVE",
"99 92 OFFCURVE",
"99 202 CURVE SMOOTH",
"100 238 LINE",
"270 238 LINE SMOOTH"
);
},
{
closed = 1;
nodes = (
"394 497 OFFCURVE",
"431 461 OFFCURVE",
"431 404 CURVE SMOOTH",
"431 324 OFFCURVE",
"360 281 OFFCURVE",
"221 281 CURVE SMOOTH",
"104 281 LINE",
"129 411 OFFCURVE",
"217 497 OFFCURVE",
"325 497 CURVE SMOOTH"
);
}
);
width = 520;
}
);
note = afii10067;
unicode = 0432;
},
{
glyphname = afii10068;
lastChange = "2018-06-23 23:45:44 +0000";
layers = (
{
anchors = (
{
name = bottomright;
position = "{379, 0}";
},
{
name = top;
position = "{280, 531}";
}
);
layerId = "4082F5B4-16CD-4EE9-8420-2E9C5A704856";
paths = (
{
closed = 1;
nodes = (
"182 482 OFFCURVE",
"240 496 OFFCURVE",
"278 496 CURVE SMOOTH",
"337 496 OFFCURVE",
"370 472 OFFCURVE",
"370 423 CURVE SMOOTH",
"370 390 OFFCURVE",
"354 365 OFFCURVE",
"318 343 CURVE SMOOTH",
"300 332 OFFCURVE",
"268 317 OFFCURVE",
"219 298 CURVE SMOOTH",
"169 278 OFFCURVE",
"132 260 OFFCURVE",
"108 244 CURVE SMOOTH",
"61 211 OFFCURVE",
"38 171 OFFCURVE",
"38 118 CURVE SMOOTH",
"38 37 OFFCURVE",
"93 -10 OFFCURVE",
"188 -10 CURVE SMOOTH",
"258 -10 OFFCURVE",
"311 7 OFFCURVE",
"354 24 CURVE",
"354 68 LINE",
"301 44 OFFCURVE",
"247 32 OFFCURVE",
"194 32 CURVE SMOOTH",
"124 32 OFFCURVE",
"88 63 OFFCURVE",
"88 120 CURVE SMOOTH",
"88 164 OFFCURVE",
"106 193 OFFCURVE",
"147 219 CURVE SMOOTH",
"167 231 OFFCURVE",
"203 247 OFFCURVE",
"252 265 CURVE SMOOTH",
"376 310 OFFCURVE",
"420 357 OFFCURVE",
"420 429 CURVE SMOOTH",
"420 500 OFFCURVE",
"373 539 OFFCURVE",
"284 539 CURVE SMOOTH",
"257 539 OFFCURVE",
"229 536 OFFCURVE",
"196 529 CURVE SMOOTH",
"180 525 OFFCURVE",
"152 517 OFFCURVE",
"113 503 CURVE",
"127 461 LINE"
);
}
);
width = 446;
}
);
note = afii10068;
unicode = 0433;
},
{
glyphname = afii10069;
lastChange = "2018-06-23 23:45:44 +0000";
layers = (
{
layerId = "4082F5B4-16CD-4EE9-8420-2E9C5A704856";
paths = (
{
closed = 1;
nodes = (
"504 675 OFFCURVE",
"445 770 OFFCURVE",
"319 770 CURVE SMOOTH",
"274 770 OFFCURVE",
"224 755 OFFCURVE",
"190 736 CURVE",
"209 696 LINE",
"233 711 OFFCURVE",
"279 726 OFFCURVE",
"314 726 CURVE SMOOTH",
"409 726 OFFCURVE",
"456 644 OFFCURVE",
"456 470 CURVE SMOOTH",
"456 446 OFFCURVE",
"456 429 OFFCURVE",
"454 420 CURVE",
"451 420 LINE",
"430 488 OFFCURVE",
"384 522 OFFCURVE",
"313 522 CURVE SMOOTH",
"265 522 OFFCURVE",
"221 507 OFFCURVE",
"182 476 CURVE SMOOTH",
"102 415 OFFCURVE",
"50 292 OFFCURVE",
"50 173 CURVE SMOOTH",
"50 60 OFFCURVE",
"104 -10 OFFCURVE",
"200 -10 CURVE SMOOTH",
"283 -10 OFFCURVE",
"355 36 OFFCURVE",
"412 128 CURVE SMOOTH",
"468 220 OFFCURVE",
"504 358 OFFCURVE",
"504 476 CURVE SMOOTH"
);
},
{
closed = 1;
nodes = (
"136 34 OFFCURVE",
"100 82 OFFCURVE",
"100 178 CURVE SMOOTH",
"100 229 OFFCURVE",
"109 278 OFFCURVE",
"128 325 CURVE SMOOTH",
"166 418 OFFCURVE",
"235 480 OFFCURVE",
"311 480 CURVE SMOOTH",
"375 480 OFFCURVE",
"419 437 OFFCURVE",
"442 350 CURVE",
"403 155 OFFCURVE",
"313 34 OFFCURVE",
"208 34 CURVE SMOOTH"
);
}
);
width = 543;
}
);
note = afii10069;
unicode = 0434;
},
{
glyphname = afii10072;
lastChange = "2018-06-23 23:45:44 +0000";
layers = (
{
anchors = (
{
name = bottomright;
position = "{706, 0}";
},
{
name = top;
position = "{443, 531}";
}
);
layerId = "4082F5B4-16CD-4EE9-8420-2E9C5A704856";
paths = (
{
closed = 1;
nodes = (
"425 531 LINE",
"374 294 LINE",
"294 294 LINE",
"295 304 OFFCURVE",
"296 318 OFFCURVE",
"296 334 CURVE SMOOTH",
"296 471 OFFCURVE",
"242 539 OFFCURVE",
"133 539 CURVE SMOOTH",
"117 539 OFFCURVE",
"98 537 OFFCURVE",
"74 533 CURVE",
"74 490 LINE",
"94 494 OFFCURVE",
"112 495 OFFCURVE",
"129 495 CURVE SMOOTH",
"211 495 OFFCURVE",
"248 440 OFFCURVE",
"248 325 CURVE SMOOTH",
"248 274 OFFCURVE",
"239 226 OFFCURVE",
"221 180 CURVE SMOOTH",
"186 88 OFFCURVE",
"122 34 OFFCURVE",
"46 34 CURVE SMOOTH",
"23 34 OFFCURVE",
"2 37 OFFCURVE",
"-16 43 CURVE",
"-25 -2 LINE",
"-5 -7 OFFCURVE",
"17 -10 OFFCURVE",
"41 -10 CURVE SMOOTH",
"83 -10 OFFCURVE",
"121 1 OFFCURVE",
"155 23 CURVE SMOOTH",
"222 66 OFFCURVE",
"269 147 OFFCURVE",
"288 251 CURVE",
"365 251 LINE",
"312 0 LINE",
"359 0 LINE",
"412 251 LINE",
"493 251 LINE",
"490 229 OFFCURVE",
"489 210 OFFCURVE",
"489 195 CURVE SMOOTH",
"489 59 OFFCURVE",
"543 -10 OFFCURVE",
"652 -10 CURVE SMOOTH",
"668 -10 OFFCURVE",
"688 -8 OFFCURVE",
"711 -4 CURVE",
"711 39 LINE",
"691 36 OFFCURVE",
"673 34 OFFCURVE",
"656 34 CURVE SMOOTH",
"574 34 OFFCURVE",
"537 89 OFFCURVE",
"537 204 CURVE SMOOTH",
"537 256 OFFCURVE",
"546 305 OFFCURVE",
"565 352 CURVE SMOOTH",
"602 444 OFFCURVE",
"665 495 OFFCURVE",
"739 495 CURVE SMOOTH",
"762 495 OFFCURVE",
"782 492 OFFCURVE",
"801 486 CURVE",
"810 531 LINE",
"791 536 OFFCURVE",
"769 539 OFFCURVE",
"744 539 CURVE SMOOTH",
"702 539 OFFCURVE",
"664 529 OFFCURVE",
"630 508 CURVE SMOOTH",
"564 467 OFFCURVE",
"518 391 OFFCURVE",
"500 294 CURVE",
"421 294 LINE",
"471 531 LINE"
);
}
);
width = 772;
}
);
note = afii10072;
unicode = 0436;
},
{
glyphname = afii10073;
lastChange = "2018-06-23 23:45:44 +0000";
layers = (
{
anchors = (
{
name = bottom;
position = "{139, 0}";
},
{
name = top;
position = "{252, 531}";
}
);
layerId = "4082F5B4-16CD-4EE9-8420-2E9C5A704856";
paths = (
{
closed = 1;
nodes = (
"110 256 LINE",
"151 256 LINE SMOOTH",
"243 256 OFFCURVE",
"283 227 OFFCURVE",
"283 157 CURVE SMOOTH",
"283 81 OFFCURVE",
"226 33 OFFCURVE",
"133 33 CURVE SMOOTH",
"83 33 OFFCURVE",
"37 47 OFFCURVE",
"-9 75 CURVE",
"-9 22 LINE",
"22 4 OFFCURVE",
"73 -10 OFFCURVE",
"129 -10 CURVE SMOOTH",
"170 -10 OFFCURVE",
"207 -2 OFFCURVE",
"237 12 CURVE SMOOTH",
"298 40 OFFCURVE",
"333 94 OFFCURVE",
"333 160 CURVE SMOOTH",
"333 223 OFFCURVE",
"301 265 OFFCURVE",
"240 278 CURVE",
"240 280 LINE",
"319 295 OFFCURVE",
"364 345 OFFCURVE",
"364 419 CURVE SMOOTH",
"364 495 OFFCURVE",
"314 539 OFFCURVE",
"230 539 CURVE SMOOTH",
"174 539 OFFCURVE",
"133 530 OFFCURVE",
"79 497 CURVE",
"99 458 LINE",
"147 488 OFFCURVE",
"181 497 OFFCURVE",
"220 497 CURVE SMOOTH",
"277 497 OFFCURVE",
"314 464 OFFCURVE",
"314 413 CURVE SMOOTH",
"314 341 OFFCURVE",
"259 301 OFFCURVE",
"164 301 CURVE SMOOTH",
"120 301 LINE"
);
}
);
width = 390;
}
);
note = afii10073;
unicode = 0437;
},
{
glyphname = afii10076;
lastChange = "2018-06-23 23:45:44 +0000";
layers = (
{
anchors = (
{
name = bottomright;
position = "{389, 0}";
},
{
name = top;
position = "{284, 531}";
}
);
layerId = "4082F5B4-16CD-4EE9-8420-2E9C5A704856";
paths = (
{
closed = 1;
nodes = (
"193 531 LINE",
"145 531 LINE",
"35 0 LINE",
"83 0 LINE",
"138 268 LINE",
"329 0 LINE",
"391 0 LINE",
"194 270 LINE",
"490 531 LINE",
"419 531 LINE",
"139 275 LINE"
);
}
);
width = 455;
}
);
note = afii10076;
unicode = 043A;
},
{
glyphname = afii10077;
lastChange = "2018-06-23 23:45:44 +0000";
layers = (
{
layerId = "4082F5B4-16CD-4EE9-8420-2E9C5A704856";
paths = (
{
closed = 1;
nodes = (
"437 532 OFFCURVE",
"409 535 OFFCURVE",
"383 535 CURVE SMOOTH",
"305 535 OFFCURVE",
"256 509 OFFCURVE",
"215 444 CURVE SMOOTH",
"195 412 OFFCURVE",
"171 355 OFFCURVE",
"144 274 CURVE SMOOTH",
"120 203 OFFCURVE",
"100 152 OFFCURVE",
"85 122 CURVE SMOOTH",
"55 61 OFFCURVE",
"27 39 OFFCURVE",
"-21 39 CURVE SMOOTH",
"-31 39 OFFCURVE",
"-41 41 OFFCURVE",
"-50 43 CURVE",
"-50 -1 LINE",
"-42 -3 OFFCURVE",
"-32 -5 OFFCURVE",
"-20 -5 CURVE SMOOTH",
"42 -5 OFFCURVE",
"83 22 OFFCURVE",
"118 87 CURVE SMOOTH",
"136 119 OFFCURVE",
"159 177 OFFCURVE",
"187 260 CURVE SMOOTH",
"210 329 OFFCURVE",
"230 379 OFFCURVE",
"247 410 CURVE SMOOTH",
"281 471 OFFCURVE",
"316 494 OFFCURVE",
"376 494 CURVE SMOOTH",
"388 494 OFFCURVE",
"400 493 OFFCURVE",
"412 491 CURVE",
"307 0 LINE",
"354 0 LINE",
"467 527 LINE"
);
}
);
width = 502;
}
);
note = afii10077;
unicode = 043B;
},
{
glyphname = afii10078;
lastChange = "2018-06-23 23:45:44 +0000";
layers = (
{
layerId = "4082F5B4-16CD-4EE9-8420-2E9C5A704856";
paths = (
{
closed = 1;
nodes = (
"618 531 LINE",
"561 531 LINE",
"400 274 OFFCURVE",
"314 135 OFFCURVE",
"303 115 CURVE SMOOTH",
"291 95 OFFCURVE",
"280 76 OFFCURVE",
"272 58 CURVE",
"272 62 OFFCURVE",
"268 90 OFFCURVE",
"259 141 CURVE SMOOTH",
"184 531 LINE",
"135 531 LINE",
"22 0 LINE",
"66 0 LINE",
"160 451 LINE",
"161 430 OFFCURVE",
"171 372 OFFCURVE",
"175 353 CURVE SMOOTH",
"246 0 LINE",
"279 0 LINE",
"444 268 OFFCURVE",
"531 408 OFFCURVE",
"538 420 CURVE SMOOTH",
"545 432 OFFCURVE",
"552 444 OFFCURVE",
"557 454 CURVE",
"461 0 LINE",
"504 0 LINE"
);
}
);
width = 637;
}
);
note = afii10078;
unicode = 043C;
},
{
glyphname = afii10079;
lastChange = "2018-06-23 23:45:44 +0000";
layers = (
{
anchors = (
{
name = bottomright;
position = "{523, 0}";
}
);
layerId = "4082F5B4-16CD-4EE9-8420-2E9C5A704856";
paths = (
{
closed = 1;
nodes = (
"36 0 LINE",
"85 0 LINE",
"139 252 LINE",
"444 252 LINE",
"390 0 LINE",
"440 0 LINE",
"553 531 LINE",
"504 531 LINE",
"453 297 LINE",
"148 297 LINE",
"197 531 LINE",
"150 531 LINE"
);
}
);
width = 590;
}
);
note = afii10079;
unicode = 043D;
},
{
glyphname = afii10086;
lastChange = "2018-06-23 23:45:44 +0000";
layers = (
{
layerId = "4082F5B4-16CD-4EE9-8420-2E9C5A704856";
paths = (
{
closed = 1;
nodes = (
"387 760 LINE",
"339 531 LINE",
"280 530 OFFCURVE",
"229 517 OFFCURVE",
"185 490 CURVE SMOOTH",
"97 435 OFFCURVE",
"48 334 OFFCURVE",
"48 214 CURVE SMOOTH",
"48 87 OFFCURVE",
"115 9 OFFCURVE",
"225 0 CURVE",
"174 -240 LINE",
"218 -240 LINE",
"270 0 LINE",
"329 0 OFFCURVE",
"380 13 OFFCURVE",
"424 39 CURVE SMOOTH",
"512 91 OFFCURVE",
"565 198 OFFCURVE",
"565 319 CURVE SMOOTH",
"565 448 OFFCURVE",
"504 520 OFFCURVE",
"384 532 CURVE",
"433 760 LINE"
);
},
{
closed = 1;
nodes = (
"98 270 OFFCURVE",
"108 316 OFFCURVE",
"128 358 CURVE SMOOTH",
"167 444 OFFCURVE",
"237 486 OFFCURVE",
"330 488 CURVE",
"234 42 LINE",
"145 49 OFFCURVE",
"98 112 OFFCURVE",
"98 219 CURVE SMOOTH"
);
},
{
closed = 1;
nodes = (
"467 483 OFFCURVE",
"515 422 OFFCURVE",
"515 315 CURVE SMOOTH",
"515 264 OFFCURVE",
"505 217 OFFCURVE",
"484 173 CURVE SMOOTH",
"443 84 OFFCURVE",
"371 42 OFFCURVE",
"279 42 CURVE",
"375 488 LINE"
);
}
);
width = 610;
}
);
note = afii10086;
unicode = 0444;
},
